<svg xmlns="http://www.w3.org/2000/svg" xmlns:xlink="http://www.w3.org/1999/xlink" width="74" height="74" viewBox="0 0 74 74"><defs><style>.a{fill:#1977f3;}.b{fill:#fff;}.c{filter:url(#a);}</style><filter id="a" x="0" y="0" width="74" height="74" filterUnits="userSpaceOnUse"><feOffset dy="3" input="SourceAlpha"/><feGaussianBlur stdDeviation="3" result="b"/><feFlood flood-opacity="0.161"/><feComposite operator="in" in2="b"/><feComposite in="SourceGraphic"/></filter></defs><g transform="translate(9 6)"><g class="c" transform="matrix(1, 0, 0, 1, -9, -6)"><circle class="a" cx="28" cy="28" r="28" transform="translate(9 6)"/></g><path class="b" d="M4216.344,2803.115l1.238-8.081h-7.75v-5.243c0-2.209,1.081-4.367,4.556-4.367h3.525v-6.878a42.948,42.948,0,0,0-6.257-.546c-6.383,0-10.557,3.867-10.557,10.875v6.159H4194v8.081h7.1v19.53a28.045,28.045,0,0,0,4.366.338,28.532,28.532,0,0,0,4.367-.338v-19.53Z" transform="translate(-4177.516 -2767.085)"/></g></svg>