<svg xmlns="http://www.w3.org/2000/svg" width="24.001" height="24.001" viewBox="0 0 24.001 24.001"><defs><style>.a{fill:#3566b8;}.b{fill:#fff;}</style></defs><path class="a" d="M31.9,19.9a12,12,0,1,0-12,12A12,12,0,0,0,31.9,19.9Z" transform="translate(-7.9 -7.9)"/><g transform="translate(6.685 3.952)"><path class="b" d="M146.1,94.045A3.861,3.861,0,0,1,146.748,92a5,5,0,0,1,1.891-1.717,5.931,5.931,0,0,1,2.9-.682,6.139,6.139,0,0,1,2.718.571,4.4,4.4,0,0,1,1.824,1.548,3.777,3.777,0,0,1,.643,2.123,3.238,3.238,0,0,1-.368,1.582,4.949,4.949,0,0,1-.871,1.175c-.339.329-.938.885-1.814,1.664a6.52,6.52,0,0,0-.58.58,2.448,2.448,0,0,0-.324.455,2.122,2.122,0,0,0-.164.416c-.039.14-.1.382-.174.73a1.186,1.186,0,0,1-1.263,1.108,1.289,1.289,0,0,1-.929-.363,1.423,1.423,0,0,1-.377-1.074,3.969,3.969,0,0,1,.276-1.548,3.912,3.912,0,0,1,.735-1.146q.457-.493,1.233-1.175c.455-.4.779-.7.982-.9a2.886,2.886,0,0,0,.508-.677,1.608,1.608,0,0,0,.208-.808,1.89,1.89,0,0,0-.634-1.437,2.3,2.3,0,0,0-1.63-.585,2.263,2.263,0,0,0-1.722.59,4.653,4.653,0,0,0-.934,1.736c-.242.8-.7,1.2-1.369,1.2a1.355,1.355,0,0,1-1.006-.421A1.254,1.254,0,0,1,146.1,94.045Zm5.19,11.648a1.676,1.676,0,0,1-1.132-.421,1.47,1.47,0,0,1-.484-1.175,1.508,1.508,0,0,1,.469-1.127,1.576,1.576,0,0,1,1.146-.455,1.551,1.551,0,0,1,1.127.455,1.532,1.532,0,0,1,.455,1.127,1.486,1.486,0,0,1-.479,1.171A1.6,1.6,0,0,1,151.29,105.693Z" transform="translate(-146.1 -89.6)"/></g></svg>