<svg xmlns="http://www.w3.org/2000/svg" width="55.999" height="56.002" viewBox="0 0 55.999 56.002"><defs><style>.a{fill:#1da1f2;}</style></defs><path class="a" d="M28,56A28.008,28.008,0,0,1,17.1,2.2,28.008,28.008,0,0,1,38.9,53.8,27.822,27.822,0,0,1,28,56ZM14.4,38.021a.149.149,0,0,0-.139.1.148.148,0,0,0,.059.173A17.169,17.169,0,0,0,40.748,23.827c0-.241,0-.478-.014-.7a12.209,12.209,0,0,0,2.958-3.089.145.145,0,0,0-.01-.175.148.148,0,0,0-.112-.052.141.141,0,0,0-.059.013,11.8,11.8,0,0,1-2.763.838A6.1,6.1,0,0,0,42.9,17.629a.145.145,0,0,0-.049-.159.147.147,0,0,0-.166-.012,11.8,11.8,0,0,1-3.676,1.419A6.138,6.138,0,0,0,28.581,24.34a16.927,16.927,0,0,1-12.04-6.19.146.146,0,0,0-.112-.054h-.013a.146.146,0,0,0-.115.072,6.14,6.14,0,0,0,1.479,7.88,5.887,5.887,0,0,1-2.139-.691.147.147,0,0,0-.072-.019.142.142,0,0,0-.072.02.145.145,0,0,0-.074.123v.078a6.151,6.151,0,0,0,4.311,5.858,5.859,5.859,0,0,1-2.038-.03l-.027,0a.146.146,0,0,0-.141.19,6.115,6.115,0,0,0,5.324,4.238,11.81,11.81,0,0,1-7.026,2.291,12.083,12.083,0,0,1-1.41-.083Z" transform="translate(0 0.001)"/></svg>