<svg xmlns="http://www.w3.org/2000/svg" width="63.996" height="63.999" viewBox="0 0 63.996 63.999"><defs><style>.a{fill:#3566b8;}</style></defs><path class="a" d="M33.963,1.984a1.789,1.789,0,0,0-.239.027,31.9,31.9,0,0,0-24.37,11.6,1.318,1.318,0,0,0-.353.44,31.8,31.8,0,0,0-6.99,19.666,1.432,1.432,0,0,0,0,.527,31.857,31.857,0,0,0,6.914,19.59,1.4,1.4,0,0,0,.5.619A31.918,31.918,0,0,0,33.713,65.959a1.431,1.431,0,0,0,.527,0,31.908,31.908,0,0,0,24.3-11.509,1.4,1.4,0,0,0,.494-.614,31.809,31.809,0,0,0,6.919-19.58,1.431,1.431,0,0,0,0-.527,31.826,31.826,0,0,0-6.99-19.677,1.377,1.377,0,0,0-.348-.445A31.915,31.915,0,0,0,34.24,2.012,1.6,1.6,0,0,0,33.963,1.984ZM32.594,4.819V32.595H22.812A23.6,23.6,0,0,0,12.379,14.378,29.1,29.1,0,0,1,32.594,4.819Zm2.781,0a29.08,29.08,0,0,1,20.21,9.559A23.61,23.61,0,0,0,45.156,32.595H35.375ZM10.608,16.535a20.808,20.808,0,0,1,9.429,16.06H4.819A29.009,29.009,0,0,1,10.608,16.535Zm46.752,0a28.962,28.962,0,0,1,5.784,16.06H47.932A20.808,20.808,0,0,1,57.36,16.535ZM4.819,35.376H20.037a20.808,20.808,0,0,1-9.429,16.06A29.009,29.009,0,0,1,4.819,35.376Zm17.994,0h9.782v27.77a29.076,29.076,0,0,1-20.215-9.554A23.6,23.6,0,0,0,22.812,35.376Zm12.562,0h9.782A23.61,23.61,0,0,0,55.584,53.592a29.052,29.052,0,0,1-20.21,9.554Zm12.557,0H63.145a28.962,28.962,0,0,1-5.784,16.06A20.808,20.808,0,0,1,47.932,35.376Z" transform="translate(-1.986 -1.984)"/></svg>