<svg xmlns="http://www.w3.org/2000/svg" width="48.641" height="64.002" viewBox="0 0 48.641 64.002"><defs><style>.a{fill:#152c43;}</style></defs><path class="a" d="M9.84,0A3.86,3.86,0,0,0,6,3.84V64H54.641V3.84A3.86,3.86,0,0,0,50.8,0Zm0,2.56H50.8a1.276,1.276,0,0,1,1.28,1.28v57.6h-5.12V46.081H32.881v15.36H8.56V3.84A1.276,1.276,0,0,1,9.84,2.56Zm3.84,5.12v10.24h14.08V7.68Zm19.2,0v10.24h14.08V7.68ZM16.24,10.24H25.2v5.12H16.24Zm19.2,0H44.4v5.12h-8.96ZM13.68,20.481v10.24h14.08V20.481Zm19.2,0v10.24h14.08V20.481ZM16.24,23.041H25.2v5.12H16.24Zm19.2,0H44.4v5.12h-8.96ZM13.68,33.281v10.24h14.08V33.281Zm19.2,0v10.24h14.08V33.281ZM16.24,35.841H25.2v5.12H16.24Zm19.2,0H44.4v5.12h-8.96ZM13.68,46.081v10.24h14.08V46.081Zm2.56,2.56H25.2v5.12H16.24Zm19.2,0H44.4v12.8h-8.96Z" transform="translate(-6)"/></svg>