<svg xmlns="http://www.w3.org/2000/svg" width="63.996" height="56.317" viewBox="0 0 63.996 56.317"><defs><style>.a{fill:#3566b8;}</style></defs><g transform="translate(-1076 -198.014)"><path class="a" d="M25.6,3a3.859,3.859,0,0,0-3.84,3.84v3.84H3.84A3.844,3.844,0,0,0,0,14.519V55.477a3.844,3.844,0,0,0,3.84,3.84H36.82a16.661,16.661,0,0,1-1.655-2.56H3.84a1.281,1.281,0,0,1-1.28-1.28V37.323a3.8,3.8,0,0,0,1.28.235H37.928A16.718,16.718,0,0,1,41.077,35H3.84a1.281,1.281,0,0,1-1.28-1.28v-19.2a1.281,1.281,0,0,1,1.28-1.28H60.156a1.281,1.281,0,0,1,1.28,1.28V37.113A16.668,16.668,0,0,1,64,40.238V14.519a3.844,3.844,0,0,0-3.84-3.84H42.237V6.84A3.859,3.859,0,0,0,38.4,3Zm0,2.56H38.4a1.263,1.263,0,0,1,1.28,1.28v3.84H24.319V6.84A1.263,1.263,0,0,1,25.6,5.56ZM32,27.319a2.56,2.56,0,1,0,2.56,2.56A2.56,2.56,0,0,0,32,27.319Z" transform="translate(1076 195.014)"/><path class="a" d="M15.665,4A11.665,11.665,0,1,0,27.33,15.665,11.678,11.678,0,0,0,15.665,4Zm0,1.75A9.915,9.915,0,1,1,5.75,15.665,9.9,9.9,0,0,1,15.665,5.75ZM15.36,8.07a.875.875,0,0,0-.861.887V9.63a3.329,3.329,0,0,0-2.916,3.265,3.367,3.367,0,0,0,3.354,3.354H16.1a1.9,1.9,0,0,1,0,3.791H14.79a1.453,1.453,0,0,1-1.411-1.089.875.875,0,1,0-1.693.441A3.2,3.2,0,0,0,14.5,21.74v.632a.875.875,0,1,0,1.75,0V21.76A3.632,3.632,0,0,0,16.1,14.5H14.936a1.6,1.6,0,0,1,0-3.208h.294a.875.875,0,0,0,.284,0h.443a1.454,1.454,0,0,1,1.408,1.077.875.875,0,0,0,1.689-.457,3.2,3.2,0,0,0-2.806-2.32V8.958a.875.875,0,0,0-.889-.887Z" transform="translate(1110 227)"/></g></svg>