<svg xmlns="http://www.w3.org/2000/svg" width="66.003" height="51.603" viewBox="0 0 66.003 51.603"><defs><style>.a{fill:#3566b8;}.b,.c{fill:none;stroke:#3566b8;stroke-miterlimit:10;stroke-width:2px;}.c{stroke-linecap:round;stroke-linejoin:round;}</style></defs><g transform="translate(-4 -12)"><path class="a" d="M37,39.417V34.4s13.25-.038,16,1.816c0,0-11.522.365-13.058,1A9.993,9.993,0,0,0,37,39.417Zm0,0V34.4s-13.25-.038-16,1.816c0,0,11.522.365,13.058,1A9.993,9.993,0,0,1,37,39.417Zm17.611-4.773c2.071-1.73,2.1-2.087,10.429-3.431,1.194-.192,1.344,1.957,1.438,2.6.152,1.018-.08,3.576-2.277,3.791-2.224.216-1.6-1.213-4.274-1.213A5.554,5.554,0,0,1,57.052,36C55.489,35.087,54.612,34.644,54.612,34.644ZM16.961,36a5.554,5.554,0,0,1-2.877.386c-2.674,0-2.05,1.429-4.274,1.213-2.2-.214-2.429-2.773-2.277-3.791.094-.64.245-2.789,1.438-2.6,8.328,1.344,8.359,1.7,10.429,3.431C19.4,34.644,18.524,35.087,16.961,36ZM62.147,24.8s4.467-.034,5.107-.034S69,24.293,69,23.752a7.779,7.779,0,0,0-.667-2.671A15.615,15.615,0,0,0,64.419,20a3.523,3.523,0,0,0-2.512,3.594Zm-50.291,0s-4.467-.034-5.107-.034S5,24.293,5,23.752a7.779,7.779,0,0,1,.667-2.671A15.615,15.615,0,0,1,9.584,20,3.523,3.523,0,0,1,12.1,23.594Z" transform="translate(0 4.201)"/><path class="b" d="M59.4,47.683V51.4A1.6,1.6,0,0,0,61,53h6.4A1.6,1.6,0,0,0,69,51.4V29M14.6,47.683V51.4A1.6,1.6,0,0,1,13,53H6.6A1.6,1.6,0,0,1,5,51.4V29" transform="translate(0 9.601)"/><path class="b" d="M62.345,29.463c-1.9-3.938-4.253-13.564-7.743-15.39C53.036,13.256,37,13,37,13s-16.034.256-17.6,1.074c-3.49,1.826-5.847,11.452-7.743,15.39C10.96,30.913,5,33.8,5,37c0,3.29.622,13.356,1.019,16.383a3.174,3.174,0,0,0,2.69,2.741A199.8,199.8,0,0,0,37,57.8a199.8,199.8,0,0,0,28.293-1.677,3.174,3.174,0,0,0,2.69-2.741C68.381,50.357,69,40.291,69,37,69,33.8,63.043,30.913,62.345,29.463ZM60.8,27.4H13.2" transform="translate(0 0)"/><path class="c" d="M53.72,43.917c8-3.2,6.4-8.917,6.4-8.917-1.114,0-7.9,3.2-11.2,3.2H20.25c-3.3,0-10.087-3.2-11.2-3.2,0,0-1.6,5.717,6.4,8.917" transform="translate(2.351 13.202)"/></g></svg>