<svg xmlns="http://www.w3.org/2000/svg" width="63.326" height="63.998" viewBox="0 0 63.326 63.998"><defs><style>.a{fill:#3566b8;}</style></defs><path class="a" d="M51.181,1.445,35.608,23.752l-4.183,2.792L14.832,32.51a12.636,12.636,0,0,0-3.807,1.659A16.379,16.379,0,0,0,4.9,38.422c-2.5,2.878-4.1,7.636-1.342,13.9l-.118-.537h.494a14.164,14.164,0,0,1-1.595,2.261l-.381.4v6.616a4.985,4.985,0,0,0,.526,2.121,4.319,4.319,0,0,0,3.872,2.261H12l-.1-1.461a8.516,8.516,0,0,0-.558-2.465A5.279,5.279,0,0,0,10.1,59.611c-.3-.274-.805-.311-1.214-.494V58.9a6.612,6.612,0,0,1,.521-.741,24.172,24.172,0,0,1,3.6-3.437v6.336a5.024,5.024,0,0,0,.521,2.121,4.334,4.334,0,0,0,3.877,2.261h5.316l.043-1.332a7.667,7.667,0,0,0-.376-2.54,4.675,4.675,0,0,0-1.219-1.987c-.306-.29-.854-.311-1.289-.494v-.145c.129-.268,1.675-3.335,7.4-9.354,2.626.22,5.391.435,7.716.564V61.136l.005.075a5.583,5.583,0,0,0,.746,2.073,4.68,4.68,0,0,0,3.99,2.159h7.276l-.2-1.557a8.745,8.745,0,0,0-.789-2.5,5.241,5.241,0,0,0-2.776-2.331V48.711l.016-.005.3-.3c.65-.655,2.7-2.073,4.554-4.06a14.348,14.348,0,0,0,3.388-5.585c.183-.575.371-1.5.644-2.867s.6-3.072.9-4.8.6-3.474.822-4.94c.129-.859.156-1.342.22-1.955h6.642a6.573,6.573,0,0,0,2.341-.43,3.807,3.807,0,0,0,1.4-.891A2.824,2.824,0,0,0,65.25,21a18.214,18.214,0,0,0-.005-2.438l-.086-.827-.779-.306-3.834-1.514c-.956-.376-1.912-.757-2.637-1.036-.172-.07-.279-.113-.419-.166a7.177,7.177,0,0,0-.107-1.138,3.679,3.679,0,0,0-1.063-1.82,7.029,7.029,0,0,0-3.609-1.369c-.4-2.433-.95-5.66-.95-5.66ZM49.607,8.5c.231,1.326.36,2.046.548,3.254l.161.988.988.156a8.36,8.36,0,0,1,3.179.891.739.739,0,0,1,.236.446,6.732,6.732,0,0,1,.113,1.444v1.375h1.117c.032.011.048.021.086.038l.87.338c.72.285,1.675.66,2.631,1.036,1.487.591,2.373.94,2.97,1.176a6.608,6.608,0,0,1-.005,1.246v.1c0,.038.032-.048,0-.005a1.449,1.449,0,0,1-.408.226,4.97,4.97,0,0,1-1.353.247H51.508L51.5,22.823c0,.306-.134,1.5-.344,2.927s-.5,3.157-.811,4.87-.623,3.394-.891,4.736-.526,2.443-.575,2.594v.011a11.62,11.62,0,0,1-2.765,4.505h-.005c-1.482,1.589-3.029,2.658-4.146,3.689l-1.461.279V61.319H41.88c.886,0,1.294.51,1.691,1.3.016.032.005.032.027.07h-3.85A1.589,1.589,0,0,1,38.1,61.84a2.681,2.681,0,0,1-.344-.913V47.572l-1.316-.054c-5.681-.242-17.9-1.45-17.9-1.45l-.811-.086-.462.671a30.087,30.087,0,0,1-5.773,5.756,27.47,27.47,0,0,0-4.231,4.033,9.314,9.314,0,0,0-.784,1.128,4.274,4.274,0,0,0-.263.548l-.075.22v2.953l1.342.027a.911.911,0,0,1,.73.3,2.732,2.732,0,0,1,.58.924c.032.075.011.081.032.156H6.359c-1.058,0-1.2-.322-1.418-.746a2.394,2.394,0,0,1-.231-.886V55.38A18.87,18.87,0,0,0,9.049,42.9a7.045,7.045,0,0,1,3.2-6.24,9.735,9.735,0,0,1,3.259-1.482l.1-.016,17.06-6.143,4.892-3.265ZM6.515,40.806A11.135,11.135,0,0,0,6.3,42.9a17.819,17.819,0,0,1-1.042,6C4.216,45.177,5.1,42.669,6.515,40.806ZM19,48.861c.333.032,2.583.242,4.806.435-4.989,5.515-6.54,8.683-6.54,8.683l-.134.279v3.061h1.375a.965.965,0,0,1,.789.274,2.126,2.126,0,0,1,.483.848,2.045,2.045,0,0,1,.038.252H17.41c-1.058,0-1.2-.322-1.418-.746a2.394,2.394,0,0,1-.231-.886V55.24c.086-.193.746-1.67,1.826-4.709C18.269,49.785,18.758,49.183,19,48.861Z" transform="translate(-1.961 -1.445)"/></svg>