<svg xmlns="http://www.w3.org/2000/svg" width="53.738" height="63.997" viewBox="0 0 53.738 63.997"><defs><style>.a{fill:#3566b8;}</style></defs><path class="a" d="M42.674,0C18.315,0,8.345,7.415,3.236,14.639a1.283,1.283,0,0,0,.44,1.84,7.04,7.04,0,0,1,2.12,2.08,13.721,13.721,0,0,1,2.32,8.32V56.317a3.86,3.86,0,0,0-3.84,3.84V64H54.193v-3.84a3.86,3.86,0,0,0-3.84-3.84h-1.28v-8.28l5.76-3.44a1.281,1.281,0,0,0-.84-2.36,1.3,1.3,0,0,0-.44.2l-4.48,2.68v-7.68c.435-.615,7.68-10.924,7.68-22.079a17.2,17.2,0,0,0-3.08-10.44C51.433,1.97,47.754,0,42.674,0Zm0,2.56c4.445,0,7.18,1.57,8.96,3.92a14.81,14.81,0,0,1,2.56,8.88c0,10.285-7.44,21.039-7.44,21.039a1.281,1.281,0,0,0-.24.72V46.8a1.283,1.283,0,0,0,0,1.36v8.16H10.675V26.879a16.5,16.5,0,0,0-2.8-9.84,10.144,10.144,0,0,0-1.76-1.84C10.98,8.845,19.89,2.56,42.674,2.56Zm.52,3.84a4.74,4.74,0,0,0-3.24.84,3.741,3.741,0,0,0-1.12,3V28.159a2.738,2.738,0,0,0,.52,1.72,2.256,2.256,0,0,0,1.72.84c1.985,0,3.785-1.52,5.32-4.08a21.872,21.872,0,0,0,2.68-11.279v-3.84a4.794,4.794,0,0,0-2-3.84A6.559,6.559,0,0,0,43.194,6.4Zm0,2.56a4.107,4.107,0,0,1,2.32.76,2.146,2.146,0,0,1,1,1.8v3.84a19.354,19.354,0,0,1-2.32,9.96,6.01,6.01,0,0,1-2.8,2.68V10.24c0-.825.13-.98.2-1.04A3.353,3.353,0,0,1,43.194,8.96Zm-15.879,12.8a7.7,7.7,0,0,0-7.68,7.68v.68a1.293,1.293,0,0,0,0,1.12v5.28a1.294,1.294,0,0,0,0,1.12v5.28a1.294,1.294,0,0,0,0,1.12v.76a7.68,7.68,0,1,0,15.359,0V29.439A7.7,7.7,0,0,0,27.315,21.759Zm0,2.56a5.1,5.1,0,0,1,5.12,5.12V44.8a5.12,5.12,0,1,1-10.24,0h5.12a1.28,1.28,0,1,0,0-2.56h-5.12V38.4h5.12a1.28,1.28,0,1,0,0-2.56h-5.12V32h5.12a1.28,1.28,0,1,0,0-2.56h-5.12A5.1,5.1,0,0,1,27.315,24.319ZM8.115,58.877H50.353a1.264,1.264,0,0,1,1.28,1.28v1.28H6.836v-1.28A1.264,1.264,0,0,1,8.115,58.877Z" transform="translate(-3.015)"/></svg>