<svg xmlns="http://www.w3.org/2000/svg" width="63.625" height="55.996" viewBox="0 0 63.625 55.996"><defs><style>.a{fill:#152c43;}</style></defs><path class="a" d="M33.088,3c-6,0-13,1.921-18.734,3.907A100.914,100.914,0,0,0,3.422,11.354,6.364,6.364,0,1,0,9.3,22.641c1.418-.739,6.414-3.7,12.145-6.55s12.243-5.456,15.458-5.456c13.382,0,24.608,9.86,24.608,9.86A1.273,1.273,0,0,0,63.3,18.684l-.092-.092C62.943,18.3,49.057,3,33.088,3Zm0,2.545c4.841,0,9.4,1.847,13.616,4.071a34.139,34.139,0,0,0-9.8-1.526c-4.421,0-10.759,2.821-16.592,5.722S9.2,19.825,8.127,20.384A3.819,3.819,0,1,1,4.6,13.611a106.3,106.3,0,0,1,10.589-4.3C20.786,7.373,27.639,5.545,33.088,5.545ZM31.815,23.362c-18.034,0-27.19,16.039-27.74,17.031l0,.007a1.273,1.273,0,0,0,.067,1.67C4.995,43.589,14.117,59,31.815,59c17.684,0,26.8-15.38,27.675-16.92a1.273,1.273,0,0,0,.065-1.685l0,0C58.988,39.372,49.834,23.362,31.815,23.362Zm0,2.545c11.222,0,18.612,6.671,22.371,11.245a59.134,59.134,0,0,0-10.072-4.176A42.273,42.273,0,0,0,31.815,31a42.272,42.272,0,0,0-12.3,1.979A59.134,59.134,0,0,0,9.445,37.152C13.2,32.578,20.594,25.907,31.815,25.907Zm-4.166,7.927a6.361,6.361,0,1,0,8.339,0,42.8,42.8,0,0,1,6.756,1.4,11.278,11.278,0,0,1,.524,3.4,11.454,11.454,0,1,1-22.907,0,11.278,11.278,0,0,1,.524-3.4A42.791,42.791,0,0,1,27.649,33.834Zm-9.614,2.332a14,14,0,1,0,27.561,0,58.661,58.661,0,0,1,11.2,5.394C55.275,44.1,47.144,56.451,31.815,56.451S8.355,44.1,6.837,41.559A58.661,58.661,0,0,1,18.035,36.166Z" transform="translate(-0.002 -3)"/></svg>