<svg xmlns="http://www.w3.org/2000/svg" width="63.981" height="63.999" viewBox="0 0 63.981 63.999"><defs><style>.a{fill:#152c43;}</style></defs><path class="a" d="M43.069.986A1.306,1.306,0,0,0,42.88,1H23.5A1.306,1.306,0,0,0,22.2,2.31V27.119H13.59a9.814,9.814,0,0,0-9.778,9.813c0,.089,0,1.275,0,2A5.35,5.35,0,0,0,0,44a5.235,5.235,0,0,0,3.185,4.667L5.593,54.9l-.036-.112a4.619,4.619,0,0,0,2.369,2.8l-1,2.022a3.718,3.718,0,0,0,6.649,3.328v0L15.8,58.456H33.822l2.226,4.476,0,0A3.716,3.716,0,0,0,42.7,59.607l-1.239-2.494a1.306,1.306,0,0,0,.326.038H56.147v1.306h7.834V2.31A1.306,1.306,0,0,0,62.675,1H43.291A1.306,1.306,0,0,0,43.069.986ZM24.809,3.616H41.783V30.172a9.724,9.724,0,0,0-7.064-3.053h-9.91Zm19.586,0H61.369V54.539H42.86l2.267-5.866A5.238,5.238,0,0,0,48.312,44,5.351,5.351,0,0,0,44.5,38.929c0-.256,0-.333,0-.663,0-.663,0-1.274,0-1.334a9.791,9.791,0,0,0-.145-1.627,1.306,1.306,0,0,0,.043-.352ZM49.6,27.1a1.306,1.306,0,0,0-1.285,1.324v3.917a1.306,1.306,0,1,0,2.612,0V28.425A1.306,1.306,0,0,0,49.6,27.1ZM13.59,29.73h9.694a1.306,1.306,0,0,0,.426,0H34.719a7.164,7.164,0,0,1,7.166,7.2c0-.049,0,.668,0,1.331,0,.34,0,.439,0,.683a5.28,5.28,0,0,0-3.976,3.175l.031-.074L36.492,45.3l-.059-.018c-.727-.22-1.743-.5-2.969-.783a42.25,42.25,0,0,0-9.2-1.107,43.627,43.627,0,0,0-9.308,1.112c-1.253.28-2.3.562-3.045.783l-.1.033-1.349-3a5.3,5.3,0,0,0-4.029-3.354c0-.756,0-2.11,0-2.035A7.162,7.162,0,0,1,13.59,29.73ZM5.376,41.222a2.747,2.747,0,0,1,2.637,2l.026.087,2.476,5.516,1.163-.722c.04-.015.089-.033.166-.059.183-.061.458-.147.806-.25.695-.205,1.685-.474,2.874-.74a41.34,41.34,0,0,1,8.74-1.048,39.912,39.912,0,0,1,8.622,1.043c1.159.264,2.118.531,2.79.734.336.1.6.187.778.247.075.026.124.044.163.059l1.171.724,2.553-5.746.015-.038a2.761,2.761,0,1,1,3.308,3.639l-.63.176-2.77,7.166-.018.056a2.355,2.355,0,0,1-1.793,1.51,6.286,6.286,0,0,1-1.665.265H34.816a1.191,1.191,0,0,0-.385,0H11.525a6.282,6.282,0,0,1-1.665-.265,2.354,2.354,0,0,1-1.793-1.51l-.018-.056-2.77-7.169-.632-.176a2.774,2.774,0,0,1,.729-5.447Zm33.666,16.9,1.318,2.652v0a1.1,1.1,0,1,1-1.976.987v.005l-1.645-3.31h.02A9.134,9.134,0,0,0,39.042,58.12Zm-28.586.245a9.9,9.9,0,0,0,1.1.092h1.329l-1.645,3.305a1.106,1.106,0,0,1-1.979-.987v0Z" transform="translate(0 -0.986)"/></svg>