<svg xmlns="http://www.w3.org/2000/svg" width="61.437" height="63.997" viewBox="0 0 61.437 63.997"><defs><style>.a{fill:#152c43;}</style></defs><path class="a" d="M11.36,0a6.807,6.807,0,0,0-6.8,6.8V56.317H3.16A1.275,1.275,0,0,0,2,57.6v5.12A1.282,1.282,0,0,0,3.28,64H45.518a1.282,1.282,0,0,0,1.28-1.28V57.6a1.282,1.282,0,0,0-1.28-1.28h-1.28V34.758a4.96,4.96,0,0,1,3.84,4.92v6.4a7.68,7.68,0,1,0,15.359,0V24.839a5.69,5.69,0,0,0-1.64-4L47.718,6.76,45.878,8.6l7.32,7.32V26.359a5.69,5.69,0,0,0,1.64,4l6.04,6.04v9.679a5.12,5.12,0,1,1-10.239,0v-6.4a7.641,7.641,0,0,0-6.4-7.56V6.8a6.807,6.807,0,0,0-6.8-6.8Zm0,2.56H37.438a4.173,4.173,0,0,1,4.24,4.24V56.317H7.12V6.8A4.173,4.173,0,0,1,11.36,2.56ZM13.4,5.12A3.726,3.726,0,0,0,9.68,8.84V21.879A3.726,3.726,0,0,0,13.4,25.6h22a3.726,3.726,0,0,0,3.72-3.72V8.84A3.726,3.726,0,0,0,35.4,5.12Zm0,2.56h22a1.379,1.379,0,0,1,1.16,1.16V21.879a1.379,1.379,0,0,1-1.16,1.16h-22a1.379,1.379,0,0,1-1.16-1.16V8.84A1.379,1.379,0,0,1,13.4,7.68Zm42.358,10.8,4.2,4.2a3.3,3.3,0,0,1,.92,2.16v7.88l-4.2-4.2a3.3,3.3,0,0,1-.92-2.16Zm-51.2,40.4H44.238v2.56H4.56Z" transform="translate(-2)"/></svg>