<svg xmlns="http://www.w3.org/2000/svg" width="50.086" height="63.999" viewBox="0 0 50.086 63.999"><defs><style>.a{fill:#152c43;}</style></defs><path class="a" d="M32.043,2a15.327,15.327,0,0,0-15.3,15.3V34a1.334,1.334,0,0,0,.06.413h0a3.413,3.413,0,0,0,1.2,2.016,8.536,8.536,0,0,0,2.549,1.424.726.726,0,0,0,.1.038c.114.076.228.163.337.239a11.251,11.251,0,0,0,4.109,8.685v1.924A7.479,7.479,0,0,1,21.924,50.9c-1.739.755-3.924,1.478-6.092,2.424A17.922,17.922,0,0,0,9.81,57.255,10.468,10.468,0,0,0,7,64.608V66H57.086V64.608a10.468,10.468,0,0,0-2.81-7.353,17.922,17.922,0,0,0-6.022-3.929c-2.168-.946-4.353-1.668-6.092-2.424A7.479,7.479,0,0,1,39,48.739V46.815a11.251,11.251,0,0,0,4.109-8.685c.109-.076.223-.158.332-.239a.793.793,0,0,0,.1-.038,8.536,8.536,0,0,0,2.549-1.424,3.426,3.426,0,0,0,1.2-2.022,1.3,1.3,0,0,0,.06-.408V17.3A15.327,15.327,0,0,0,32.043,2Zm0,2.783A12.5,12.5,0,0,1,44.565,17.3V30.592a14.727,14.727,0,0,0-2.283-.875,36.741,36.741,0,0,0-10.239-1.283A36.741,36.741,0,0,0,21.8,29.717a14.727,14.727,0,0,0-2.283.875V17.3A12.5,12.5,0,0,1,32.043,4.783Zm0,26.435a34.526,34.526,0,0,1,9.435,1.163,11.888,11.888,0,0,1,1.636.614,4.773,4.773,0,0,1-.826,2.223,3.9,3.9,0,0,1-1.125,1.06l-.772.38v.864a11.529,11.529,0,0,1-.071,1.245,1.157,1.157,0,0,0-.087.136,5.234,5.234,0,0,1-1.609,1.62,10.922,10.922,0,0,1-6.581,1.826,10.922,10.922,0,0,1-6.581-1.826,5.235,5.235,0,0,1-1.609-1.62,1.229,1.229,0,0,0-.087-.141,11.508,11.508,0,0,1-.071-1.239v-.864l-.772-.38a3.9,3.9,0,0,1-1.125-1.06,4.773,4.773,0,0,1-.826-2.223,11.888,11.888,0,0,1,1.636-.614A34.526,34.526,0,0,1,32.043,31.217ZM25.956,43.956a15.139,15.139,0,0,0,6.087,1.174,15.139,15.139,0,0,0,6.087-1.174A5.557,5.557,0,0,1,36.9,44.983l-.685.408v2.826L32.043,49.26l-4.174-1.043V45.391l-.685-.408A5.557,5.557,0,0,1,25.956,43.956Zm1.087,6.924,3.609.9v3.087h2.783V51.782l3.609-.9a11.022,11.022,0,0,0,4.011,2.576c1.913.826,4.076,1.538,6.081,2.418a15.524,15.524,0,0,1,5.109,3.277,7.447,7.447,0,0,1,1.815,4.065H33.435V57.652H30.652v5.565H10.027a7.447,7.447,0,0,1,1.815-4.065,15.524,15.524,0,0,1,5.109-3.277c2.005-.88,4.168-1.592,6.081-2.418A11.022,11.022,0,0,0,27.043,50.88Z" transform="translate(-7 -2)"/></svg>