<svg xmlns="http://www.w3.org/2000/svg" width="63.663" height="55.996" viewBox="0 0 63.663 55.996"><defs><style>.a{fill:#3566b8;}</style></defs><path class="a" d="M17.992,4A18.053,18.053,0,0,0,0,22.072a26.411,26.411,0,0,0,.45,4.847H3.056a23.378,23.378,0,0,1-.51-4.847A15.5,15.5,0,0,1,17.992,6.547a14.691,14.691,0,0,1,11.84,5.911c.244.306.967,1.236.967,1.236a1.319,1.319,0,0,0,2.012,0s.719-.927.967-1.233A14.918,14.918,0,0,1,45.671,6.547,15.5,15.5,0,0,1,61.116,22.072c0,14.769-13.422,23.8-23.222,30.384a74.635,74.635,0,0,0-6.068,4.638c-1.348-1.108-4.068-3.3-6.06-4.64-6.672-4.487-15.02-10.105-19.671-17.9H3.143c4.735,8.927,13.918,15.112,21.2,20.012,2.577,1.732,6.626,5.121,6.667,5.155A1.211,1.211,0,0,0,31.8,60a1.456,1.456,0,0,0,.92-.328,79.1,79.1,0,0,1,6.6-5.1c10.276-6.911,24.349-16.373,24.349-32.5A18.053,18.053,0,0,0,45.671,4,17.387,17.387,0,0,0,31.8,10.851,17.332,17.332,0,0,0,17.992,4Zm4.277,8.913a1.273,1.273,0,0,0-1.233,1.017L17.47,31.256,15.2,25.2a1.273,1.273,0,0,0-2.33-.122l-2.193,4.389H2.547a1.273,1.273,0,1,0,0,2.547h8.913a1.273,1.273,0,0,0,1.139-.7l1.241-2.482,2.8,7.453a1.273,1.273,0,0,0,2.437-.191L22.2,20.876l3.919,21.551a1.273,1.273,0,0,0,2.442.229l5.163-13.424,2.644,7.048a1.273,1.273,0,0,0,2.27.226l2.81-4.494h6.006a2.544,2.544,0,1,0,0-2.547H40.744a1.273,1.273,0,0,0-1.079.6l-1.818,2.907L34.933,25.2a1.273,1.273,0,0,0-2.38-.01L27.815,37.5l-4.28-23.545a1.273,1.273,0,0,0-1.266-1.044Z" transform="translate(0 -4)"/></svg>