<svg xmlns="http://www.w3.org/2000/svg" width="64" height="64" viewBox="0 0 64 64"><defs><style>.a{fill:#3566b8;}</style></defs><path class="a" d="M7.048,4A3.07,3.07,0,0,0,4,7.048v12.19a3.07,3.07,0,0,0,3.048,3.048h12.19a3.07,3.07,0,0,0,3.048-3.048V7.048A3.07,3.07,0,0,0,19.238,4ZM29.9,4a3.07,3.07,0,0,0-3.048,3.048v12.19A3.07,3.07,0,0,0,29.9,22.286H42.1a3.07,3.07,0,0,0,3.048-3.048V7.048A3.07,3.07,0,0,0,42.1,4ZM52.762,4a3.07,3.07,0,0,0-3.048,3.048v12.19a3.07,3.07,0,0,0,3.048,3.048h12.19A3.07,3.07,0,0,0,68,19.238V7.048A3.07,3.07,0,0,0,64.952,4ZM7.048,7.048h12.19v12.19H7.048Zm22.857,0H42.1v12.19H29.9Zm22.857,0h12.19v12.19H52.762ZM7.048,26.857A3.07,3.07,0,0,0,4,29.9V42.1a3.07,3.07,0,0,0,3.048,3.048h12.19A3.07,3.07,0,0,0,22.286,42.1V29.9a3.07,3.07,0,0,0-3.048-3.048Zm22.857,0A3.07,3.07,0,0,0,26.857,29.9V42.1A3.07,3.07,0,0,0,29.9,45.143H42.1A3.07,3.07,0,0,0,45.143,42.1V29.9A3.07,3.07,0,0,0,42.1,26.857Zm22.857,0A3.07,3.07,0,0,0,49.714,29.9V42.1a3.07,3.07,0,0,0,3.048,3.048h12.19A3.07,3.07,0,0,0,68,42.1V29.9a3.07,3.07,0,0,0-3.048-3.048ZM7.048,29.9h12.19V42.1H7.048Zm22.857,0H42.1V42.1H29.9Zm22.857,0h12.19V42.1H52.762ZM7.048,49.714A3.07,3.07,0,0,0,4,52.762v12.19A3.07,3.07,0,0,0,7.048,68h12.19a3.07,3.07,0,0,0,3.048-3.048V52.762a3.07,3.07,0,0,0-3.048-3.048Zm22.857,0a3.07,3.07,0,0,0-3.048,3.048v12.19A3.07,3.07,0,0,0,29.9,68H42.1a3.07,3.07,0,0,0,3.048-3.048V52.762A3.07,3.07,0,0,0,42.1,49.714Zm22.857,0a3.07,3.07,0,0,0-3.048,3.048v12.19A3.07,3.07,0,0,0,52.762,68h12.19A3.07,3.07,0,0,0,68,64.952V52.762a3.07,3.07,0,0,0-3.048-3.048ZM7.048,52.762h12.19v12.19H7.048Zm22.857,0H42.1v12.19H29.9Zm22.857,0h12.19v12.19H52.762Z" transform="translate(-4 -4)"/></svg>