<svg xmlns="http://www.w3.org/2000/svg" width="64.003" height="63.999" viewBox="0 0 64.003 63.999"><defs><style>.a{fill:#3566b8;}</style></defs><path class="a" d="M31.958,2a29.959,29.959,0,1,0,8.17,58.768V55.512a12.353,12.353,0,0,1-6.809,3.575V48.3h6.809V45.576H33.32V33.32h6.809V30.6H33.32V18.341H46.081a41.2,41.2,0,0,1,2.16,11.793l1.42,1.335,1.346,1.255.633.6h7.506a27.326,27.326,0,0,1-1,6.1l2.2,2.064A29.923,29.923,0,0,0,31.958,2ZM30.6,4.835V15.617H18.942a27.974,27.974,0,0,1,1.654-3.16C23.315,8.069,26.82,5.367,30.6,4.835Zm2.723,0C38.092,5.495,42.278,9.58,45,15.617H33.32ZM42.172,6.7a27.267,27.267,0,0,1,11.559,8.915H47.916A27.578,27.578,0,0,0,42.172,6.7Zm-20.527.053a23.994,23.994,0,0,0-3.362,4.266,31.479,31.479,0,0,0-2.325,4.6H10.2A27.234,27.234,0,0,1,21.644,6.755ZM8.389,18.341h6.575A44.1,44.1,0,0,0,12.937,30.6H4.755A27.1,27.1,0,0,1,8.389,18.341Zm9.458,0H30.6V30.6H15.66A40.81,40.81,0,0,1,17.846,18.341Zm31.07,0H55.55A27.094,27.094,0,0,1,59.156,30.6H50.98A43.635,43.635,0,0,0,48.917,18.341ZM4.755,33.32h8.181a44.1,44.1,0,0,0,2.027,12.256H8.389A27.1,27.1,0,0,1,4.755,33.32Zm10.9,0H30.6V45.576H17.846A40.81,40.81,0,0,1,15.66,33.32Zm29.852,0a1.366,1.366,0,0,0-1.3,1.362V60.9a1.363,1.363,0,0,0,2.325.963l4.1-4.107,3.42,7.458a1.364,1.364,0,0,0,1.809.665l5.256-2.4a1.364,1.364,0,0,0,.665-1.809l-3.548-7.745h6.4a1.363,1.363,0,0,0,.931-2.356L46.507,33.687A1.379,1.379,0,0,0,45.512,33.32Zm1.426,4.505L61.194,51.193H56.3a1.36,1.36,0,0,0-.612.144l-.144.074a1.358,1.358,0,0,0-.628,1.782l3.83,8.362-2.782,1.277L52.3,54.837a1.354,1.354,0,0,0-2.2-.388l-3.165,3.16ZM10.2,48.3h5.761a31.48,31.48,0,0,0,2.325,4.6,23.994,23.994,0,0,0,3.362,4.266A27.234,27.234,0,0,1,10.2,48.3Zm8.745,0H30.6V59.082c-3.777-.532-7.282-3.234-10-7.617A28.524,28.524,0,0,1,18.942,48.3Z" transform="translate(-2 -2)"/></svg>