<svg xmlns="http://www.w3.org/2000/svg" width="63.996" height="61.436" viewBox="0 0 63.996 61.436"><defs><style>.a{fill:#152c43;}</style></defs><path class="a" d="M7.44,2A1.28,1.28,0,0,0,6.4,3.28v6.4H3.64A3.653,3.653,0,0,0,0,13.319V55.957A3.653,3.653,0,0,0,3.64,59.6H25a8.3,8.3,0,0,0,14,0H60.356A3.653,3.653,0,0,0,64,55.957V13.319a3.653,3.653,0,0,0-3.64-3.64H57.6V3.28A1.282,1.282,0,0,0,56.317,2C46.547,2,40.238,3.975,36.358,6a19.084,19.084,0,0,0-4.12,2.8c-.1.095-.15.15-.24.24-.09-.09-.135-.145-.24-.24A19.084,19.084,0,0,0,27.638,6C23.759,3.975,17.449,2,7.68,2H7.44Zm1.52,2.64c8.624.175,14.174,1.875,17.479,3.6a16.518,16.518,0,0,1,3.6,2.48,3.217,3.217,0,0,1,.68.76V52.237a19.558,19.558,0,0,0-3.32-1.52c-3.65-1.265-9.634-2.435-18.439-2.56Zm46.077,0V48.157c-8.8.125-14.789,1.295-18.439,2.56a19.558,19.558,0,0,0-3.32,1.52V11.479a3.217,3.217,0,0,1,.68-.76,16.518,16.518,0,0,1,3.6-2.48C40.863,6.515,46.412,4.815,55.037,4.64Zm-51.4,7.6H6.4V49.357a1.282,1.282,0,0,0,1.28,1.28c9.429,0,15.389,1.255,18.919,2.48a18.245,18.245,0,0,1,3.6,1.64,7.655,7.655,0,0,1,.84.56,1.276,1.276,0,0,0,1.12.4h.04a1.275,1.275,0,0,0,.56-.24,1.168,1.168,0,0,0,.28-.24c.135-.1.365-.24.76-.48a18.246,18.246,0,0,1,3.6-1.64c3.53-1.225,9.489-2.48,18.919-2.48a1.282,1.282,0,0,0,1.28-1.28V12.239h2.76a1.06,1.06,0,0,1,1.08,1.08V55.957a1.06,1.06,0,0,1-1.08,1.08H38.4a1.278,1.278,0,0,0-1.12.64,6.526,6.526,0,0,1-5.28,3.2,6.526,6.526,0,0,1-5.28-3.2,1.278,1.278,0,0,0-1.12-.64H3.64a1.06,1.06,0,0,1-1.08-1.08V13.319A1.06,1.06,0,0,1,3.64,12.239Z" transform="translate(0 -2)"/></svg>