<svg xmlns="http://www.w3.org/2000/svg" width="63.979" height="63.996" viewBox="0 0 63.979 63.996"><defs><style>.a{fill:#152c43;}</style></defs><path class="a" d="M50.723,1.988a1.408,1.408,0,0,0-1.239.69s-3.64,6.281-12.713,6.281a1.391,1.391,0,1,0,0,2.782,18.129,18.129,0,0,0,15.1-7.628,1.394,1.394,0,0,0-1.152-2.124ZM38.162,2a14.693,14.693,0,0,0-9.932,3.982,12.89,12.89,0,0,0-5.368-1.2,12.03,12.03,0,0,0-7.938,3.189,1.391,1.391,0,1,0,1.967,1.967,9.255,9.255,0,0,1,5.971-2.374A13.714,13.714,0,0,1,27.8,8.812l.9.451.706-.712s3.885-3.765,8.753-3.765a1.391,1.391,0,1,0,0-2.782ZM52.071,12.762l-.853.663L38.162,23.579V33.994H21.385L19.994,13.131H10.432L9.041,33.994H2v31.99H65.979v-42.4ZM13.04,15.913h4.346L18.6,33.994h-4.08v2.782H40.944V24.937l11.127-8.655L63.2,24.937V63.2H4.782V36.776h6.867Zm32.077,15.3v5.563H47.9V31.213Zm5.563,0v5.563h2.782V31.213Zm5.563,0v5.563h2.782V31.213ZM8.954,40.949V43.73h5.563V40.949Zm8.345,0V43.73h5.563V40.949Zm8.345,0V43.73h5.563V40.949Zm8.345,0V43.73h5.563V40.949Zm11.127,0v5.563H47.9V40.949Zm5.563,0v5.563h2.782V40.949Zm5.563,0v5.563h2.782V40.949ZM45.116,50.685v5.563H47.9V50.685Zm5.563,0v5.563h2.782V50.685Zm5.563,0v5.563h2.782V50.685Z" transform="translate(-2 -1.988)"/></svg>