<svg xmlns="http://www.w3.org/2000/svg" width="63.996" height="51.203" viewBox="0 0 63.996 51.203"><defs><style>.a{fill:#3566b8;}</style></defs><path class="a" d="M31.758,5a1.125,1.125,0,0,0-.12.04l-16.519,5.08h-4.88a1.282,1.282,0,0,0-1.28,1.28v7.68a1.282,1.282,0,0,0,1.28,1.28h2.44L6.52,30.84a5.01,5.01,0,0,0-1.4-.24,5.12,5.12,0,1,0,5.12,5.12,5.081,5.081,0,0,0-1.52-3.6l6.96-11.759h6.6L19,35.76a5.092,5.092,0,1,0,2.48.52l3.4-15.919H39.118l3.4,15.919A5.138,5.138,0,1,0,45,35.76l-3.28-15.4h6.6l6.96,11.759a5.081,5.081,0,0,0-1.52,3.6,5.12,5.12,0,1,0,5.12-5.12,5.01,5.01,0,0,0-1.4.24L51.317,20.36h2.44a1.282,1.282,0,0,0,1.28-1.28V11.4a1.282,1.282,0,0,0-1.28-1.28h-4.88L32.358,5.041a1.3,1.3,0,0,0-.48-.04ZM32,7.641l16.279,5a1.244,1.244,0,0,0,.36.04h3.84V17.8H11.519v-5.12h3.84a1.244,1.244,0,0,0,.36-.04Zm-18.559,6.32c-.355,0-.64.575-.64,1.28s.285,1.28.64,1.28.64-.575.64-1.28S13.794,13.961,13.439,13.961Zm3.2,0c-.53,0-.96.575-.96,1.28s.43,1.28.96,1.28.96-.575.96-1.28S17.169,13.961,16.639,13.961Zm5.12,0a1.28,1.28,0,1,0,1.28,1.28A1.282,1.282,0,0,0,21.759,13.961Zm5.12,0a1.28,1.28,0,1,0,1.28,1.28A1.282,1.282,0,0,0,26.878,13.961Zm5.12,0a1.28,1.28,0,1,0,1.28,1.28A1.282,1.282,0,0,0,32,13.961Zm5.12,0a1.28,1.28,0,1,0,1.28,1.28A1.282,1.282,0,0,0,37.118,13.961Zm5.12,0a1.28,1.28,0,1,0,1.28,1.28A1.282,1.282,0,0,0,42.237,13.961Zm5.12,0c-.53,0-.96.575-.96,1.28s.43,1.28.96,1.28.96-.575.96-1.28S47.887,13.961,47.357,13.961Zm3.2,0c-.355,0-.64.575-.64,1.28s.285,1.28.64,1.28.64-.575.64-1.28S50.912,13.961,50.557,13.961Zm-22.4,7.68V48.519h-5.12a3.86,3.86,0,0,0-3.84,3.84V56.2H44.8v-3.84a3.86,3.86,0,0,0-3.84-3.84h-5.12V21.64h-2.56V48.519h-2.56V21.64ZM5.12,33.16a2.56,2.56,0,1,1-2.56,2.56A2.539,2.539,0,0,1,5.12,33.16Zm53.757,0a2.56,2.56,0,1,1-2.56,2.56A2.539,2.539,0,0,1,58.876,33.16ZM19.2,38.279a2.56,2.56,0,1,1-2.56,2.56A2.539,2.539,0,0,1,19.2,38.279Zm25.6,0a2.56,2.56,0,1,1-2.56,2.56A2.539,2.539,0,0,1,44.8,38.279Zm-21.759,12.8H40.958a1.257,1.257,0,0,1,1.28,1.28v1.28H21.759v-1.28A1.257,1.257,0,0,1,23.039,51.079Z" transform="translate(0 -4.995)"/></svg>