<svg xmlns="http://www.w3.org/2000/svg" width="62.675" height="64.003" viewBox="0 0 62.675 64.003"><defs><style>.a{fill:#3566b8;}</style></defs><path class="a" d="M43.646,3.133,42.291,5.5l5.094,2.913H37.506a2.8,2.8,0,0,0-2.363,1.163,2.73,2.73,0,0,0-.368,1.568v1.366H33.409a2.72,2.72,0,0,0-1.558.363,2.812,2.812,0,0,0-1.174,2.369H18.387A16.092,16.092,0,0,0,2.143,31.476L2.277,33h0a16.2,16.2,0,0,0,16.11,15.022H48.431A13.567,13.567,0,0,1,62.087,61.673v5.462h2.731V61.673A16.358,16.358,0,0,0,48.431,45.286H18.387a13.656,13.656,0,1,1,0-27.312H30.678a2.812,2.812,0,0,0,1.174,2.369,2.72,2.72,0,0,0,1.558.363h1.366V22.07a2.708,2.708,0,0,0,.368,1.563A2.792,2.792,0,0,0,37.506,24.8H62.621a2.227,2.227,0,0,0,2.2-2.219V10.633a2.227,2.227,0,0,0-2.2-2.219h-9.73Zm-6.14,8.012H62.087V22.07H37.506v-4.1h-4.1V15.242h4.1Z" transform="translate(-2.143 -3.133)"/></svg>