<svg xmlns="http://www.w3.org/2000/svg" width="63.996" height="60.426" viewBox="0 0 63.996 60.426"><defs><style>.a{fill:#3566b8;}</style></defs><path class="a" d="M1.976,2.783A1.332,1.332,0,0,0,.938,4.113V51.567c0,5.646,2.935,8.83,5.817,10.264A13.646,13.646,0,0,0,12.489,63.2H53.378v-.125c.639.073,1.33.125,1.33.125a11.214,11.214,0,0,0,5.111-1.454c2.493-1.434,4.95-4.467,5.069-9.723a.62.62,0,0,0,.042-.083v-.083a1.387,1.387,0,0,0,0-.208V18.241a7.536,7.536,0,0,0-.79-3.158,6.2,6.2,0,0,0-5.651-3.324v-.042H45.9v2.659h7.4a5.819,5.819,0,0,0-.416.665,7.952,7.952,0,0,0-.831,3.158V50.445a1.33,1.33,0,1,0,2.659,0V18.2a5.267,5.267,0,0,1,.54-1.953,3.108,3.108,0,0,1,3.241-1.828,3.113,3.113,0,0,1,3.241,1.87,5.924,5.924,0,0,1,.582,1.995H62.27V51.65c0,4.732-1.891,6.726-3.781,7.812a8.366,8.366,0,0,1-3.781,1.08,11.439,11.439,0,0,1-4.488-1.163c-2.239-1.132-4.4-3.122-4.4-7.812V4.113a1.332,1.332,0,0,0-1.33-1.33H2.267A1.361,1.361,0,0,0,1.976,2.783ZM3.6,5.443H43.156V51.567a10.98,10.98,0,0,0,4.031,8.975H12.448a9.677,9.677,0,0,1-1.413-.125,11.264,11.264,0,0,1-1.413-.332,10.418,10.418,0,0,1-1.662-.623A9.286,9.286,0,0,1,7.129,59C5.228,57.81,3.6,55.748,3.6,51.567Zm5.319,8.269a1.343,1.343,0,1,0,.374,2.659H35.51a1.33,1.33,0,1,0,0-2.659H8.916Zm0,5.319A1.343,1.343,0,1,0,9.29,21.69H35.51a1.33,1.33,0,1,0,0-2.659H8.916Zm.623,10.638a1.343,1.343,0,1,0,.374,2.659H18.93a1.33,1.33,0,1,0,0-2.659H9.539Zm15.333,0a1.343,1.343,0,1,0,.374,2.659H35.51a1.33,1.33,0,1,0,0-2.659H24.872ZM9.539,34.987a1.343,1.343,0,1,0,.374,2.659H18.93a1.33,1.33,0,1,0,0-2.659H9.539Zm15.333,0a1.343,1.343,0,0,0,.374,2.659H35.51a1.33,1.33,0,1,0,0-2.659H24.872Zm0,5.028a1.343,1.343,0,0,0,.374,2.659H35.51a1.33,1.33,0,1,0,0-2.659H25.246a1,1,0,0,0-.249,0Zm-15.333.291a1.343,1.343,0,1,0,.374,2.659H18.93a1.33,1.33,0,1,0,0-2.659H9.539Zm15.333,5.028a1.343,1.343,0,0,0,.374,2.659H35.51a1.33,1.33,0,1,0,0-2.659H25.246a1,1,0,0,0-.249,0Zm-15.333.291a1.343,1.343,0,1,0,.374,2.659H18.93a1.33,1.33,0,1,0,0-2.659H9.539Zm15.333,4.7a1.343,1.343,0,0,0,.374,2.659H35.51a1.33,1.33,0,1,0,0-2.659H24.872Zm-15.333.623A1.343,1.343,0,1,0,9.913,53.6H18.93a1.33,1.33,0,1,0,0-2.659H9.539Z" transform="translate(-0.937 -2.775)"/></svg>