<svg xmlns="http://www.w3.org/2000/svg" width="64.003" height="54.86" viewBox="0 0 64.003 54.86"><defs><style>.a{fill:#152c43;}</style></defs><path class="a" d="M9.143,8a5.169,5.169,0,0,0-5.225,5.225V41.961a5.25,5.25,0,0,0,.7,2.612H1.306A1.3,1.3,0,0,0,0,45.88,6.538,6.538,0,0,0,6.531,52.41H34.453l.2-2.612H6.531a3.925,3.925,0,0,1-3.694-2.612H34.854l.2-2.612H9.143a2.554,2.554,0,0,1-2.612-2.612V13.225a2.554,2.554,0,0,1,2.612-2.612H56.166a2.554,2.554,0,0,1,2.612,2.612V38.042h2.612V13.225A5.169,5.169,0,0,0,56.166,8ZM50.288,32.818A5.9,5.9,0,0,0,44.41,38.7v1.959H37.976l-.092,1.207L36.573,58.89v.051a3.939,3.939,0,0,0,3.919,3.919H60.085A3.939,3.939,0,0,0,64,58.941V58.89L62.6,40.655H56.166V38.7A5.9,5.9,0,0,0,50.288,32.818Zm0,2.612A3.246,3.246,0,0,1,53.554,38.7v1.959H47.023V38.7A3.246,3.246,0,0,1,50.288,35.43Zm-9.893,7.837H60.182l1.207,15.679a1.284,1.284,0,0,1-1.3,1.3H40.492a1.284,1.284,0,0,1-1.3-1.3Z" transform="translate(0 -8)"/></svg>