<svg xmlns="http://www.w3.org/2000/svg" width="63.996" height="63.996" viewBox="0 0 63.996 63.996"><defs><style>.a{fill:#152c43;}</style></defs><path class="a" d="M32,0V5.76c5.12,0,2.945,1.92,7.68,1.92h2.56V2.56h-2.56C34.943,2.56,37.118,0,32,0Zm0,8.959A16.689,16.689,0,0,0,15.439,24.319h-.32a1.286,1.286,0,0,0,.24,2.56v6.4h2.56v-6.4h2.56v6.4h2.56v-6.4H25.6v6.4h2.56v-6.4h2.56v6.4h2.56v-6.4h2.56v6.4H38.4v-6.4h2.56v6.4h2.56v-6.4h2.56v6.4h2.56v-6.4a1.28,1.28,0,1,0,0-2.56h-.08A16.689,16.689,0,0,0,32,8.959Zm0,2.56a13.969,13.969,0,0,1,13.8,12.8H18.2A13.969,13.969,0,0,1,32,11.519ZM0,34.558V64H64V34.558Zm2.56,2.56H61.436V61.436H2.56Zm3.84,3.84V44.8h5.12v-3.84Zm8.959,0V44.8h5.12v-3.84Zm8.959,0V44.8h5.12v-3.84Zm8.959,0V44.8H38.4v-3.84Zm8.959,0V44.8h5.12v-3.84Zm8.959,0V44.8h5.12v-3.84Zm-44.8,6.4V51.2h5.12v-3.84Zm8.959,0V51.2h5.12v-3.84Zm8.959,0V51.2h5.12v-3.84Zm8.959,0V51.2H38.4v-3.84Zm8.959,0V51.2h5.12v-3.84Zm8.959,0V51.2h5.12v-3.84Zm-44.8,6.4V57.6h5.12v-3.84Zm8.959,0V57.6h5.12v-3.84Zm8.959,0V57.6h5.12v-3.84Zm8.959,0V57.6H38.4v-3.84Zm8.959,0V57.6h5.12v-3.84Zm8.959,0V57.6h5.12v-3.84Z"/></svg>