<svg xmlns="http://www.w3.org/2000/svg" width="63.996" height="48.634" viewBox="0 0 63.996 48.634"><defs><style>.a{fill:#152c43;}</style></defs><path class="a" d="M34.316,5c-5.7,0-9.874,2.255-12.078,5.6a10.635,10.635,0,0,0-1.08,2.16l-.32-.64a1.277,1.277,0,0,0-1.12-.72c-4.429,0-7.739,1.8-9.479,4.479a9.517,9.517,0,0,0-.68,8.4c-.08.13-.25.2-.32.36a3.8,3.8,0,0,0-.28,2v.04a5.363,5.363,0,0,0,.92,2.64c.2.27.53.27.8.44a11.433,11.433,0,0,0,.84,2.68,8.712,8.712,0,0,0,.72,1.24c.085.125.23.21.32.32,0,.98-.035,1.86-.12,3a3.5,3.5,0,0,1-1.84,1.64c-1.075.55-2.515,1.06-4,1.72a13.273,13.273,0,0,0-4.319,2.76A8.437,8.437,0,0,0,0,48.554a1.283,1.283,0,0,0,1.28,1.36H9.239a11.8,11.8,0,0,0-.4,2.36,1.283,1.283,0,0,0,1.28,1.36H53.874a1.283,1.283,0,0,0,1.28-1.36,11.812,11.812,0,0,0-.44-2.48h8a1.283,1.283,0,0,0,1.28-1.36A8.5,8.5,0,0,0,61.713,43a13.006,13.006,0,0,0-4.239-2.76c-1.47-.66-2.895-1.17-3.959-1.72a3.57,3.57,0,0,1-1.8-1.64c-.085-1.035-.12-1.955-.12-3,.085-.11.235-.2.32-.32a8.214,8.214,0,0,0,.68-1.24,9.781,9.781,0,0,0,.76-2.56c.26-.165.565-.18.76-.44a5.363,5.363,0,0,0,.92-2.64,4.007,4.007,0,0,0-.2-1.92c-.06-.155-.28-.25-.36-.4a6.782,6.782,0,0,0,.68-2.08,11.213,11.213,0,0,0-.32-3.84,7.588,7.588,0,0,0-1.96-3.6,5.919,5.919,0,0,0-3.32-1.48l-.52-1.2a1.284,1.284,0,0,0-1.16-.76,18.3,18.3,0,0,0-5.4.72,8.731,8.731,0,0,0-1.88-2.76,7.424,7.424,0,0,0-4.4-1.88l-.72-1.72A1.284,1.284,0,0,0,34.316,5Zm-.84,2.64.68,1.48a1.284,1.284,0,0,0,1.16.76,4.769,4.769,0,0,1,3.52,1.32,7,7,0,0,1,1.8,3.28,11.429,11.429,0,0,1,.32,3.92,5.509,5.509,0,0,1-.76,2.44,1.278,1.278,0,0,0,.48,1.96c-.02-.01,0-.01.04.08a2.508,2.508,0,0,1,.12,1c0,.04.005.04,0,.08a4.7,4.7,0,0,1-.68,1.96.8.8,0,0,1-.2.2,1.278,1.278,0,0,0-1.16,1.12,11.162,11.162,0,0,1-.92,3.16,7.273,7.273,0,0,1-.68,1.16c-.15.2-.3.32-.28.32a1.275,1.275,0,0,0-.68,1.16c0,1.665-.01,3,.12,4.959a1.254,1.254,0,0,0,.08.36,7.254,7.254,0,0,0,3.919,3.72c1.69.835,3.6,1.46,5.4,2.24a14.575,14.575,0,0,1,4.679,2.96,7.5,7.5,0,0,1,1.84,3.8H11.719a7.5,7.5,0,0,1,1.84-3.8,14.575,14.575,0,0,1,4.679-2.96c1.8-.78,3.71-1.4,5.4-2.24a7.254,7.254,0,0,0,3.92-3.72,1.254,1.254,0,0,0,.08-.36c.13-1.84.12-3.295.12-4.959a1.275,1.275,0,0,0-.68-1.16.222.222,0,0,0-.04-.04c-.01-.005-.025,0-.04,0a1.99,1.99,0,0,1-.24-.28,7.7,7.7,0,0,1-.72-1.16,9.72,9.72,0,0,1-.96-3.12,1.284,1.284,0,0,0-1.04-1.12c-.125-.025-.78,0-1-2.2-.09-.985.375-1.275.32-1.24a1.276,1.276,0,0,0,.48-1.6,10.221,10.221,0,0,1-.8-5.639,1.281,1.281,0,0,0,.28-1.2,8.531,8.531,0,0,1,1.04-2.24C25.952,9.624,28.952,7.855,33.476,7.64Zm13.6,6.439.4.88a1.278,1.278,0,0,0,1.16.8,3.21,3.21,0,0,1,2.44.92,5.2,5.2,0,0,1,1.28,2.4,8.655,8.655,0,0,1,.24,2.92,4.51,4.51,0,0,1-.52,1.8,1.285,1.285,0,0,0,.36,1.88,1.547,1.547,0,0,1,.04.68,3.51,3.51,0,0,1-.4,1.44,1.278,1.278,0,0,0-1.12,1.16,7.249,7.249,0,0,1-.68,2.28,5.936,5.936,0,0,1-.48.84,3.114,3.114,0,0,0-.2.28,1.281,1.281,0,0,0-.56,1.04,39.273,39.273,0,0,0,.12,3.959,1.429,1.429,0,0,0,.08.32,5.91,5.91,0,0,0,3.08,3.12c1.3.675,2.775,1.155,4.119,1.76a10.872,10.872,0,0,1,3.44,2.24,5.485,5.485,0,0,1,1.28,2.44H53.634a9.931,9.931,0,0,0-1.36-1.76A16.593,16.593,0,0,0,46.794,42c-1.93-.835-3.83-1.48-5.279-2.2a5.059,5.059,0,0,1-2.6-2.28c-.095-1.535-.12-2.685-.12-4.039.135-.155.355-.27.48-.44a9.58,9.58,0,0,0,.92-1.56,13.559,13.559,0,0,0,.96-3.44c.35-.21.77-.2,1.04-.56a6.959,6.959,0,0,0,1.16-3.2.6.6,0,0,0,.04-.08,4.837,4.837,0,0,0-.32-2.32c-.07-.165-.3-.2-.4-.36a8.277,8.277,0,0,0,.8-2.88,13.685,13.685,0,0,0-.2-4.079A17.4,17.4,0,0,1,47.074,14.079ZM19,14.119l.48.92a1.275,1.275,0,0,0,.96.72,12.985,12.985,0,0,0,.8,5.639,3.936,3.936,0,0,0-.76,2.8,4.669,4.669,0,0,0,2.2,3.88,12.746,12.746,0,0,0,1.08,3.48,9.787,9.787,0,0,0,.96,1.56c.125.165.345.255.48.4,0,1.355-.025,2.57-.12,4a5.059,5.059,0,0,1-2.6,2.28c-1.45.72-3.35,1.365-5.279,2.2a16.593,16.593,0,0,0-5.479,3.48,9.848,9.848,0,0,0-1.44,1.88H2.88a5.485,5.485,0,0,1,1.28-2.44,11.016,11.016,0,0,1,3.48-2.24c1.36-.6,2.8-1.085,4.119-1.76a5.873,5.873,0,0,0,3.12-3.08,1.254,1.254,0,0,0,.08-.36c.13-1.585.16-2.64.16-3.919a1.281,1.281,0,0,0-.6-1.12,2.749,2.749,0,0,1-.2-.24,6.3,6.3,0,0,1-.52-.88,8.8,8.8,0,0,1-.76-2.44,1.279,1.279,0,0,0-1.12-1.08,3.51,3.51,0,0,1-.4-1.44,1.235,1.235,0,0,1,.08-.68,1.28,1.28,0,0,0,.44-1.6,7.091,7.091,0,0,1,.36-6.8C13.534,15.529,15.738,14.319,19,14.119Z" transform="translate(0.002 -5)"/></svg>