<svg xmlns="http://www.w3.org/2000/svg" width="63.996" height="63.975" viewBox="0 0 63.996 63.975"><defs><style>.a{fill:#3566b8;}</style></defs><path class="a" d="M59.591.191a9.725,9.725,0,0,0-1.244.2A21.379,21.379,0,0,0,53.211,2.4a33.865,33.865,0,0,0-7.864,5.417h-.04L36.64,16.441,5.825,12.268a1.287,1.287,0,0,0-1.083.4L.368,17.163A1.284,1.284,0,0,0,.81,19.249l23.753,9.309L12.325,41.037h-5.9a1.269,1.269,0,0,0-.843.321L.449,45.691A1.284,1.284,0,0,0,.97,47.938l12.238,3.009,3.009,12.238a1.282,1.282,0,0,0,2.086.642l4.373-3.852a1.266,1.266,0,0,0,.441-.963V51.83l12.6-12.238,9.188,23.753a1.284,1.284,0,0,0,2.086.441l4.494-4.373a1.287,1.287,0,0,0,.4-1.083L47.714,27.515l8.667-8.667A37.328,37.328,0,0,0,61.758,10.9a21.123,21.123,0,0,0,2.006-5.1c.351-1.635.356-3.36-.8-4.574l-.04-.04A3.636,3.636,0,0,0,60.795.231,5.993,5.993,0,0,0,59.591.191Zm.12,2.608a1.893,1.893,0,0,1,1.364.281c.246.276.426.968.16,2.207A19.292,19.292,0,0,1,59.471,9.74,38.532,38.532,0,0,1,54.576,17l-9.108,9.148a1.289,1.289,0,0,0-.4,1.043l4.173,30.855-2.608,2.528L37.4,36.864a1.282,1.282,0,0,0-2.086-.481l-14.364,14a1.283,1.283,0,0,0-.4.923V58.45L18.183,60.5,15.5,49.583a1.284,1.284,0,0,0-.923-.923L4.02,46.052,6.909,43.6h5.938a1.283,1.283,0,0,0,.923-.4l14-14.244a1.282,1.282,0,0,0-.481-2.086L3.578,17.564l2.528-2.648,30.855,4.173a1.289,1.289,0,0,0,1.043-.4L47.153,9.58a36.744,36.744,0,0,1,7.222-4.9,19.519,19.519,0,0,1,4.494-1.765A5.957,5.957,0,0,1,59.711,2.8Z" transform="translate(0.026 -0.176)"/></svg>