<svg xmlns="http://www.w3.org/2000/svg" width="63.997" height="64.005" viewBox="0 0 63.997 64.005"><defs><style>.a{fill:#3566b8;}</style></defs><path class="a" d="M32.06,2a1.389,1.389,0,0,0-1.375,1.142l-.761,4.164a14.373,14.373,0,0,0-1.9.772L24.6,5.61a1.38,1.38,0,0,0-1.788.141L19.839,8.676a1.394,1.394,0,0,0-.163,1.783l2.4,3.479a13.026,13.026,0,0,0-.794,1.892l-4.169.674a1.385,1.385,0,0,0-1.169,1.364l-.027,4.175a1.389,1.389,0,0,0,1.142,1.375l4.18.761a13.474,13.474,0,0,0,.772,1.886L19.529,29.5a1.394,1.394,0,0,0,.136,1.794L22.6,34.263a1.386,1.386,0,0,0,1.778.163L27.9,32a13.373,13.373,0,0,0,1.875.777L30.494,37a1.393,1.393,0,0,0,1.364,1.163l4.169.022a1.391,1.391,0,0,0,1.381-1.158l.712-4.213a13.091,13.091,0,0,0,1.859-.761l3.5,2.484a1.392,1.392,0,0,0,1.783-.147l2.974-2.93a1.4,1.4,0,0,0,.152-1.8L45.905,26.18a13.354,13.354,0,0,0,.783-1.848l4.235-.718a1.4,1.4,0,0,0,1.158-1.37l.022-4.169A1.385,1.385,0,0,0,50.945,16.7l-4.2-.712a14.333,14.333,0,0,0-.761-1.881l2.468-3.485a1.38,1.38,0,0,0-.141-1.783L45.378,5.871a1.4,1.4,0,0,0-1.794-.152L40.138,8.165a13.549,13.549,0,0,0-1.865-.783L37.6,3.2a1.4,1.4,0,0,0-1.37-1.174Zm1.152,2.789,1.827.011.6,3.762a1.387,1.387,0,0,0,1.027,1.125,10.821,10.821,0,0,1,2.93,1.239,1.382,1.382,0,0,0,1.528-.049l3.1-2.2,1.283,1.294L43.28,13.1a1.4,1.4,0,0,0-.06,1.517,10.517,10.517,0,0,1,1.191,2.935,1.4,1.4,0,0,0,1.125,1.055l3.778.636L49.3,21.064l-3.816.641a1.4,1.4,0,0,0-1.12,1.033,10.443,10.443,0,0,1-1.223,2.9,1.391,1.391,0,0,0,.06,1.533l2.223,3.137-1.288,1.277-3.158-2.24a1.385,1.385,0,0,0-1.517-.06,10.685,10.685,0,0,1-2.919,1.191A1.385,1.385,0,0,0,35.5,31.6l-.641,3.794-1.816-.016L32.4,31.572a1.385,1.385,0,0,0-1.044-1.114,10.734,10.734,0,0,1-2.919-1.218,1.386,1.386,0,0,0-1.511.049l-3.169,2.185-1.283-1.3,2.234-3.088a1.392,1.392,0,0,0,.065-1.533,10.85,10.85,0,0,1-1.2-2.941,1.4,1.4,0,0,0-1.1-1.044l-3.762-.68.016-1.827,3.745-.6A1.393,1.393,0,0,0,23.6,17.428a10.633,10.633,0,0,1,1.234-2.941,1.384,1.384,0,0,0-.043-1.517L22.633,9.839l1.294-1.283L27,10.774a1.394,1.394,0,0,0,1.522.076,10.627,10.627,0,0,1,2.957-1.207,1.38,1.38,0,0,0,1.044-1.1Zm.783,8.393a6.975,6.975,0,1,0,4.925,2.066A6.942,6.942,0,0,0,33.995,13.182Zm-.011,2.767a4.208,4.208,0,1,1-2.979,1.223A4.168,4.168,0,0,1,33.984,15.949ZM19.29,38.183a16.224,16.224,0,0,0-7.11,1.566v.005C8.717,41.1,2.792,43.9,2.792,43.9a1.395,1.395,0,1,0,1.191,2.522s5.963-2.81,9.2-4.072a12.678,12.678,0,0,1,6.1-1.381c7.138,0,6.849,3.1,9.861,4.871a.687.687,0,0,0,.141.071,26.913,26.913,0,0,0,10.981,2.017,4.714,4.714,0,0,1,2.821.7,1.544,1.544,0,0,1,.658,1.386,1.5,1.5,0,0,1-.669,1.435,4.933,4.933,0,0,1-2.81.652H32.967a45.3,45.3,0,0,1-8.344-1.348,1.394,1.394,0,1,0-.707,2.7,42.521,42.521,0,0,0,9.051,1.435h7.306a8.247,8.247,0,0,0,3.686-.745,1.223,1.223,0,0,0,.381-.179l13.2-8.66a8.727,8.727,0,0,1,4.131-1.457,1.427,1.427,0,0,1,1.3.56.885.885,0,0,1,.147,1.158,6.177,6.177,0,0,1-2.136,2.2H60.98c-1.511,1.055-18.412,12.068-20.364,13.177a19.606,19.606,0,0,1-3.974,2.093c-1.332.37-2.9.37-5.5-.87-1.734-.832-9.116-4.615-11.508-5.827a7.144,7.144,0,0,0-3.626-.989,6.571,6.571,0,0,0-3.164,1.2.012.012,0,0,0-.011.011l-3.446,2.2a1.392,1.392,0,1,0,1.5,2.343l3.43-2.2a4.062,4.062,0,0,1,1.843-.783,4.572,4.572,0,0,1,2.218.7c2.37,1.2,9.638,4.931,11.568,5.849a10.472,10.472,0,0,0,7.442,1.044,19.047,19.047,0,0,0,4.6-2.354c2.685-1.528,18.64-11.965,20.581-13.313a8.347,8.347,0,0,0,3.1-3.381,3.99,3.99,0,0,0-.506-3.968v-.005a4.49,4.49,0,0,0-3.452-1.631,8.177,8.177,0,0,0-2.93.582,4.457,4.457,0,0,0-.924-.919,6.4,6.4,0,0,0-3.849-1.147,5.681,5.681,0,0,0-2.218.451,6.408,6.408,0,0,0-4.479-1.816,9.2,9.2,0,0,0-4.534,1.261c-.212.125-.723.446-1.593.989s-2.006,1.245-3.126,1.946c-1.788,1.114-2.9,1.81-3.539,2.212A19.458,19.458,0,0,1,30.51,43.4C29.412,42.689,27.3,38.183,19.29,38.183Zm28.028,2.81a3.789,3.789,0,0,1,1.957.484l-6.436,3.99a9.412,9.412,0,0,0-2.566-.326c-.4,0-.843-.027-1.261-.043.261-.163.261-.163.527-.326,1.12-.7,2.251-1.408,3.126-1.952s1.582-.979,1.533-.951A7.386,7.386,0,0,1,47.319,40.993Zm6.7,1.364a3.513,3.513,0,0,1,2.109.544.365.365,0,0,0-.06.038l-9.616,6.306a4.541,4.541,0,0,0-.962-2.142l6.724-4.169.005-.011A6.232,6.232,0,0,1,54.016,42.358Z" transform="translate(-1.991 -2)"/></svg>