<svg xmlns="http://www.w3.org/2000/svg" width="64.055" height="63.999" viewBox="0 0 64.055 63.999"><defs><style>.a{fill:#152c43;}</style></defs><path class="a" d="M33.992,1.969a3.981,3.981,0,0,0-2.015.543c-.011,0-.016.005-.027.011s-7.316,4.453-14.642,9.01c-3.661,2.281-7.321,4.584-10.091,6.381-1.379.9-2.536,1.673-3.367,2.259-.418.3-.755.543-1.021.76a4.226,4.226,0,0,0-.369.337,1.754,1.754,0,0,0-.217.261,1.229,1.229,0,0,0-.272.782c-.049.869.206.912.337,1.119a6.51,6.51,0,0,0,.44.608c.342.424.787.929,1.32,1.5.19.2.472.483.684.706,0,4.611.011,14.246.016,16.472A2.781,2.781,0,0,0,3.4,45.113a2.818,2.818,0,0,0,.168.945A4.093,4.093,0,0,0,2.014,49.24,8.407,8.407,0,0,0,3.605,53.5a25.035,25.035,0,0,0,1.477,2.189,1.381,1.381,0,0,0,1.1.543,1.406,1.406,0,0,0,1.1-.532,25.234,25.234,0,0,0,1.483-2.167,8.416,8.416,0,0,0,1.591-4.3A4.093,4.093,0,0,0,8.8,46.058a2.818,2.818,0,0,0,.168-.945A2.784,2.784,0,0,0,7.64,42.745c0-1.8-.011-8.2-.016-13.529.109.109.2.206.31.315,2.58,2.585,4.774,4.692,5.159,5.067a5.7,5.7,0,0,0-2.737,5.263A6.515,6.515,0,0,0,14.88,46.2a50.8,50.8,0,0,0,7.028,12.964c3.074,3.84,7.028,6.7,11.85,6.783a1.536,1.536,0,0,0,.223.016h.033a.986.986,0,0,0,.174-.016c4.839-.071,8.8-2.933,11.888-6.783A50.8,50.8,0,0,0,53.1,46.2a6.515,6.515,0,0,0,4.524-6.343A5.7,5.7,0,0,0,54.89,34.6c.386-.375,2.58-2.482,5.165-5.067,1.4-1.4,2.8-2.835,3.861-3.986.532-.576.978-1.081,1.32-1.5.168-.217.315-.4.445-.608s.38-.25.331-1.119a1.2,1.2,0,0,0-.277-.787,1.638,1.638,0,0,0-.212-.255,3.617,3.617,0,0,0-.375-.337c-.261-.217-.6-.462-1.016-.76-.831-.587-1.988-1.358-3.373-2.259-2.764-1.8-6.425-4.1-10.085-6.381-7.326-4.557-14.642-9.01-14.642-9.01s-.016-.011-.027-.011A3.981,3.981,0,0,0,33.992,1.969Zm0,2.868a1.143,1.143,0,0,1,.57.157c.027.016,7.3,4.437,14.593,8.977,3.655,2.276,7.31,4.578,10.042,6.354,1.369.891,2.5,1.651,3.28,2.194.076.054.1.076.163.125-.244.288-.478.565-.836.95-1.016,1.1-2.4,2.515-3.785,3.9-2.254,2.259-3.747,3.693-4.519,4.432V25.648a1.423,1.423,0,0,0-.684-1.222s-7.229-4.383-18.824-4.383-18.824,4.383-18.824,4.383a1.423,1.423,0,0,0-.684,1.222v6.284c-.771-.739-2.265-2.172-4.519-4.432-.945-.94-1.749-1.787-2.574-2.65a1.342,1.342,0,0,0-.386-.4c-.255-.272-.608-.614-.831-.853-.353-.391-.587-.673-.836-.956.071-.054.092-.071.168-.125.777-.549,1.912-1.309,3.28-2.194,2.732-1.781,6.387-4.079,10.042-6.354,7.294-4.54,14.566-8.961,14.593-8.977A1.143,1.143,0,0,1,33.992,4.836Zm0,18.074c10.069,0,15.755,3.155,16.641,3.666V32.1c-2.189-.728-7.549-2.324-16.641-2.324S19.54,31.372,17.351,32.1V26.577C18.236,26.066,23.923,22.911,33.992,22.911Zm0,9.732a53.072,53.072,0,0,1,16.684,2.39v1.9l1.542-.163a2.845,2.845,0,0,1,1.325.261c.646.31,1.3.76,1.3,2.835,0,1.95-1.26,3.7-2.922,3.867l-.853.087-.3.8A49.883,49.883,0,0,1,43.9,57.43c-2.824,3.525-6.061,5.757-9.906,5.757h-.011c-3.845,0-7.082-2.232-9.906-5.757a49.883,49.883,0,0,1-6.865-12.817l-.3-.8-.853-.087c-1.662-.168-2.922-1.917-2.922-3.867,0-2.075.657-2.525,1.3-2.835a2.845,2.845,0,0,1,1.325-.261l1.542.163v-1.9A53.072,53.072,0,0,1,33.992,32.643ZM6.185,47.893a1.35,1.35,0,0,1,1.39,1.347,9.017,9.017,0,0,1-1.189,2.846c-.1.163-.1.141-.2.288-.1-.158-.1-.136-.206-.3a9.472,9.472,0,0,1-1.189-2.83A1.35,1.35,0,0,1,6.185,47.893Z" transform="translate(-1.964 -1.969)"/></svg>