<svg xmlns="http://www.w3.org/2000/svg" width="38.997" height="64.005" viewBox="0 0 38.997 64.005"><defs><style>.a{fill:#3566b8;}</style></defs><path class="a" d="M15.413,2a4.442,4.442,0,0,0-4.408,4.432v3.682a1.391,1.391,0,0,0,0,.454V56.031a1.391,1.391,0,0,0,0,.454v5.087A4.442,4.442,0,0,0,15.413,66H45.56a4.44,4.44,0,0,0,4.405-4.432V56.5a1.391,1.391,0,0,0,0-.454V10.582a1.391,1.391,0,0,0,0-.454v-3.7A4.442,4.442,0,0,0,45.557,2Zm0,2.783H45.557a1.634,1.634,0,0,1,1.625,1.65V8.957H13.788V6.432A1.634,1.634,0,0,1,15.413,4.783ZM13.788,11.74H47.182V54.874H13.788Zm16.7,11.131A11.131,11.131,0,1,0,41.616,34,11.152,11.152,0,0,0,30.485,22.871Zm0,2.783a8.318,8.318,0,0,1,8.223,6.957H35.85a5.534,5.534,0,0,0-10.729,0H22.262A8.318,8.318,0,0,1,30.485,25.654Zm0,5.566A2.783,2.783,0,1,1,27.7,34,2.762,2.762,0,0,1,30.485,31.22Zm-8.223,4.174H25.12a5.534,5.534,0,0,0,10.729,0h2.859a8.339,8.339,0,0,1-16.447,0ZM13.788,57.656H47.182v3.916a1.633,1.633,0,0,1-1.622,1.65H15.413a1.633,1.633,0,0,1-1.625-1.65Zm12.523,1.391a1.391,1.391,0,1,0,0,2.783h8.348a1.391,1.391,0,1,0,0-2.783Z" transform="translate(-10.987 -2)"/></svg>