<svg xmlns="http://www.w3.org/2000/svg" width="48.504" height="63.995" viewBox="0 0 48.504 63.995"><defs><style>.a{fill:#152c43;}</style></defs><path class="a" d="M17.993,3a9.78,9.78,0,0,0-9.951,9.551v2.577a1.437,1.437,0,0,0,0,1.244v20.08a1.437,1.437,0,0,0,0,1.244V50.311a9.637,9.637,0,0,0,6.93,9.107L9.863,64.527a1.445,1.445,0,0,0,2.043,2.043l6.708-6.708H45.8L52.51,66.57a1.445,1.445,0,0,0,2.043-2.043l-5.109-5.109a9.637,9.637,0,0,0,6.93-9.107V37.384a1.445,1.445,0,0,0,0-.578V16.061a1.445,1.445,0,0,0,0-.578V12.551A9.78,9.78,0,0,0,46.424,3Zm0,2.843H46.424a6.9,6.9,0,0,1,7.108,6.708v1.821H32.519a1.331,1.331,0,0,0-.444-.044,1.25,1.25,0,0,0-.133.044H10.885V12.551A6.9,6.9,0,0,1,17.993,5.843Zm2.443,2.843a1.436,1.436,0,1,0,.4,2.843H43.581a1.422,1.422,0,1,0,0-2.843H20.436Zm-9.551,8.529h19.9V35.7h-19.9Zm22.745,0h19.9V35.7H33.63ZM10.885,38.539H53.532V50.311a6.891,6.891,0,0,1-6.841,6.708h-.044a1.444,1.444,0,0,0-.489,0H17.993a6.9,6.9,0,0,1-7.108-6.708Zm8.529,2.843A5.686,5.686,0,1,0,25.1,47.068,5.7,5.7,0,0,0,19.414,41.382Zm25.588,0a5.686,5.686,0,1,0,5.686,5.686A5.7,5.7,0,0,0,45,41.382ZM19.414,44.225a2.843,2.843,0,1,1-2.843,2.843A2.82,2.82,0,0,1,19.414,44.225Zm25.588,0a2.843,2.843,0,1,1-2.843,2.843A2.82,2.82,0,0,1,45,44.225Z" transform="translate(-7.9 -3)"/></svg>