<svg xmlns="http://www.w3.org/2000/svg" width="64.003" height="54.283" viewBox="0 0 64.003 54.283"><defs><style>.a{fill:#3566b8;}</style></defs><path class="a" d="M54.872,5a8.336,8.336,0,0,0-5,15.014,10.084,10.084,0,0,0-6.131,9.036v4.921a1.392,1.392,0,0,0,.614,1.155A10.076,10.076,0,0,0,46.9,36.135,30.929,30.929,0,0,0,54.872,37a30.911,30.911,0,0,0,7.971-.867,10.023,10.023,0,0,0,2.546-1.011A1.391,1.391,0,0,0,66,33.969V29.05a10.084,10.084,0,0,0-6.131-9.036A8.336,8.336,0,0,0,54.872,5ZM3.391,7.783A1.391,1.391,0,0,0,2,9.174V32.827a1.391,1.391,0,0,0,1.391,1.391H28.436a1.391,1.391,0,0,0,1.391-1.391V9.174a1.391,1.391,0,0,0-1.391-1.391Zm51.481,0a5.565,5.565,0,1,1-5.565,5.565A5.545,5.545,0,0,1,54.872,7.783ZM4.783,10.565H27.045V31.436H4.783Zm6.957,2.783a1.391,1.391,0,1,0,0,2.783h8.348a1.391,1.391,0,1,0,0-2.783ZM54.872,21.7c4.675,0,8.348,3.389,8.348,7.354v3.992a3.421,3.421,0,0,1-1.1.4,28.223,28.223,0,0,1-7.248.772,28.237,28.237,0,0,1-7.248-.772,3.417,3.417,0,0,1-1.1-.4V29.05C46.524,25.085,50.2,21.7,54.872,21.7ZM15.892,36.983a1.392,1.392,0,0,0-1.37,1.41V57.872a1.391,1.391,0,0,0,1.391,1.391H54.638a1.392,1.392,0,0,0,1.236-.408l0,0,.008-.008.011-.011a1.392,1.392,0,0,0,.367-1.182V44.535l3.19,3.19a1.391,1.391,0,1,0,1.968-1.968l-5.566-5.565a1.39,1.39,0,0,0-1.967,0l-5.565,5.565a1.391,1.391,0,1,0,1.968,1.968l3.19-3.191V56.481H17.305V38.393a1.392,1.392,0,0,0-1.413-1.41Z" transform="translate(-2 -5)"/></svg>