<svg xmlns="http://www.w3.org/2000/svg" width="55.692" height="64.003" viewBox="0 0 55.692 64.003"><defs><style>.a{fill:#3566b8;}</style></defs><path class="a" d="M32.783,2a1.4,1.4,0,0,0-1.011.489l-7.93,9.25H9.4a1.778,1.778,0,0,0-.239-.022c-.065.005-.136.011-.2.022H6.4a1.391,1.391,0,1,0,0,2.783H7.788v2.783a1.391,1.391,0,1,0,2.783,0V14.522h.967l11.555,7.7v7.6H9.4a1.777,1.777,0,0,0-.239-.022c-.065.005-.136.011-.2.022H6.4a1.391,1.391,0,1,0,0,2.783H7.788v2.783a1.391,1.391,0,1,0,2.783,0V32.61h.967l11.555,7.7v8.544L12.228,63.79a1.392,1.392,0,0,0,1.592,2.13l19.011-6.788L51.844,65.92a1.392,1.392,0,0,0,1.592-2.13L42.572,48.855V40.311l11.549-7.7h.973v2.783a1.391,1.391,0,1,0,2.783,0V32.61h1.391a1.391,1.391,0,1,0,0-2.783H56.7a1.777,1.777,0,0,0-.239-.022c-.065.005-.136.011-.2.022H42.572v-7.6l11.549-7.7h.973v2.783a1.391,1.391,0,1,0,2.783,0V14.522h1.391a1.391,1.391,0,1,0,0-2.783H56.7a1.778,1.778,0,0,0-.239-.022c-.065.005-.136.011-.2.022H41.822l-7.93-9.25A1.384,1.384,0,0,0,32.783,2Zm.049,3.533,5.326,6.207H27.506ZM16.555,14.522h6.538v4.353Zm11.1,0H38.006l-5.174,5.6Zm14.913,0H49.11l-6.538,4.353Zm-16.7,2.169,5.065,5.484-5.065,5.484Zm13.913,0V27.659l-5.065-5.484Zm-6.957,7.533L38,29.827H27.664ZM16.555,32.61h6.538v4.353Zm11.109,0H38l-5.169,5.6Zm14.908,0H49.11l-6.538,4.353Zm-16.7,2.169,5.065,5.484-5.065,5.484Zm13.913,0V45.746l-5.065-5.484Zm-6.957,7.533,6.419,6.957-6.419,6.419-6.419-6.419Zm-8.18,9.131,5.641,5.641-13.163,4.7Zm16.359,0,7.522,10.343-13.163-4.7Z" transform="translate(-4.986 -1.999)"/></svg>