<svg xmlns="http://www.w3.org/2000/svg" width="63.996" height="61.453" viewBox="0 0 63.996 61.453"><defs><style>.a{fill:#3566b8;}</style></defs><path class="a" d="M48.477,2a1.29,1.29,0,0,0-.76.36L32,18.083,22.679,8.763a1.3,1.3,0,0,0-1.84,1.84l8.04,8.04H7.68A7.7,7.7,0,0,0,0,26.322V55.76a7.7,7.7,0,0,0,7.68,7.68H56.317A7.7,7.7,0,0,0,64,55.76V26.322a7.7,7.7,0,0,0-7.68-7.68h-21.2L49.557,4.2A1.281,1.281,0,0,0,48.477,2ZM7.68,21.2H31.758a1.291,1.291,0,0,0,.48,0H56.317a5.1,5.1,0,0,1,5.12,5.12V55.76a5.1,5.1,0,0,1-5.12,5.12H7.68a5.1,5.1,0,0,1-5.12-5.12V26.322A5.1,5.1,0,0,1,7.68,21.2Zm18.559,1.28c-9.2,0-14.644-.125-18.2,2.48a9.475,9.475,0,0,0-3.44,5.88,48.521,48.521,0,0,0-.76,10.2,48.491,48.491,0,0,0,.76,10.2,9.475,9.475,0,0,0,3.44,5.88c3.555,2.6,8.994,2.48,18.2,2.48,9.159,0,14.629.145,18.2-2.44a9.4,9.4,0,0,0,3.44-5.88,48.422,48.422,0,0,0,.76-10.239,49.881,49.881,0,0,0-.72-10.239,9.4,9.4,0,0,0-3.44-5.88C40.928,22.332,35.488,22.482,26.238,22.482Zm0,2.56c9.249,0,14.374.18,16.759,1.92,1.195.87,1.9,2.15,2.4,4.4a48.336,48.336,0,0,1,.68,9.679,47.2,47.2,0,0,1-.68,9.679c-.51,2.245-1.275,3.525-2.48,4.4-2.41,1.745-7.52,1.92-16.679,1.92-9.194,0-14.314-.24-16.719-2-1.2-.88-1.94-2.12-2.44-4.36a47.677,47.677,0,0,1-.68-9.639A47.677,47.677,0,0,1,7.08,31.4c.5-2.24,1.235-3.48,2.44-4.36C11.924,25.277,17.044,25.042,26.238,25.042Zm28.8,7.68a2.56,2.56,0,1,0,2.56,2.56A2.558,2.558,0,0,0,55.037,32.722Zm0,11.519A2.56,2.56,0,1,0,57.6,46.8,2.558,2.558,0,0,0,55.037,44.241Z" transform="translate(0 -1.987)"/></svg>