<svg xmlns="http://www.w3.org/2000/svg" width="64" height="38.4" viewBox="0 0 64 38.4"><defs><style>.a{fill:#152c43;}</style></defs><path class="a" d="M21.76,11a6.406,6.406,0,0,0-5.12,2.56l-.065.085L11.95,22.65l-6.6,1.17H5.345A6.408,6.408,0,0,0,0,30.13v9.03A3.86,3.86,0,0,0,3.84,43H6.66a7.6,7.6,0,0,0,7.42,6.4A7.6,7.6,0,0,0,21.5,43h21a7.5,7.5,0,0,0,14.84,0h2.82A3.86,3.86,0,0,0,64,39.16V30.2a6.417,6.417,0,0,0-5.345-6.315l.025.005-6.625-1.23-4.63-9.015-.065-.085A6.406,6.406,0,0,0,42.24,11Zm0,2.56H42.24a3.822,3.822,0,0,1,3.035,1.5l5.07,9.875,7.875,1.47.015,0A3.826,3.826,0,0,1,61.44,30.2v8.96a1.258,1.258,0,0,1-1.28,1.28H55.04v1.28a5.12,5.12,0,0,1-10.24,0V40.44H19.2v1.28a5.12,5.12,0,0,1-10.24,0V40.44H3.84a1.258,1.258,0,0,1-1.28-1.28V30.13a3.835,3.835,0,0,1,3.21-3.79h0l7.87-1.39,5.08-9.885A3.822,3.822,0,0,1,21.76,13.56ZM32,17.4a1.3,1.3,0,0,0-.46.1,5.1,5.1,0,0,0-4.66,5.025v2.56H25.6a1.282,1.282,0,0,0-1.28,1.28v7.68a1.282,1.282,0,0,0,1.28,1.28H38.4a1.282,1.282,0,0,0,1.28-1.28V26.36a1.282,1.282,0,0,0-1.28-1.28H37.12V22.52A5.143,5.143,0,0,0,32,17.4Zm0,2.56a2.559,2.559,0,0,1,2.56,2.56v2.56H29.44V22.52A2.559,2.559,0,0,1,32,19.96Z" transform="translate(0 -11)"/></svg>