<svg xmlns="http://www.w3.org/2000/svg" width="64" height="58.954" viewBox="0 0 64 58.954"><defs><style>.a{fill:#152c43;}</style></defs><path class="a" d="M41.2,1A2.787,2.787,0,0,0,38.48,3.763a8.409,8.409,0,0,0-4.966,2.8,9.423,9.423,0,0,0-4.085-1.562A2.786,2.786,0,0,0,26.7,2.282H24.542a2.786,2.786,0,0,0-2.723,2.723A9.445,9.445,0,0,0,15.09,9.17a14.173,14.173,0,0,0-2.2,7.289,2.18,2.18,0,0,0-.681.24,3.355,3.355,0,0,0-1.442,1.642,8.057,8.057,0,0,0-.521,3.164v1l.961.24s.976.205,2.4.441c.09.421.175.861.28,1.282a3.843,3.843,0,0,0-.881,3.084,6.871,6.871,0,0,0,1.242,3.484c.34.431.786.471,1.2.681a13.763,13.763,0,0,0,1.161,3.8,11.689,11.689,0,0,0,1.041,1.722,6.011,6.011,0,0,0,.561.521c.01,1.582.015,2.9-.12,4.566a5.68,5.68,0,0,1-2.964,2.6c-1.617.811-3.72,1.562-5.847,2.483a18.449,18.449,0,0,0-6.008,3.8A11.157,11.157,0,0,0,.111,58.592l-.08,1.362h51.3l-.08-1.362a11.591,11.591,0,0,0-1.442-5.046H64.032l-.08-1.362a10.029,10.029,0,0,0-2.683-6.408,16.424,16.424,0,0,0-5.086-3.444c-1.787-.846-3.544-1.522-4.886-2.243a4.887,4.887,0,0,1-2.4-2.163c-.105-1.347-.13-2.443-.12-3.725a5.487,5.487,0,0,0,.441-.4,10.253,10.253,0,0,0,.881-1.482,12.083,12.083,0,0,0,.961-3.164c.335-.185.691-.215.961-.561a5.863,5.863,0,0,0,1.081-3v-.04a3.4,3.4,0,0,0-.721-2.6,12.593,12.593,0,0,0,.641-2.283c1.422-.245,2.4-.481,2.4-.481l.961-.24v-1a7.388,7.388,0,0,0-.481-2.924,3.177,3.177,0,0,0-1.362-1.562,1.816,1.816,0,0,0-.561-.2,13.475,13.475,0,0,0-2.043-6.648,8.577,8.577,0,0,0-5.847-3.885A2.786,2.786,0,0,0,43.366,1Zm0,2.563h2.163a.3.3,0,0,1,.2.28v1a1.312,1.312,0,0,0,0,.28v7.409a1.282,1.282,0,1,0,2.563,0V6.487A5.772,5.772,0,0,1,49.774,9.01,11.494,11.494,0,0,1,51.5,14.857a1.859,1.859,0,0,0,.441,1.2,1.788,1.788,0,0,0,.8.481c.385.125.536.125.6.16s.08.035.2.32c.055.13.07.606.12.881a49.947,49.947,0,0,1-11.374,1.041H40.722a5.366,5.366,0,0,0-.24-.6A3.4,3.4,0,0,0,39.04,16.66a2.32,2.32,0,0,0-.681-.24A14.208,14.208,0,0,0,36.117,9.17a10.348,10.348,0,0,0-.681-.881,6.091,6.091,0,0,1,3-1.8v6.048a1.282,1.282,0,1,0,2.563,0V5.085a1.3,1.3,0,0,0,0-.521V3.844A.3.3,0,0,1,41.2,3.563ZM24.542,4.845H26.7a.3.3,0,0,1,.2.28v1a1.312,1.312,0,0,0,0,.28v7.409a1.282,1.282,0,1,0,2.563,0V7.728a6.726,6.726,0,0,1,4.526,2.884,12.1,12.1,0,0,1,1.882,6.408,1.87,1.87,0,0,0,.481,1.2,1.763,1.763,0,0,0,.8.481,6.233,6.233,0,0,1,.681.24c.1.05.175.06.32.4a9.58,9.58,0,0,1,.16,1.121c-.315.07-.781.17-1.442.28a1.145,1.145,0,0,0-.32,0,1.256,1.256,0,0,0-.36.08,69.971,69.971,0,0,1-10.573.681,72.221,72.221,0,0,1-10.253-.6,1.281,1.281,0,0,0-1-.16c-.661-.11-1.126-.21-1.442-.28a8.746,8.746,0,0,1,.16-1.121c.145-.335.22-.345.32-.4s.275-.1.681-.24a1.784,1.784,0,0,0,.8-.481,1.9,1.9,0,0,0,.481-1.2,12.187,12.187,0,0,1,1.882-6.408,6.664,6.664,0,0,1,4.526-2.884v6.088a1.282,1.282,0,1,0,2.563,0V6.367a1.3,1.3,0,0,0,0-.521V5.125A.3.3,0,0,1,24.542,4.845Zm25.752,16.22c-.15.641-.31,1.081-.521,1.722l-.32.961.881.521a1.163,1.163,0,0,1,.24,1,3.625,3.625,0,0,1-.561,1.762c-.165.21-.205.165-.16.16l-1.081.08-.08,1.041a9.533,9.533,0,0,1-.921,2.884,8,8,0,0,1-.6,1.081c-.115.155-.2.27-.24.32h-.04c-.005.005,0,.04,0,.04l-.681.32v.761a46.2,46.2,0,0,0,.12,4.686v.16l.08.16a7.206,7.206,0,0,0,3.645,3.645c1.567.846,3.379,1.492,5.046,2.283a14.1,14.1,0,0,1,4.285,2.884,7.263,7.263,0,0,1,1.722,3.444H47.851a19.01,19.01,0,0,0-5.807-3.564c-2.133-.921-4.225-1.672-5.847-2.483a5.759,5.759,0,0,1-2.964-2.563c-.14-1.687-.13-3.009-.12-4.606a6.775,6.775,0,0,0,.561-.521,12.21,12.21,0,0,0,1-1.722,14.166,14.166,0,0,0,1.161-3.8c.4-.21.831-.26,1.161-.681a6.871,6.871,0,0,0,1.242-3.484,3.8,3.8,0,0,0-.881-3.044c.13-.4.265-.816.4-1.322,1.352-.225,2.283-.441,2.283-.441l.961-.24v-1h1.282A68.519,68.519,0,0,0,50.294,21.065Zm-34,2.523a83.319,83.319,0,0,0,9.332.481A82.714,82.714,0,0,0,35,23.588c-.075.245-.15.5-.24.761l-.32,1,.881.521a1.535,1.535,0,0,1,.36,1.4,4.58,4.58,0,0,1-.681,2.2c-.23.3-.35.28-.36.28l-1.081.08-.12,1.041A11.648,11.648,0,0,1,32.352,34.4a9.535,9.535,0,0,1-.761,1.322c-.235.325-.481.506-.36.441l-.681.36v.761a53.882,53.882,0,0,0,.12,5.527v.16l.08.16a7.988,7.988,0,0,0,4.285,4.125c1.862.931,4,1.617,6.008,2.483a16.309,16.309,0,0,1,5.207,3.284,8.311,8.311,0,0,1,2.123,4.365H2.995a8.31,8.31,0,0,1,2.083-4.365,16.563,16.563,0,0,1,5.247-3.284c2-.866,4.11-1.552,5.968-2.483a8.005,8.005,0,0,0,4.285-4.125l.08-.32a53.882,53.882,0,0,0,.12-5.527v-.761l-.681-.36c.115.06-.16-.115-.4-.441a9.306,9.306,0,0,1-.8-1.322,11.19,11.19,0,0,1-1.081-3.524l-.12-1.041-1.081-.08c-.01,0-.13.015-.36-.28a4.58,4.58,0,0,1-.681-2.2,1.552,1.552,0,0,1,.36-1.4l.841-.521-.24-.921C16.442,24.084,16.362,23.849,16.292,23.588Z" transform="translate(-0.031 -1)"/></svg>