<svg xmlns="http://www.w3.org/2000/svg" xmlns:xlink="http://www.w3.org/1999/xlink" width="259.305" height="236.776" viewBox="0 0 259.305 236.776"><defs><style>.a{fill:#4588f1;}.b{fill:#3566b8;}.c{fill:#fdd7bd;}.d{fill:#686f76;}.e{fill:#363636;}.f{fill:#fac5aa;}.g{filter:url(#e);}.h{filter:url(#c);}.i{filter:url(#a);}</style><filter id="a" x="0" y="0" width="236.776" height="236.776" filterUnits="userSpaceOnUse"><feOffset dy="2" input="SourceAlpha"/><feGaussianBlur stdDeviation="1" result="b"/><feFlood flood-opacity="0.161"/><feComposite operator="in" in2="b"/><feComposite in="SourceGraphic"/></filter><filter id="c" x="58.197" y="39.254" width="178.579" height="197.522" filterUnits="userSpaceOnUse"><feOffset dy="2" input="SourceAlpha"/><feGaussianBlur stdDeviation="1" result="d"/><feFlood flood-opacity="0.161"/><feComposite operator="in" in2="d"/><feComposite in="SourceGraphic"/></filter><filter id="e" x="80.46" y="21.199" width="178.845" height="183.741" filterUnits="userSpaceOnUse"><feOffset dy="2" input="SourceAlpha"/><feGaussianBlur stdDeviation="1" result="f"/><feFlood flood-opacity="0.161"/><feComposite operator="in" in2="f"/><feComposite in="SourceGraphic"/></filter></defs><g transform="translate(105.474 -14.002) rotate(34)"><g class="i" transform="matrix(0.83, -0.56, 0.56, 0.83, -79.61, 70.59)"><path class="a" d="M166.738,132.534a83.119,83.119,0,1,1-83.12-83.12A83.12,83.12,0,0,1,166.738,132.534Zm0,0" transform="translate(123.18 -40.25) rotate(34)"/></g><g class="h" transform="matrix(0.83, -0.56, 0.56, 0.83, -79.61, 70.59)"><path class="b" d="M208.759,49.414a83.737,83.737,0,0,0-12.919,1,83.129,83.129,0,0,1,.006,164.234A83.122,83.122,0,1,0,208.759,49.414Zm0,0" transform="translate(19.43 -110.22) rotate(34)"/></g><g class="g" transform="matrix(0.83, -0.56, 0.56, 0.83, -79.61, 70.59)"><path class="c" d="M291.628,94.734l-47.463,31.429a16.164,16.164,0,0,1-11.481,2.489,16.218,16.218,0,0,0-11.51,2.482l-6.352,4.21L179.25,82.909l8.727-37.7a39.353,39.353,0,0,0-5.528-30.6,9.409,9.409,0,0,1,14.393-11.95L202.5,8.131A60.428,60.428,0,0,1,217.082,30.49l3.066,8.254,31.572-20.86A10.766,10.766,0,0,1,266.8,21.171a10.907,10.907,0,0,1-3.382,14.787.118.118,0,0,0,.109.209,10.713,10.713,0,0,1,3.848-.713,10.825,10.825,0,0,1,5.866,1.728,10.768,10.768,0,0,1,4.7,11.126,11,11,0,0,1-4.513,6.817.232.232,0,0,0-.059.32.009.009,0,0,0,.007.007.229.229,0,0,0,.3.06A11.049,11.049,0,0,1,276.3,55.2a11.341,11.341,0,0,1,6.073,1.76,10.588,10.588,0,0,1,3.14,3.081,10.762,10.762,0,0,1-3.035,14.918c-.122.083-.244.166-.366.244a.167.167,0,0,0-.055.209.089.089,0,0,0,.039.039.173.173,0,0,0,.213-.007,10.539,10.539,0,0,1,9.133,1.175,10.968,10.968,0,0,1,3.216,3.188A10.768,10.768,0,0,1,291.628,94.734Zm0,0" transform="translate(10.54 -78.04) rotate(34)"/></g><path class="d" d="M102.155,280.264l-20.023,13.26L53.224,312.667a83.207,83.207,0,0,1-50.548-65.4l33.547-22.216,20.422-13.525a5.109,5.109,0,0,1,7.082,1.444l39.873,60.2A5.115,5.115,0,0,1,102.155,280.264Zm0,0" transform="translate(-1.394 -134.969)"/><path class="e" d="M161.96,280.264l-20.023,13.26L96.027,225.055l20.422-13.525a5.109,5.109,0,0,1,7.082,1.444l39.873,60.2A5.116,5.116,0,0,1,161.96,280.264Zm0,0" transform="translate(-61.198 -134.969)"/><g transform="translate(136.413 35.454)"><path class="f" d="M401.022,100.383l-15.794,8.452a5.116,5.116,0,0,1-6.525-1.468l12.451-8.056a.118.118,0,0,0,.153.059,10.713,10.713,0,0,1,3.848-.713A10.833,10.833,0,0,1,401.022,100.383Zm0,0" transform="translate(-378.703 -98.656)"/><path class="f" d="M427.027,155.374l-15.45,8.261a5.112,5.112,0,0,1-6.526-1.463l12.451-8.058.538-.253a.229.229,0,0,0,.3.06,11.049,11.049,0,0,1,2.612-.309A11.333,11.333,0,0,1,427.027,155.374Zm0,0" transform="translate(-395.582 -133.864)"/><path class="f" d="M455.552,210.139l-13.608,7.28a5.121,5.121,0,0,1-6.526-1.468l10.787-6.98a.172.172,0,0,0,.214-.008A10.547,10.547,0,0,1,455.552,210.139Zm0,0" transform="translate(-415.037 -168.969)"/></g></g></svg>