<svg xmlns="http://www.w3.org/2000/svg" xmlns:xlink="http://www.w3.org/1999/xlink" width="205.319" height="42.435" viewBox="0 0 205.319 42.435"><defs><style>.a{fill:#191919;}.b{fill:#ff4833;}.c{fill:#fff;fill-rule:evenodd;}.d{filter:url(#c);}.e{filter:url(#a);}</style><filter id="a" x="8.479" y="8.915" width="32.86" height="32.912" filterUnits="userSpaceOnUse"><feOffset dx="4" dy="4" input="SourceAlpha"/><feGaussianBlur stdDeviation="2" result="b"/><feFlood flood-opacity="0.235"/><feComposite operator="in" in2="b"/><feComposite in="SourceGraphic"/></filter><filter id="c" x="21.861" y="8.639" width="19.852" height="19.831" filterUnits="userSpaceOnUse"><feOffset dx="4" dy="4" input="SourceAlpha"/><feGaussianBlur stdDeviation="2" result="d"/><feFlood flood-opacity="0.243"/><feComposite operator="in" in2="d"/><feComposite in="SourceGraphic"/></filter></defs><g transform="translate(54.633 10.552)"><g transform="translate(0 0)"><path class="a" d="M.4-23.738a24.5,24.5,0,0,0,2.5,5l2.5,4.222L2.9-10.3C-.289-4.953-.2-3.919,2.985-3.919c2.154,0,2.844-.517,4.05-3.016.776-1.637,1.637-3.016,1.982-3.016.259,0,1.206,1.379,2.068,3.016,1.379,2.5,2.154,3.016,4.567,3.016,1.551,0,2.844-.259,2.844-.517a35.341,35.341,0,0,0-2.671-5.257l-2.671-4.739,2.24-4.136c2.844-5.17,2.844-6.032-.172-6.032-1.9,0-2.844.689-4.222,3.188L9.19-18.223,7.639-21.412C6.346-24.169,5.743-24.6,3.244-24.6,1.693-24.6.4-24.255.4-23.738Z" transform="translate(-0.4 24.6)"/><path class="a" d="M22.4-23.738c0,.517,1.551,3.964,3.447,7.756C29.294-9,29.294-7.624,25.761-8.4c-.776-.172-1.206.517-1.206,1.9,0,1.9.431,2.154,3.533,2.413,2.5.172,3.878-.172,4.826-1.293,1.379-1.551,8.445-17.062,8.445-18.527,0-.431-1.206-.689-2.758-.517-2.413.259-2.93.776-4.567,4.739l-1.81,4.567L29.9-19.861c-2.068-4.222-2.585-4.739-4.912-4.739C23.606-24.6,22.4-24.169,22.4-23.738Z" transform="translate(-3.442 24.6)"/><path class="a" d="M46.262-23.307c0,2.24,2.758,8.186,3.792,8.186.689,0,.6.259-.086.689-1.12.689-4.481,7.756-4.567,9.393,0,.689,1.12,1.12,2.93,1.12,2.5,0,3.016-.345,3.533-2.413.689-2.93,2.758-6.2,3.878-6.2.517,0,.862,1.9.862,4.309,0,4.222.086,4.309,2.585,4.309S61.773-4,61.773-8.227c0-2.413.345-4.309.862-4.309,1.12,0,3.188,3.275,3.878,6.2.517,2.068,1.034,2.413,3.533,2.413,1.637,0,2.93-.345,2.93-.776,0-1.465-3.275-8.531-4.309-9.134-.689-.431-.6-.948.259-1.982,1.12-1.379,3.188-6.463,3.188-8.014,0-.431-1.206-.776-2.585-.776-1.81,0-2.758.517-3.1,1.465-1.982,6.635-4.653,8.014-4.653,2.5,0-3.792-.086-3.964-2.585-3.964s-2.585.172-2.585,3.878c0,2.758-.345,3.878-1.206,3.878-.689,0-1.9-1.723-2.758-3.878-1.206-3.361-1.81-3.878-3.878-3.878C47.123-24.6,46.262-24.169,46.262-23.307Z" transform="translate(-6.622 24.6)"/><path class="a" d="M80.767-23.48a92.766,92.766,0,0,0-.172,10.168l.259,8.962,6.721.259c6.2.259,6.635.086,6.635-1.551,0-1.465-.517-1.723-3.878-1.723-3.705,0-3.878-.086-3.878-2.585,0-2.413.172-2.585,3.533-2.585,2.844,0,3.447-.259,3.188-1.551-.172-1.034-1.293-1.551-3.792-1.723-3.361-.259-3.447-.345-3.1-2.758s.6-2.585,4.136-2.585c3.188,0,3.792-.259,3.792-1.723,0-1.551-.6-1.723-6.463-1.723C83.18-24.6,81.112-24.255,80.767-23.48Z" transform="translate(-11.484 24.6)"/><path class="b" d="M112.853-23.544c-.259.689-.345,5.257-.259,10.255.259,8.962.259,8.962,2.413,8.962,1.982,0,2.154-.345,2.413-4.136l.259-4.05h7.669v3.792c0,4.222.776,5.257,3.447,4.395,1.551-.517,1.723-1.293,1.723-9.91s-.172-9.393-1.723-9.91c-2.585-.776-3.447.172-3.447,3.964v3.361h-7.669l-.259-3.705c-.172-3.016-.6-3.705-2.24-3.878A2.213,2.213,0,0,0,112.853-23.544Z" transform="translate(-15.909 24.578)"/><path class="b" d="M138.767-23.475a92.766,92.766,0,0,0-.172,10.168l.259,8.962,6.291.259c5.774.259,6.2.086,6.2-1.551,0-1.465-.517-1.723-4.309-1.723-4.222,0-4.309-.086-4.309-2.5s.259-2.585,3.705-2.844c2.5-.172,3.619-.689,3.619-1.551s-1.12-1.379-3.619-1.551c-3.447-.259-3.705-.431-3.705-2.758s.259-2.5,4.136-2.758c2.93-.172,4.05-.6,4.05-1.551C150.917-24.682,139.456-25.285,138.767-23.475Z" transform="translate(-19.504 24.596)"/><path class="b" d="M156.4-22.866c0,1.379.517,1.723,3.016,1.723h2.93l.258,8.359c.259,7.756.431,8.445,1.982,8.445s1.723-.689,1.982-8.445l.259-8.359h3.016c2.413,0,3.016-.345,2.758-1.551s-1.465-1.465-8.273-1.723C156.831-24.676,156.4-24.59,156.4-22.866Z" transform="translate(-21.971 24.59)"/><path class="a" d="M100.75-5.307c-.948,2.327.345,3.878,3.1,3.878,2.327,0,2.585-.259,2.585-2.585S106.179-6.6,103.853-6.6C102.3-6.6,101.009-6.083,100.75-5.307Z" transform="translate(-14.233 22.111)"/></g></g><path class="b" d="M16.287-48.768A21.2,21.2,0,0,0,0-28,20.974,20.974,0,0,0,31.195-9.474c11.289-6.118,14.477-20.164,7.152-30.936C33.952-46.7,23.611-50.664,16.287-48.768ZM30.764-18.35c-1.379,1.551-1.637,1.465-5.6-2.5L21.026-24.9l-4.136,4.05c-3.188,3.188-4.309,3.878-5.17,3.016-1.637-1.637-1.293-2.5,2.585-6.463L17.924-28l-4.05-4.136C10-36.015,9.91-36.36,11.289-37.738c1.465-1.379,1.982-.948,11.2,8.186C31.625-20.418,32.142-19.814,30.764-18.35ZM29.3-33.257c-2.93,2.93-3.188,3.016-4.567,1.551-1.379-1.379-1.293-1.637,1.465-4.481s3.016-2.93,4.481-1.551C32.229-36.36,32.229-36.187,29.3-33.257Z" transform="translate(0 49.245)"/><g class="e" transform="matrix(1, 0, 0, 1, 0, 0)"><path class="c" d="M32.446-16.6c-1.379,1.551-1.637,1.465-5.6-2.5l-4.136-4.05L18.572-19.1c-3.188,3.188-4.309,3.878-5.17,3.016-1.637-1.637-1.293-2.5,2.585-6.463l3.619-3.705-4.05-4.136c-3.878-3.878-3.964-4.222-2.585-5.6,1.465-1.379,1.982-.948,11.2,8.186C33.308-18.67,33.825-18.067,32.446-16.6Z" transform="translate(-1.68 47.49)"/></g><g class="d" transform="matrix(1, 0, 0, 1, 0, 0)"><path class="c" d="M33.131-31.549c-2.93,2.93-3.188,3.016-4.567,1.551-1.379-1.379-1.293-1.637,1.465-4.481s3.016-2.93,4.481-1.551C36.061-34.651,36.061-34.478,33.131-31.549Z" transform="translate(-3.83 47.54)"/></g></svg>