<svg xmlns="http://www.w3.org/2000/svg" xmlns:xlink="http://www.w3.org/1999/xlink" width="195.059" height="40.005" viewBox="0 0 195.059 40.005"><defs><style>.a,.c{fill:#fff;}.b{fill:#f84a36;}.c{fill-rule:evenodd;}.d{filter:url(#s);}.e{filter:url(#q);}.f{filter:url(#o);}.g{filter:url(#m);}.h{filter:url(#k);}.i{filter:url(#i);}.j{filter:url(#g);}.k{filter:url(#e);}.l{filter:url(#c);}.m{filter:url(#a);}</style><filter id="a" x="50.004" y="9.447" width="20.06" height="22.497" filterUnits="userSpaceOnUse"><feOffset dy="1" input="SourceAlpha"/><feGaussianBlur stdDeviation="0.5" result="b"/><feFlood flood-color="#404040" flood-opacity="0.082"/><feComposite operator="in" in2="b"/><feComposite in="SourceGraphic"/></filter><filter id="c" x="67.876" y="9.447" width="20.872" height="22.374" filterUnits="userSpaceOnUse"><feOffset dy="1" input="SourceAlpha"/><feGaussianBlur stdDeviation="0.5" result="d"/><feFlood flood-color="#404040" flood-opacity="0.082"/><feComposite operator="in" in2="d"/><feComposite in="SourceGraphic"/></filter><filter id="e" x="86.561" y="9.447" width="28.996" height="22.497" filterUnits="userSpaceOnUse"><feOffset dy="1" input="SourceAlpha"/><feGaussianBlur stdDeviation="0.5" result="f"/><feFlood flood-color="#404040" flood-opacity="0.082"/><feComposite operator="in" in2="f"/><feComposite in="SourceGraphic"/></filter><filter id="g" x="115.125" y="9.447" width="15.867" height="22.426" filterUnits="userSpaceOnUse"><feOffset dy="1" input="SourceAlpha"/><feGaussianBlur stdDeviation="0.5" result="h"/><feFlood flood-color="#404040" flood-opacity="0.082"/><feComposite operator="in" in2="h"/><feComposite in="SourceGraphic"/></filter><filter id="i" x="141.122" y="9.574" width="19.928" height="22.228" filterUnits="userSpaceOnUse"><feOffset dy="1" input="SourceAlpha"/><feGaussianBlur stdDeviation="0.5" result="j"/><feFlood flood-color="#404040" flood-opacity="0.243"/><feComposite operator="in" in2="j"/><feComposite in="SourceGraphic"/></filter><filter id="k" x="162.242" y="9.473" width="15.055" height="22.4" filterUnits="userSpaceOnUse"><feOffset dy="1" input="SourceAlpha"/><feGaussianBlur stdDeviation="0.5" result="l"/><feFlood flood-color="#404040" flood-opacity="0.243"/><feComposite operator="in" in2="l"/><feComposite in="SourceGraphic"/></filter><filter id="m" x="176.734" y="9.507" width="18.325" height="22.031" filterUnits="userSpaceOnUse"><feOffset dy="1" input="SourceAlpha"/><feGaussianBlur stdDeviation="0.5" result="n"/><feFlood flood-color="#404040" flood-opacity="0.243"/><feComposite operator="in" in2="n"/><feComposite in="SourceGraphic"/></filter><filter id="o" x="131.275" y="24.07" width="8.653" height="7.874" filterUnits="userSpaceOnUse"><feOffset dy="1" input="SourceAlpha"/><feGaussianBlur stdDeviation="0.5" result="p"/><feFlood flood-color="#404040" flood-opacity="0.082"/><feComposite operator="in" in2="p"/><feComposite in="SourceGraphic"/></filter><filter id="q" x="7.878" y="8.29" width="31.665" height="31.715" filterUnits="userSpaceOnUse"><feOffset dx="4" dy="4" input="SourceAlpha"/><feGaussianBlur stdDeviation="2" result="r"/><feFlood flood-opacity="0.235"/><feComposite operator="in" in2="r"/><feComposite in="SourceGraphic"/></filter><filter id="s" x="20.495" y="8.03" width="19.402" height="19.383" filterUnits="userSpaceOnUse"><feOffset dx="4" dy="4" input="SourceAlpha"/><feGaussianBlur stdDeviation="2" result="t"/><feFlood flood-opacity="0.243"/><feComposite operator="in" in2="t"/><feComposite in="SourceGraphic"/></filter></defs><g transform="translate(51.504 9.947)"><g transform="translate(0 0)"><g class="m" transform="matrix(1, 0, 0, 1, -51.5, -9.95)"><path class="a" d="M.4-23.788a23.092,23.092,0,0,0,2.356,4.712L5.112-15.1,2.756-11.115C-.25-6.078-.169-5.1,2.837-5.1c2.031,0,2.681-.487,3.818-2.843C7.386-9.49,8.2-10.79,8.524-10.79c.244,0,1.137,1.3,1.95,2.843C11.773-5.591,12.5-5.1,14.779-5.1c1.462,0,2.681-.244,2.681-.487a33.317,33.317,0,0,0-2.518-4.955l-2.518-4.468,2.112-3.9c2.681-4.874,2.681-5.687-.162-5.687-1.787,0-2.681.65-3.981,3.006L8.686-18.588,7.224-21.594C6.005-24.194,5.437-24.6,3.081-24.6,1.619-24.6.4-24.275.4-23.788Z" transform="translate(51.1 34.55)"/></g><g class="l" transform="matrix(1, 0, 0, 1, -51.5, -9.95)"><path class="a" d="M22.4-23.788a50.111,50.111,0,0,0,3.249,7.311C28.9-9.9,28.9-8.6,25.568-9.327c-.731-.162-1.137.487-1.137,1.787,0,1.787.406,2.031,3.331,2.275,2.356.162,3.656-.162,4.549-1.219,1.3-1.462,7.961-16.085,7.961-17.466,0-.406-1.137-.65-2.6-.487-2.275.244-2.762.731-4.306,4.468l-1.706,4.306-2.193-4.468c-1.95-3.981-2.437-4.468-4.631-4.468C23.537-24.6,22.4-24.194,22.4-23.788Z" transform="translate(46.98 34.55)"/></g><g class="k" transform="matrix(1, 0, 0, 1, -51.5, -9.95)"><path class="a" d="M46.212-23.381c0,2.112,2.6,7.718,3.574,7.718.65,0,.569.244-.081.65-1.056.65-4.224,7.311-4.306,8.855,0,.65,1.056,1.056,2.762,1.056,2.356,0,2.843-.325,3.331-2.275.65-2.762,2.6-5.849,3.656-5.849.487,0,.812,1.787.812,4.062,0,3.981.081,4.062,2.437,4.062s2.437-.081,2.437-4.062c0-2.275.325-4.062.812-4.062,1.056,0,3.006,3.087,3.656,5.849.487,1.95.975,2.275,3.331,2.275,1.544,0,2.762-.325,2.762-.731,0-1.381-3.087-8.042-4.062-8.611-.65-.406-.569-.894.244-1.868,1.056-1.3,3.006-6.093,3.006-7.555,0-.406-1.137-.731-2.437-.731-1.706,0-2.6.487-2.925,1.381-1.868,6.255-4.387,7.555-4.387,2.356,0-3.574-.081-3.737-2.437-3.737s-2.437.162-2.437,3.656c0,2.6-.325,3.656-1.137,3.656-.65,0-1.787-1.625-2.6-3.656-1.137-3.168-1.706-3.656-3.656-3.656C47.025-24.6,46.212-24.194,46.212-23.381Z" transform="translate(42.66 34.55)"/></g><g class="j" transform="matrix(1, 0, 0, 1, -51.5, -9.95)"><path class="a" d="M80.755-23.544a87.453,87.453,0,0,0-.162,9.586l.244,8.449,6.336.244c5.849.244,6.255.081,6.255-1.462,0-1.381-.487-1.625-3.656-1.625-3.493,0-3.656-.081-3.656-2.437,0-2.275.162-2.437,3.331-2.437,2.681,0,3.249-.244,3.006-1.462-.162-.975-1.219-1.462-3.574-1.625-3.168-.244-3.249-.325-2.925-2.6s.569-2.437,3.9-2.437c3.006,0,3.574-.244,3.574-1.625,0-1.462-.569-1.625-6.093-1.625C83.03-24.6,81.08-24.275,80.755-23.544Z" transform="translate(36.06 34.55)"/></g><g class="i" transform="matrix(1, 0, 0, 1, -51.5, -9.95)"><path class="b" d="M112.837-23.6c-.244.65-.325,4.955-.244,9.667.244,8.449.244,8.449,2.275,8.449,1.868,0,2.031-.325,2.275-3.9l.244-3.818h7.23v3.574c0,3.981.731,4.955,3.249,4.143,1.462-.487,1.625-1.219,1.625-9.342s-.162-8.855-1.625-9.342c-2.437-.731-3.249.162-3.249,3.737v3.168h-7.23l-.244-3.493c-.162-2.843-.569-3.493-2.112-3.656A2.086,2.086,0,0,0,112.837-23.6Z" transform="translate(30.06 34.52)"/></g><g class="h" transform="matrix(1, 0, 0, 1, -51.5, -9.95)"><path class="b" d="M138.755-23.538a87.451,87.451,0,0,0-.162,9.586l.244,8.449,5.93.244c5.443.244,5.849.081,5.849-1.462,0-1.381-.487-1.625-4.062-1.625-3.981,0-4.062-.081-4.062-2.356s.244-2.437,3.493-2.681c2.356-.162,3.412-.65,3.412-1.462s-1.056-1.3-3.412-1.462c-3.249-.244-3.493-.406-3.493-2.6s.244-2.356,3.9-2.6c2.762-.162,3.818-.569,3.818-1.462C150.21-24.675,139.405-25.244,138.755-23.538Z" transform="translate(25.18 34.54)"/></g><g class="g" transform="matrix(1, 0, 0, 1, -51.5, -9.95)"><path class="b" d="M156.4-22.961c0,1.3.487,1.625,2.843,1.625h2.762l.244,7.88c.244,7.311.406,7.961,1.868,7.961s1.625-.65,1.868-7.961l.244-7.88h2.843c2.275,0,2.843-.325,2.6-1.462s-1.381-1.381-7.8-1.625C156.806-24.667,156.4-24.586,156.4-22.961Z" transform="translate(21.83 34.53)"/></g><g class="f" transform="matrix(1, 0, 0, 1, -51.5, -9.95)"><path class="a" d="M100.733-5.381c-.894,2.193.325,3.656,2.925,3.656,2.193,0,2.437-.244,2.437-2.437S105.851-6.6,103.657-6.6C102.2-6.6,100.977-6.113,100.733-5.381Z" transform="translate(32.33 31.17)"/></g></g></g><path class="b" d="M15.354-48.8A19.984,19.984,0,0,0,0-29.218,19.773,19.773,0,0,0,29.408-11.752c10.642-5.768,13.648-19.009,6.743-29.164C32.007-46.846,22.259-50.583,15.354-48.8ZM29-20.119c-1.3,1.462-1.544,1.381-5.28-2.356l-3.9-3.818-3.9,3.818c-3.006,3.006-4.062,3.656-4.874,2.843C9.5-21.175,9.83-21.987,13.485-25.724L16.9-29.218l-3.818-3.9C9.424-36.773,9.342-37.1,10.642-38.4c1.381-1.3,1.868-.894,10.561,7.718C29.814-22.069,30.3-21.5,29-20.119ZM27.621-34.173c-2.762,2.762-3.006,2.843-4.306,1.462-1.3-1.3-1.219-1.544,1.381-4.224S27.539-39.7,28.92-38.4C30.383-37.1,30.383-36.935,27.621-34.173Z" transform="translate(0 49.245)"/><g class="e" transform="matrix(1, 0, 0, 1, 0, 0)"><path class="c" d="M31.284-17.746c-1.3,1.462-1.544,1.381-5.28-2.356L22.1-23.92l-3.9,3.818c-3.006,3.006-4.062,3.656-4.874,2.843-1.544-1.544-1.219-2.356,2.437-6.093l3.412-3.493-3.818-3.9c-3.656-3.656-3.737-3.981-2.437-5.28,1.381-1.3,1.868-.894,10.561,7.718C32.1-19.7,32.584-19.127,31.284-17.746Z" transform="translate(-2.28 46.87)"/></g><g class="d" transform="matrix(1, 0, 0, 1, 0, 0)"><path class="c" d="M32.82-31.855c-2.762,2.762-3.006,2.843-4.306,1.462-1.3-1.3-1.219-1.544,1.381-4.224s2.843-2.762,4.224-1.462C35.582-34.779,35.582-34.617,32.82-31.855Z" transform="translate(-5.2 46.93)"/></g></svg>