<svg xmlns="http://www.w3.org/2000/svg" width="339.142" height="145.757" viewBox="0 0 339.142 145.757"><defs><style>.a{opacity:0.797;}.b{fill:#152c43;fill-rule:evenodd;}</style></defs><g class="a"><path class="b" d="M209.176,127.476a2.635,2.635,0,0,1,1.759,1.09c-.736-.123-1.61-.022-1.759-1.09" transform="translate(13.81 -0.615)"/><path class="b" d="M20.021,4.048l3.362,2.62C21.523,7.688,21.523,7.688,20.021,4.048ZM28,21.622,38.052,48.445l-.716.267q-5.005-13.419-10.012-26.84ZM49.253,72.351c-.11,2.937-.211,5.643-.313,8.349l-.909.091c-.811-2.709-1.623-5.418-2.507-8.369Zm145.264,68.111c-2.3-1.092-2.157-2.064-.431-4.057a28.44,28.44,0,0,0,2.428-3.579c1.01-1.614,1.859-3.341,2.975-4.876a4.512,4.512,0,0,1,5.7-1.637,25.346,25.346,0,0,1,11.427,8.179c3.486,4.653,2.46,8.82-3.444,10.465a39.024,39.024,0,0,1-4.953.738l-.263.378C203.462,144.225,198.9,142.541,194.517,140.462ZM168.11,71.514c4.23-4.285,9.35-5.334,15.13-4.224,2.972.57,6,.872,9,1.295.014.108.029.215.044.323-3.073.309-6.139.725-9.219.892a8.642,8.642,0,0,0-5.97,2.407c-4.02,3.939-9.314,4.881-14.493,6.048-.159-.167-.318-.333-.476-.5C164.117,75.673,166.085,73.566,168.11,71.514Zm37.459-4.291a4.639,4.639,0,0,1,3.081.642c6.586,3.92,13.264,7.6,20.784,9.469a3.377,3.377,0,0,1,1.885,1.11c3.727,5.512,7.508,11,11,16.656,2.883,4.67,5.334,9.6,8.107,14.345a39.974,39.974,0,0,1,3.521,7.56c1.085,3.233,3.382,6.073,5.253,9.02a26.651,26.651,0,0,0,2.6,2.967c-5.5,2.114-10.056,1.612-14.723-1.519-5.318-3.569-8.032-9.149-11.97-13.771-1.377-1.616-2.545-3.409-4.032-5.423l3.133.727c-6.323-2.648-9.473-8.314-13.315-13.4-3.151-4.171-6.861-7.919-10.213-11.729h.833c-3.993-1.544-8.075-2.91-11.9-4.794-4.084-2.013-7.876-4.62-11.8-6.965.032-.2.063-.4.1-.6,1.082-.191,2.181-.312,3.242-.585C195.958,69.7,200.737,68.348,205.569,67.223Zm13.519-.321c7.223,1.959,14.329,4.341,21.531,6.38a33.344,33.344,0,0,0,7.867,1.34c6.081.205,11.723,2,17.291,4.178a70.733,70.733,0,0,1,9.7,4.092,56.8,56.8,0,0,1,8.083,6.262c.467.4.34,1.494.48,2.227.143-.29.325-.664.677-1.38,1.267,1.352,2.806,2.363,3.44,3.779,2.551,5.7,6.728,10.147,10.81,14.759-6.871,3.649-13.763,5.142-20.642.231-4-2.858-7.845-5.938-11.761-8.918l.407-.738,6,.534q.189-.39.376-.781c-13.971-2.235-22.425-13.2-33.748-20.367l3.594-.635c-12.576-.2-23.275-5.795-34.632-11.412C212.584,65.063,215.91,66.04,219.088,66.9ZM290.63,94.867a27.143,27.143,0,0,1,9.679,12.1L290.128,95.287C290.3,95.146,290.463,95.007,290.63,94.867ZM262.4,128c-4.474-4.476-6.149-7.171-7.466-11.887C257.7,117.265,261.6,123.36,262.4,128Zm-40.809-16.111,6.224,9.356-.768.51-6.315-9.295ZM324.207,80.208c-6.1-.681-10.477-3.475-14.91-7.454A33.877,33.877,0,0,1,324.207,80.208Zm-233.8-61.8c10.628.494,21.272.685,31.894,1.264,10.237.559,20.453,1.486,30.683,2.188,11.375.782,22.793,1.147,34.114,2.4,4.734.523,9.37,2.616,13.864,4.452,4.86,1.986,9.4,4.764,14.258,6.743,14.755,6.005,30.136,10.093,45.484,14.227a30.175,30.175,0,0,1,11.274,5.334,73.333,73.333,0,0,0,8.959,5.985c8.028,4.612,16.224,8.88,25.426,10.743a1.52,1.52,0,0,1,.879.549c4.02,5.8,10.117,7.8,16.605,9.057.376.072.856-.4,1.481-.713-.593-.789-.917-1.6-1.512-1.949-3.543-2.053-6.931-4.788-10.77-5.841A125.979,125.979,0,0,1,270.636,52.2a20.738,20.738,0,0,0-6.036-3.155c-6.271-1.967-12.589-3.818-18.965-5.406A222.562,222.562,0,0,1,213.47,32.914c-3.3-1.379-6.366-3.293-9.6-4.848a86.493,86.493,0,0,0-10.607-4.738c-3.415-1.107-6.781-2.067-9.9-3.98a18.693,18.693,0,0,0-7.046-2.606c-9.4-1.257-18.82-2.5-28.274-3.164-9.992-.7-20.03-.84-30.052-1.009-9.4-.158-18.81-.016-28.216-.039-10.017-.024-20.036.039-30.048-.207a26.231,26.231,0,0,1-8.96-1.7,54.1,54.1,0,0,0-23.346-3.9,3.614,3.614,0,0,1-3.461-1.542A10.745,10.745,0,0,0,15.577.615,34.217,34.217,0,0,0,6.4,2.337C2.684,3.389-.926,4.81-4.734,6.125l.353-3.963a15.559,15.559,0,0,0-.7,2.731q-.054.611-.109,1.221A6.811,6.811,0,0,0-4.7,8.87,2.83,2.83,0,0,1-2.892,7.618C2.236,6.126,7.275,4.294,12.456,3.03c3.932-.96,4.267-.778,5.832,2.813,5.835,13.384,11.645,26.784,17.148,40.306C39.76,56.773,43.44,67.632,45.442,79c.587,3.333,1.744,4.259,5.014,4.387-1.469,1.274-2.374,2.427-3.559,3-1.912.928-4.027,1.429-6.024,2.193-11.063,4.234-22.2,8.295-33.144,12.813a50.368,50.368,0,0,0-18.5,13.663A10.2,10.2,0,0,1-13.81,116.9a1.341,1.341,0,0,0,.62.336,3.2,3.2,0,0,1,1.217.512,8.131,8.131,0,0,0,1.648-.92c2.673-2.023,5.04-4.46,7.766-6.4,3.85-2.74,7.69-5.652,11.931-7.648,7.668-3.608,15.59-6.69,23.481-9.8C37.4,91.187,42.1,89.8,46.709,88.158c2.123-.758,3.815-2.155,4.212-4.472.539-3.154.836-6.35,1.225-9.529.1-.777.143-1.56.22-2.428,4.543.992,8.248,2.774,11.239,6.168a224.936,224.936,0,0,0,31.177,28.744,55.826,55.826,0,0,0,14.631,8.4c9.6,3.523,19.491,6.319,29.383,8.961,9.75,2.6,19.745,4.416,28.439,9.94,9.126,5.8,19.28,8.832,29.669,11.235a36.941,36.941,0,0,0,16.387.478c4.979-1.1,6.766-4.25,5.189-9a31.923,31.923,0,0,0-10.334-15.137c-10.495-8.479-22.189-14.9-34.549-20.168-6.068-2.584-12.071-5.247-17.172-9.542a8.066,8.066,0,0,1-2.15-2.329c-.293-.592-.128-2.008.3-2.262,2.89-1.709,4.743-4.271,6.431-7.042a2.791,2.791,0,0,1,1.493-1.195c3.159-.8,6.283-1.235,8.611,1.9A7.153,7.153,0,0,0,172.48,82.1c3.35,2.652,6.533,5.59,11.014,6.283a1.551,1.551,0,0,1,.9.83A41.783,41.783,0,0,0,195.239,103c1.832,1.558,3.9,2.836,5.861,4.242a17.006,17.006,0,0,0-2.745-3.141c-5.777-4.033-9.669-9.639-13.509-15.532l2.694-.871c-8.154.591-12.384-6.034-18-9.391,3.19-1.93,6.232-4.089,9.548-5.673,2.619-1.251,5.516-1.592,8.224.367a46.146,46.146,0,0,0,7.288,4.738c5.179,2.409,8,6.914,11,11.337a55.493,55.493,0,0,0,3.9,5.639c4.447,5.066,7.311,11.037,10.265,16.994a63.132,63.132,0,0,0,4.586,7.338,32.954,32.954,0,0,0,2.814,3.209c-1.924,2.6-5.454,3.814-8.26,2.573a21.76,21.76,0,0,1-6.392-3.917c-3.2-3.113-5.984-6.661-8.945-10.024-.491-.557-1-1.1-1.5-1.645a31.1,31.1,0,0,0,12.25,14.481,15.945,15.945,0,0,0,6.774,2.438c2.488.281,5.119-.446,6.508-2.987,1.345-2.459-.231-4.384-1.486-6.3a19.33,19.33,0,0,0-1.4-1.822,87.092,87.092,0,0,1-5.85-7.035c-3.529-5.264-6.758-10.728-10.174-16.07-2.187-3.42-4.489-6.768-6.739-10.148l.369-.606a64.038,64.038,0,0,1,7,3.935,44.461,44.461,0,0,1,10.522,11.737c2.494,3.766,5.045,7.517,9,9.981a2.28,2.28,0,0,1,.653.634c3.325,4.856,6.519,9.807,9.985,14.56,5.951,8.16,12.55,11.518,20.67,8.994,2.613-.812,3.414-2.159,2.713-4.86a8.161,8.161,0,0,0-1.061-2.764c-2.332-3.183-4.992-6.142-7.145-9.436a133.308,133.308,0,0,1-9.289-15.54,111.923,111.923,0,0,0-11.074-18.192c-.462-.632-.9-1.277-1.357-1.916.168-.234.338-.469.507-.7,1.963.9,4.137,1.522,5.848,2.772,4.2,3.062,8.073,6.56,12.276,9.611,4,2.9,8.254,5.457,12.385,8.181a4.851,4.851,0,0,1,1.336,1.132A39.034,39.034,0,0,0,278.648,111c6.645,3.682,13.255,2.832,19.768-.252,2.935-1.389,3.652-3.75,1.8-6.391a83.074,83.074,0,0,0-7.106-8.657c-1.032-1.116-2.886-1.453-3.967-2.542-2.375-2.393-4.5-5.039-6.985-7.885,1,.37,1.655.558,2.264.844a54.3,54.3,0,0,0,21.586,4.77,30.4,30.4,0,0,0,9.246-1.2,12.59,12.59,0,0,0,8.363-7.1,4.361,4.361,0,0,0-1.845,1.121c-3.061,3.161-6.846,5.251-11.143,5.275a151.872,151.872,0,0,1-16.868-1.247,29.123,29.123,0,0,1-5.435-1.657c.025-.128.049-.256.074-.385l3.22-.72a46.472,46.472,0,0,1-16.492-4.187c-2.58-1.111-4.777-2.8-7.8-3.308-4.45-.741-8.719-2.578-12.9-3.9l5.729-2.364a10.375,10.375,0,0,0-3.634.462,29.308,29.308,0,0,1-15.644-.172q-7.356-2.22-14.685-4.527c-6.384-2.012-12.768-3.84-19.544-1.9a13.065,13.065,0,0,1-3.612.551c-6.027-.035-12.055-.153-18.081-.268-2.435-.046-5.178-.932-7.249-.105-7.519,3-14.568,6.825-18.4,14.634a11.257,11.257,0,0,1-5.6,5.734c1.306-3.61,2.459-7.416,4.774-10.283,2.27-2.811,5.724-4.666,8-6.432-6.95,2.042-11.437,7.154-13.429,15.734-.764,3.29.425,5.822,2.635,7.965,5.155,5,11.506,8.03,18.109,10.558,12.078,4.624,23.464,10.5,33.447,18.792,2.742,2.278,4.976,5.166,7.443,7.775l-.529.506c-2.034-1.279-3.987-2.72-6.121-3.8-5.412-2.749-8.587-1.7-11.607,3.576a61.955,61.955,0,0,1-3.378,5.706c-1.883,2.6-1.734,4.048,1.092,5.68,1.64.947,3.381,1.718,5.473,2.768-6.869-.48-21.251-5.3-28.929-9.129-6.828-3.4-13.672-6.956-20.865-9.39-9.833-3.327-19.94-5.92-30.046-8.343a61.5,61.5,0,0,1-26.428-13.625c-5.836-5.064-11.773-10.014-17.538-15.159A61.681,61.681,0,0,1,67.1,79.757a21.547,21.547,0,0,0-15.029-9.093c-.8-.108-1.6-.81-2.328-.713a30.884,30.884,0,0,0-4.313,1.182c-5.652-21.945-11.633-43.422-23.806-62.9,2.242-.033,3.828-.014,5.41-.087,6.241-.291,12.537-.172,18.354,2.148,9.49,3.784,19.346,4.355,29.315,4.271,10.1-.085,20.19-.585,30.286-.616,6.652-.02,13.313.8,19.957.663,16.077-.342,31.92,1.959,47.806,3.776,3.148.36,6.208,1.487,9.672,2.351L76.592,17.213c4.976.443,9.389.994,13.819,1.2Z" transform="translate(13.81 -0.615)"/><path class="b" d="M185.275,119.374,178.9,128.3l-.478-.339L184.751,119l.524.372" transform="translate(13.81 -0.615)"/><path class="b" d="M44.2,83.036C28.927,88.548,13.154,92.707-.887,101.2,12.743,91.638,28.487,87.317,44.2,83.036" transform="translate(13.81 -0.615)"/><path class="b" d="M-5.252,89.283C7.271,82.748,20.426,78,34.523,73.953L-5.252,89.283" transform="translate(13.81 -0.615)"/><path class="b" d="M37.427,65.671-2.523,80.393c-.078-.212-.155-.423-.232-.635l39.889-14.7.293.617" transform="translate(13.81 -0.615)"/></g></svg>