<svg xmlns="http://www.w3.org/2000/svg" width="370.394" height="197.517" viewBox="0 0 370.394 197.517"><defs><style>.a{opacity:0.799;}.b{fill:#152c43;fill-rule:evenodd;}</style></defs><g class="a"><path class="b" d="M276.422,161.757l-8.61-3.172c-.745,3.627-.15,5.394,2.286,5.966C274.947,165.69,273.99,166.725,276.422,161.757Zm54.6,36.658c-11.109-1.549-21.041-6.309-30.841-11.384-5.433-2.814-10.951-5.52-16.126-8.761-6.579-4.122-12.85-8.736-19.253-13.137.106-.253.213-.507.319-.761l1.056-.077c-.177-2.087-.355-4.175-.531-6.23-10-5.967-20.86-10.411-31.911-14.375-5.389-1.932-11.052-1.15-16.583-.465-5.906.729-11.75,2.316-17.662,2.566a141.881,141.881,0,0,1-39.052-4.252c-6.161-1.471-12.463-2.326-18.663-3.645-9.164-1.952-17.678-5.582-26.261-9.365-11.578-5.1-23.023-10.78-35.527-13.581a18.267,18.267,0,0,1-11.363-7.964c-.088-.13.045-.409.069-.614a6.491,6.491,0,0,1-.957-1.23,85.985,85.985,0,0,0-12.45-18.831,48.586,48.586,0,0,1-3.718-4.641c-4.42-6.861-8.722-13.8-13.122-20.674a5.424,5.424,0,0,0-2.04-1.973c-3.177-1.506-6.431-2.846-9.656-4.251a14.1,14.1,0,0,0-11.777.355c-3.089,1.367-4.646,4.827-3.015,7.331,2.021,3.1,4.169,6.314,6.944,8.678,5.972,5.089,12.4,9.639,18.6,14.461,3.908,3.038,7.577,6.413,11.654,9.195,5.734,3.913,11.74,7.43,17.656,11.071a6.609,6.609,0,0,0,1.895.481c-1.071-.007-2.349.369-3.181-.081-5.7-3.082-11.623-5.891-16.862-9.642-7.479-5.356-14.421-11.462-21.624-17.207-2.144-1.71-4.332-3.379-6.609-4.9A29.575,29.575,0,0,1,9.619,60.729c.643-3.946,2.657-6.742,6.624-7.9a15.949,15.949,0,0,1,12.445,1.05c2.381,1.26,4.928,2.2,7.852,3.489-1.621-3.14-1.525-5.9.146-8.5-3.6-.866-7.073-1.708-10.548-2.534-2.674-.636-5.329-1.4-8.035-1.845-5.269-.873-10.049.188-13.887,4.169C1.209,51.778,1.684,55.948,5.3,58.215c1.421.89,2.915,1.665,4.376,2.491-.619.195-1.35.7-1.841.532C4.921,60.213,1.969,59.01.958,55.73a7.754,7.754,0,0,1,2.3-8.166c5.6-5.542,12.384-5.845,19.449-4.1,4.447,1.1,8.758,2.737,13.157,4.042a3.938,3.938,0,0,0,2.769.071c6.8-4.3,13.788-2.155,19.418,3.1a13.776,13.776,0,0,1,2.133,2.07c2.492,3.653,6.279,4.243,10.263,4.924,5.029.858,9.977,2.227,14.916,3.539a7.92,7.92,0,0,1,4.019,2.081c2,2.466,4.445,1.941,7.024,1.96,7.764.06,15.424.867,22.54,4.351.887.433,1.71,1,2.712,1.589,2.926-3.094,5.626-6.886,10.982-5.295-7.3,1.806-10.1,8.034-14.041,13.422l2.359-7.6c-4.484-1.213-8.9-2.683-13.421-3.551-4.256-.817-8.65-.884-12.948-1.518a21.337,21.337,0,0,1-5.066-1.771c-2.378-1.018-4.6-2.536-7.065-3.192-5.492-1.464-11.09-2.527-16.646-3.753l-.36.615c3.206,4.143,6.4,8.295,9.636,12.415a4.193,4.193,0,0,0,1.446,1.1A29,29,0,0,1,89.483,84.922a3.337,3.337,0,0,0,2.065,1.39C96.854,87.42,102.2,88.327,107.5,89.47a7.947,7.947,0,0,1,5.5,3.863L91.165,87.784a3.312,3.312,0,0,0,2.974,3.232c5.373,1.177,10.421,3.108,14.308,7.248a6.326,6.326,0,0,1,1.392,2.392c-5.725-4.236-11.592-8.032-18.944-8.866l-3.632,7.324-.408-.206c1.008-2.292,2.073-4.56,2.984-6.889a3.113,3.113,0,0,0,.009-2.179c-3.111-6.961-7.05-13.238-14.3-16.671a7.972,7.972,0,0,1-1.517-1.009,8.5,8.5,0,0,1-.879-.869l-6.7,8.067c-.157-.13-.313-.262-.47-.393,1.754-2.374,3.491-4.762,5.268-7.118a2.063,2.063,0,0,0-.121-2.992C69.185,66.509,67.422,64,65.6,61.55A57.817,57.817,0,0,0,52.68,48.709a11.247,11.247,0,0,0-14.493,1.377c-1.455,1.565-1.2,3.505-.37,5.17,1.693,3.412,3.566,6.739,5.482,10.034,2.917,5.018,5.71,10.131,8.967,14.924C55.993,85.7,60.205,90.852,64.131,96.2a26.309,26.309,0,0,1,3.5,5.625,18.906,18.906,0,0,0,14.25,12.093c9.91,2.2,18.582,7.513,28.034,10.714,4.959,1.678,9.211,4.678,14.234,6.07,5.15,1.427,10.091,3.808,15.309,4.76,15.326,2.8,30.741,5.115,46.129,7.577,10.266,1.643,20.4.414,30.542-1.331,7.851-1.351,15.569-1.119,23.165,2.128,7.579,3.24,15.364,5.931,22.557,10.1,4.736,2.747,9.873,4.8,14.89,7.195,8.546-9.141,33.22-62.53,35.344-76.5-5.4-3.439-10.71-6.875-16.076-10.215a180.75,180.75,0,0,0-25.281-13.465,126.4,126.4,0,0,1-36.766-24.209c-7.047-6.5-15.1-11.915-22.654-17.87-3.354-2.643-6.326-5.887-9.959-8.033-7.258-4.288-15.016-6.477-23.707-4.572-7.763,1.7-15.682.663-23.522-.043C142.1,5.151,130.1,3.948,118.079,2.956a22.24,22.24,0,0,0-6.35.734c-3.466.746-4.84,2.982-4.768,6.492.089,4.333,2.193,7.43,5.587,9.713,8.91,5.991,18.863,9.352,29.345,11.3a5.991,5.991,0,0,0,1.128,0c-.471-4.539-.934-9-1.4-13.461l.449-.04Q142.9,23,143.723,28.3l.895-.046c.5-4.5,1.007-9,1.566-13.988a25.383,25.383,0,0,1-1.135,13.285,26.28,26.28,0,0,0-.7,3.893l23.212.829c1.527-4.959,2.945-9.675,4.459-14.361a3.507,3.507,0,0,1,1.794-1.826,23.4,23.4,0,0,0-1.376,3.829c-.863,4.805-1.754,9.615-2.3,14.462a15.891,15.891,0,0,1-6.366,11.44c-3.909,3-4.89,7.576-2.263,11.829,3.864,6.26,8.882,11.54,15.528,14.887,4.909,2.472,10.053,4.479,13.228,5.873a51.088,51.088,0,0,1-26.827-16.055c-4.152-4.761-5.139-8.99-3.266-14.249-5.934.628-12.013,1.192-18.068,1.942-4.379.543-7.65,3.372-10.906,6-.951.766-1.308,2.352-1.763,3.623a30.588,30.588,0,0,0-.838,3.525l-.9-.145a21.413,21.413,0,0,1,.756-4.907c.622-1.577,1.873-2.907,3.035-4.618-5.564-.377-10.874-.627-16.159-1.125a48.911,48.911,0,0,0-16.123,1.5,3.306,3.306,0,0,0-1.789,1.432,19.742,19.742,0,0,1-2,3.346c.536-1.941,1.071-3.881,1.767-6.4-4.778-.392-9.3-.858-13.841-1.11-4.491-.249-8.993-.282-13.581-.412l-.84,1.911c.191-2.579-1.455-3.343-3.465-3.7-2.909-.518-5.828-.974-8.728-1.605a20.462,20.462,0,0,1,11.56.959,12.064,12.064,0,0,0,3.724.84c7.385.5,14.873.341,22.127,1.574,3.855.656,7.318.316,11.053.13,6.749-.336,13.549.331,20.327.6a16.556,16.556,0,0,1,1.816.255c3.185.481,6.033.534,9.021-1.622,4.26-3.072,9.613-2.554,14.633-2.877,1.979-.128,3.96-.3,5.92-.589,2.431-.356,4.563-1.3,5.8-3.793l1.121,1.011a15.625,15.625,0,0,0,4.085-9.721c-2.722-.036-5.308.005-7.886-.119-6.922-.332-13.962-.059-20.732-1.269a65.878,65.878,0,0,1-27.922-11.678A13.925,13.925,0,0,1,105.415,9.96c-.206-4.487,1.706-7.323,6.11-8.328,5.615-1.281,11.25-.6,16.885-.111,13.62,1.166,27.237,2.393,40.87,3.4a32.417,32.417,0,0,0,8.866-.685C188.906,2,198.1,5.49,206.418,11.859c8.365,6.4,16.554,13.044,24.738,19.68,4.623,3.749,9.018,7.779,13.631,11.541,8.351,6.809,17.732,11.9,27.364,16.675,8.2,4.06,16.074,8.79,24.082,13.24,3.138,1.744,6.252,3.532,9.4,5.316,3.157-3.373,3.927-7.526,4.094-11.367.748-.423,1.171-.678,1.61-.906.709-.367,1.578-1.178,2.118-1,10.689,3.494,21.388,6.975,31.978,10.759,3.867,1.382,7.427,3.607,11.185,5.322,2.571,1.173,5.245,2.119,7.862,3.193.312.127.556.422.633,1.076-2.7-.883-5.609-1.389-8.075-2.714-11.073-5.951-23.074-9.4-34.869-13.444-3.168-1.083-6.166-2.663-8.721-3.785-2.013,4.583-3.879,8.739-5.634,12.94a2.062,2.062,0,0,0,.3,1.887,54.175,54.175,0,0,0,4.747,2.879c.212-3.431.406-6.436.579-9.443.071-1.218.1-2.437.148-3.656.074-1.773.925-1.945,2.424-1.343q20.658,8.291,41.349,16.5c3.6,1.431,7.24,2.766,11.1,4.236-.168-1.439-.3-2.6-.484-4.14,3.47.983.767,4.622,3,5.841-19.479-4.911-37.618-13.273-55.838-21.566,1.086,9.74-1.67,18.629-4.908,27.252-7.029,18.727-15.766,36.719-24.971,54.456-3,5.779-7.091,10.993-10.684,16.465l-.448-.9-4.4-.862c-.1.209-.2.418-.3.627,3.357,2.32,6.574,4.883,10.1,6.917,13.048,7.534,25.924,15.441,40.261,20.431,3.822,1.33,7.731,2.41,11.6,3.605q-.184.42-.37.841Z" transform="translate(-0.588 -0.898)"/><path class="b" d="M115.015,94.006c2.006-8.651,9.888-15.911,14.994-13.875-7.128,2.451-10.985,8.228-14.994,13.875" transform="translate(-0.588 -0.898)"/><path class="b" d="M321.783,84.906c1.436-.784,3.048-1.175,3.182-1.854.194-.99-.549-3.038-1.121-3.125-1.236-.188-2.616.586-3.938.967C320.441,82.038,320.978,83.184,321.783,84.906Zm5.007-1.518a4.148,4.148,0,0,1-5.035,1.993c-2-.77-3.609-3.985-2.815-5.631.807-1.67,4.038-2.811,5.764-2.034a4.656,4.656,0,0,1,2.086,5.672Z" transform="translate(-0.588 -0.898)"/></g></svg>