<svg xmlns="http://www.w3.org/2000/svg" xmlns:xlink="http://www.w3.org/1999/xlink" width="581.396" height="374" viewBox="0 0 581.396 374"><defs><style>.a,.ak,.w,.z{isolation:isolate;}.b{fill:url(#a);}.c{fill:#152c43;}.d{fill:#3566b8;}.e{fill:#f48c7f;}.f{fill:#f7a491;}.g{fill:#184655;}.h{fill:#13375b;}.i{fill:#2ea794;}.j{fill:#35b8a4;}.al,.am,.k{fill:#fff;}.l{fill:#f47458;}.m{fill:#ea5784;}.n{fill:#5f6368;}.o{fill:#1f4c98;}.p{fill:#219684;}.q{fill:#20110c;}.r{fill:#ff7446;}.s{fill:#271798;}.t{fill:#001c41;opacity:0.38;}.u{fill:#838fbb;}.v{fill:#7580ac;}.w{fill:#001653;opacity:0.18;}.ak,.w,.z{mix-blend-mode:multiply;}.x{fill:#e88a7b;}.y{fill:#96a1c9;}.ak,.z{fill:#f26e5a;}.z{opacity:0.65;}.aa{fill:#f7958b;}.ab{fill:#f7887d;}.ac{fill:#6235b8;}.ad{fill:#9cb9bd;}.ae{fill:#021753;}.af{fill:#c34bb9;}.ag{fill:#ce73c7;}.ah{fill:#f7cc7f;}.ai{fill:#db9044;}.aj{fill:#f99662;}.ak{opacity:0.4;}.al{opacity:0;}.am{opacity:0.003;}</style><linearGradient id="a" y1="0.5" x2="1" y2="0.5" gradientUnits="objectBoundingBox"><stop offset="0" stop-color="#bce3f1"/><stop offset="1" stop-color="#d0f7ff"/></linearGradient></defs><g class="a" transform="translate(-117.972 -64.088)"><g transform="translate(117.972 64.088)"><g transform="translate(0 0)"><path class="b" d="M920.738,614.764c-62.71-105.527-57.185-25.526-163.472-160.174C695.143,408.13,609.882,614.962,563.538,607.536,497.5,596.952,489.668,541,413.2,587.831c-19.112,11.7-31.694,35.949-38.779,71.029-7.437,36.815,10.318,85.475,10.318,85.475H924.615C941.242,703.94,927.643,631.118,920.738,614.764Z" transform="translate(-364.142 -384.122)"/><path class="c" d="M271.862,1825.84H853.256v1.524c0,6.773-4.862,12.263-10.859,12.263H282.719c-6,0-10.859-5.49-10.859-12.263v-1.524Z" transform="translate(-271.86 -1465.627)"/><rect class="d" width="88.051" height="45.195" rx="22.597" transform="translate(302.69 67.073) rotate(180)"/><path class="d" d="M1528.77,494.06l-26.79,23.752,5.854-24.5Z" transform="translate(-1250.784 -432.226)"/><path class="e" d="M2506.709,777.225l-1.445-6.609a28.112,28.112,0,0,0-7.529,7.327c-2.775,4.31-4.093,15.8-4.885,16.232s-9.567-13.087-11.1-15.22c-1.9-2.635-2.606-5.661-3.794-7.96s-5.374-3.08-6.959-2.793,2.178,7.011,2.178,7.011,9.509,16.52,12.679,25.571,13.073,13.359,14.658,12.066S2506.709,777.225,2506.709,777.225Z" transform="translate(-2001.97 -645.367)"/><path class="f" d="M2479.753,775.553s-.4-1.74-1.464-2.094a7.475,7.475,0,0,0-3.043,0,21.309,21.309,0,0,1-2.176-1.069l1.7,3.163s3.32,3.915,4.427,2.451S2479.753,775.553,2479.753,775.553Z" transform="translate(-2003.881 -648.658)"/><path class="e" d="M2467.161,773s-1.2,6.1-.9,7.379,1.068.6,1.212.317a24.107,24.107,0,0,0,1-5.06Z" transform="translate(-1998.565 -649.131)"/><path class="e" d="M2474.314,789.265s-.572,3.785-1.16,4.229c-.382.29-.869.119-1.028-.644a37.542,37.542,0,0,1,.766-5.43Z" transform="translate(-2003.136 -660.314)"/><path class="g" d="M2470.882,780.211l1.989-.97-8.452-17.341h0a2.214,2.214,0,0,0-1.021,2.959Z" transform="translate(-1996.208 -640.523)"/><path class="h" d="M2587.853,600.536c-1.192-5.424-2.361-10.881.783-16.836a15.3,15.3,0,0,1,12.039-8.2c14.43-1.713,11.346,11.756,31.511,14.672,6.267.9,12.089,1.778,17.321,4.894,9.446,5.628,13.019,14.656,6.748,29.362-15.341,36.011-53,5.439-57.648-1.652C2595.144,617.5,2588.621,604.027,2587.853,600.536Z" transform="translate(-2091.939 -495.852)"/><path class="f" d="M2818.37,1700.85s1.028,10.432,3.668,12.347,6.167,9.013,4.4,12.829a4.424,4.424,0,0,1-2.9,2.276,7.7,7.7,0,0,1-9.24-4.328,21.966,21.966,0,0,1-1.812-7.956c-.4-8.476-3.037-12.8-3.037-12.8Z" transform="translate(-2264.75 -1368.695)"/><path class="f" d="M2580.963,1719.87s-.832,10.526-.157,13.947c.362,1.832,2.377,5.612,1.452,7.327a4.7,4.7,0,0,1-1.98,2.155l-23.959.4c-1.3.023-.449-.817.611-1.589,1.722-1.264,3.112-2.1,8.614-4.755.359-.173,1.665-1,2.137-1.289a16.616,16.616,0,0,0,3.426-3.022c1.721-1.912,1.872-11.182,1.872-11.182Z" transform="translate(-2067.932 -1383.446)"/><path class="i" d="M2579.094,1087.432s-3.018,17.092-1.035,28.285,11.489,115.063,11.489,115.063l10.567.595s2.213-43.383,1.818-49.415-3.533-16.131-3.533-16.131l1.053-35.019-13.334-46.019Z" transform="translate(-2084.78 -890.93)"/><path class="j" d="M2620.668,1067.118s8.319,12.5,10.3,22.841-1.454,42.129,2.355,55.672c2.063,7.338,9.877,18.668,11.072,28.15s5.85,34.314,5.85,34.314l-10.551,2.09-24.545-62.022L2595.9,1092.1l-4.938-28.873Z" transform="translate(-2095.308 -874.21)"/><path class="k" d="M2608.063,763.79s7.285.828,11.644,5.567-7.044,42.847-7.836,48.881,6.491,20.107,6.491,20.107-27.222,5.031-34.619.146c0,0-.793-43.383,0-47.693s7.4-21.835,8.979-23.57S2608.063,763.79,2608.063,763.79Z" transform="translate(-2089.438 -641.988)"/><path class="f" d="M2536.205,795.591a3.817,3.817,0,0,0-5.163-2.258c-2.813,1.217-6.7,3.524-8.593,7.48-3.17,6.607-14.264,29.306-17.7,30.166s-17.434-23.559-17.434-23.559.4-4.308-.792-6.75-4.752-5.028-5.282-4.166,1.983,3.017,1.983,3.448-1.058.718-2.51-.144a6.568,6.568,0,0,1-2.245-2.606s-2.381,4.33.128,8.207,3.565,5.459,3.565,5.459,16.243,36.059,22.188,36.49C2509.9,847.759,2541.775,812.405,2536.205,795.591Z" transform="translate(-2007.278 -664.645)"/><path class="f" d="M2642.97,697.5s.056.326.159.876c.491,2.642,2.382,11.41,3.66,13.821,1.545,2.918-5.286,12.2-11.861,11.069-1.955-.337,1.654-8.53,1.482-9.4-.332-1.663-.783-3.931-1.244-6.256-.261-1.311-.523-2.642-.771-3.893-.7-3.551-1.277-6.458-1.277-6.458Z" transform="translate(-2128.003 -590.393)"/><path class="l" d="M2643.09,698.38c-.1-.55-.16-.876-.16-.876l-9.851-.245s.573,2.918,1.277,6.458c.245,1.244.507,2.566.765,3.87a9.315,9.315,0,0,0,4.714-2.353,12.4,12.4,0,0,0,3.551-5.289C2643.267,699.325,2643.163,698.791,2643.09,698.38Z" transform="translate(-2127.973 -590.393)"/><path class="f" d="M2615.639,594.041a11.63,11.63,0,0,1,6.93,4.312c2.918,3.758,6.048,15.375-1.183,21.692s-14.367-.833-15.433-8.414S2605.106,593.768,2615.639,594.041Z" transform="translate(-2106.607 -510.341)"/><path class="f" d="M2594.97,646.568c.862,1.675,2.313,2.6,3.235,2.07s.974-2.317.113-3.991-2.312-2.6-3.237-2.072S2594.109,644.894,2594.97,646.568Z" transform="translate(-2097.94 -547.868)"/><path class="h" d="M2645.11,592.866s6.2,11.049,10.64,11.559,5.022,6.382,5.022,6.382-1.588-13.527-5.981-16.136A16.356,16.356,0,0,0,2645.11,592.866Z" transform="translate(-2137.302 -509.344)"/><path class="f" d="M2685.73,645.719c-.362,1.962.366,3.76,1.62,4.018s2.568-1.122,2.919-3.087-.363-3.76-1.621-4.018S2686.091,643.758,2685.73,645.719Z" transform="translate(-2168.732 -548.005)"/><path class="j" d="M2827.85,1778.889c5.756,1.046,9.585-2.315,11.577-4.829,1.463,2.849,2.362,6.407,1.284,8.755-.947,2.063-3.526,2.626-5.708,2.707a6.19,6.19,0,0,1-5.612-3.125A19.017,19.017,0,0,1,2827.85,1778.889Z" transform="translate(-2279.021 -1425.471)"/><path class="j" d="M2561.729,1790.094a21.733,21.733,0,0,0,13.639-.534c.674,1.91,1.571,4.308,1.1,5.691-.581,1.693-1.409,2.074-2.141,2.094-5.788.15-21.2.357-25.613.415a.721.721,0,0,1-.562-1.183C2549.245,1795.271,2561.257,1790.382,2561.729,1790.094Z" transform="translate(-2061.977 -1437.492)"/><rect class="d" width="71.033" height="36.458" rx="18.229" transform="translate(511.525 53.24) rotate(180)"/><path class="d" d="M2515.252,435.97l6.914,20.744L2502.05,435.97Z" transform="translate(-2026.357 -387.758)"/><path class="k" d="M2568.79,371.88a3.565,3.565,0,1,0,3.558-3.32A3.444,3.444,0,0,0,2568.79,371.88Z" transform="translate(-2079.242 -336.48)"/><path class="k" d="M2487.77,371.88a3.566,3.566,0,1,0,3.558-3.32A3.445,3.445,0,0,0,2487.77,371.88Z" transform="translate(-2015.228 -336.48)"/><path class="k" d="M2406.76,371.88a3.567,3.567,0,1,0,3.558-3.32A3.446,3.446,0,0,0,2406.76,371.88Z" transform="translate(-1951.404 -336.48)"/><rect class="m" width="84.033" height="43.132" rx="21.566" transform="translate(93.268 4.281)"/><path class="m" d="M889.46,405.9l-8.18,24.54,23.8-24.54Z" transform="translate(-769.42 -364.438)"/><path class="k" d="M879.258,330.078a4.219,4.219,0,1,1-4.209-3.928A4.075,4.075,0,0,1,879.258,330.078Z" transform="translate(-758.276 -303.591)"/><path class="k" d="M975.1,330.078a4.219,4.219,0,1,1-4.209-3.928A4.075,4.075,0,0,1,975.1,330.078Z" transform="translate(-835.602 -303.591)"/><path class="k" d="M1070.918,330.078a4.219,4.219,0,1,1-4.209-3.928A4.076,4.076,0,0,1,1070.918,330.078Z" transform="translate(-912.912 -303.591)"/><path class="e" d="M1905.162,927.424c4.456-1.284,4.575-.489,5.141-.673.673-.213,6.061-7.516,6.061-7.516s16.044-21.4,16.865-22.592l5.062-27.692,15.2-.121s-6.35,29.908-6.97,31.387-26.04,27.622-28.2,30c0,0-1.392,3.863-2.35,6.254s-3.015,4.137-3.4,4.759a20.63,20.63,0,0,1-3.909,4.018c-2.107,1.668-.994-.929-.994-.929s3.266-3.832,2.882-4.059c-.294-.177-1.939,2.021-4.252,3.9-.593.483-1.183.956-1.726,1.385-1.43,1.122-2.642.53-1.365-.9a16.3,16.3,0,0,1,1.87-1.825,14.32,14.32,0,0,0,1.637-1.823,17.539,17.539,0,0,0,1.672-1.888c-.074-.02-.067-.395-.716.1a41.766,41.766,0,0,1-3.343,3c-.7.449-2.083,1.448-2.083,1.448a14.967,14.967,0,0,1-2.557.992c-.7-.674.691-1.9,1.728-2.371a11.144,11.144,0,0,1,1.962-1.661s2.469-2.766,2.043-3.143c-.184-.164-1.933,1.333-3.911,2.519-1.836,1.1-3.906,1.9-4.223,1.558-.536-.579,1.347-2.02,1.347-2.02s1.383-.938,1.814-1.286c.505-.409,1.908-1.753,1.908-1.753s4.642-4.923,4.2-5.257a3.748,3.748,0,0,0-2.288-.586c-.408.2-.916.959-1.324,1.156a1.278,1.278,0,0,1-1.486-.393c-.339-.492,1.174-2.216,1.174-2.216A6.771,6.771,0,0,1,1905.162,927.424Z" transform="translate(-1557.278 -723.449)"/><path class="f" d="M1998.9,1748.75s.539,9.556.543,9.574c.2,1.214.981,4.212.981,5.313,0,4.144-18.433-3.515-14.3-5.351.375-.166,2.332-1.423,2.456-2.833.188-2.173.674-6.568.674-6.568Z" transform="translate(-1625.78 -1405.843)"/><path class="n" d="M1935.566,1790.461a66.172,66.172,0,0,0,6.546,1.585c2.218.317,5.139-2.35,6.705-1.632,1.726.795,1.551,8.6,1.551,8.6s-23.1,1.363-29.632-.741C1918.155,1797.445,1926.719,1793.413,1935.566,1790.461Z" transform="translate(-1575.175 -1438.058)"/><path class="f" d="M2179.773,1752.83s.541,9.556.543,9.576c.2,1.212.983,4.209.983,5.314,0,4.142-18.435-3.518-14.3-5.354.375-.167,2.918-2.362,3.037-3.772.191-2.173.09-5.63.09-5.63Z" transform="translate(-1766.048 -1409.007)"/><path class="n" d="M2114.373,1794.546a66.338,66.338,0,0,0,6.543,1.585c2.215.316,5.138-2.351,6.707-1.63,1.724.793,1.8,7.933,1.8,7.933s-24.693,1.8-30.5.108C2096.3,1801.788,2105.524,1797.5,2114.373,1794.546Z" transform="translate(-1713.369 -1441.227)"/><path class="o" d="M2012.371,1138.39l-7.794,3.367-16.388,78.288.674,58.688,13.141.305s6.112-51.337,6.112-55.317,28.293-69.628,28.293-69.628Z" transform="translate(-1627.848 -932.497)"/><path class="d" d="M2122.71,1148.527s5.74,60.318,5.74,70.487,4.651,67.073,4.651,67.073l13.173-.076s.952-17.346,2.364-42.863c.225-4-.285-12.061,0-16.2,2.049-29.757,6.1-57.771,4.166-68.875-.312-1.8-.9-6.461-2.039-7.633C2142.144,1141.51,2122.71,1148.527,2122.71,1148.527Z" transform="translate(-1732.172 -938.327)"/><path class="p" d="M2051.13,799.427l15.938-1.069s.788-14.248.788-21.045c0-8.245,2.512-20.4,1.531-20.174-2.759.64-7.511,3.181-9.728,6.252C2052,774.052,2051.13,799.427,2051.13,799.427Z" transform="translate(-1676.66 -636.828)"/><path class="j" d="M2087.755,754.228s9.089,1.264,11.482,3.019c2.694,1.98,5.684,6.407,5.684,6.407s-11.159,52.753-11.179,61.632c-.016,6.867,2.415,23.73,2.415,23.73s-33.724,2.128-46.5-2.919c0,0,4.041-20.055,4.041-25.321s4.824-53.153,5.922-56.5c1-3.033,2.817-8.485,8.979-9.83S2087.755,754.228,2087.755,754.228Z" transform="translate(-1675.52 -634.231)"/><path class="f" d="M2162.612,689.463l2.245,14.73s-8.216,17.541-13.121,16.019c-4.115-1.277-1.572-16.8-1.572-16.8s2.245-8.335,1.572-12.506S2162.612,689.463,2162.612,689.463Z" transform="translate(-1752.86 -583.669)"/><path class="l" d="M2158.833,690.911c-.674-4.171,10.886-1.448,10.886-1.448l.186,1.221a6.788,6.788,0,0,1-1.252,2.054,15.257,15.257,0,0,1-10.1,4.541A23.022,23.022,0,0,0,2158.833,690.911Z" transform="translate(-1759.966 -583.669)"/><path class="f" d="M2148.56,583.745c.325-.119,2.617,16.778-1.731,21.427s-12.823,6.171-15.862,2.51c-3.368-4.041-3.193-22.21,3.569-26.992S2148.56,583.745,2148.56,583.745Z" transform="translate(-1736.911 -498.792)"/><path class="h" d="M2145.46,545.409a18.8,18.8,0,0,1,9.856,5.583c2.373.278,5.6,1.571,8.927,7.06,4.1,6.734,1.071,14.2-3.7,17.86s-4.714,7.911-4.714,7.911l-.741-2.209a12.117,12.117,0,0,1-.6-5.152,10.065,10.065,0,0,1,.77-3.1c1.147-2.445-2.469-4.07-3.475-6.1-.779-1.571-.817-5.163-2.045-7.74l-1.466-1.978s-3.382-2.615-6.691-1.877S2138.755,544.051,2145.46,545.409Z" transform="translate(-1745.263 -472.549)"/><path class="f" d="M2194.937,643.734c-.034,2.061.9,3.749,2.108,3.769s2.2-1.634,2.231-3.7-.909-3.749-2.105-3.769S2194.972,641.674,2194.937,643.734Z" transform="translate(-1788.184 -546.018)"/><path class="h" d="M2017.136,974.38l-.224,1.257a1.189,1.189,0,0,1-1.376.97l-26.06-4.514a1.19,1.19,0,0,1-.968-1.376l.225-1.257a1.189,1.189,0,0,1,1.373-.97l26.067,4.517A1.187,1.187,0,0,1,2017.136,974.38Z" transform="translate(-1628.082 -800.723)"/><path class="f" d="M2082.544,786c-3.059-.09-5.764,20.084-3.816,22.073s2.307,26.839,2.307,26.839l-28.85-.716h0c-.564-.377-6.607-4.436-7.471-5.325-.9-.929-5.311-.465-6.479.815s2.593.224,3.627.932-.777,2.443-.777,2.443-7.311,1.062-8.736-.449-5.233-4.072-5.751-2.559c-.267.779,1.7,3.143,2.8,4.137-1.381-1.035-3.033-2.132-3.592-1.942-1.035.35-.6,1.668-.042,2.056s6.366,4.82,7.273,5.13,14.387.637,16.719,1.154c0,0,38.048,8.663,40.21,8.124,1.9-.476,3.8-12.654,3.8-21.981S2092.1,786.277,2082.544,786Z" transform="translate(-1656.535 -659.211)"/><path class="j" d="M2248.195,765.51s5.323,1.226,10.821,7.408c5,5.612,8.151,37.082,8.151,37.082l-17.265,2.79-1.378-15.22-4.613-6.959Z" transform="translate(-1826.165 -643.322)"/><path class="q" d="M1193.377,609.287s-14.125-3.628-15.808,11.4,5.96,17.364,1.814,24.619-8.811,1.814-9.718,22.414,46.342,45.628,58.785,33.4c40.456-39.763-7.552-55.961-5.612-68.141s-3.609-22.518-11-26.922S1195.061,601.641,1193.377,609.287Z" transform="translate(-993.058 -517.348)"/><path class="r" d="M1451.84,1767.765s-.258,3.917,1.74,6.146,9.428,3.408,10.423,5.942-7.484,2.694-10.326,1.915-10.259-1.387-12.122-1.488,2.384-12.425,2.764-12.766S1451.84,1767.765,1451.84,1767.765Z" transform="translate(-1203.558 -1420.312)"/><path class="r" d="M1260.356,1758.16s1.839,8.274,1.666,11.468-4.063,8.149-7.051,7.985-5.462-2.157-4.735-6.046,2.992-13.127,2.992-13.127Z" transform="translate(-1055.453 -1413.141)"/><path class="d" d="M1176.247,884.823s-1.906-63.028,1.086-66.02c1.2-1.2,11-4.433,17.689-5.533a78.584,78.584,0,0,1,17.864-.941s10.207,12.232,10.207,16.773.654,56.208.654,56.208c7.9,2.918,20.127,55.249,21.043,68.734s-1.067,76.207-1.067,76.207l-11.5-1.248c-6.285-9.85-9.112-61.732-10.948-68.184-2.532-8.91-14.43-36.2-14.43-36.2l-6.126-2.671s1.419,41.13.9,50.609.072,55.4.072,55.4l-11.541-.631c-9.036-16.2-15.489-90.96-15.265-94.877s-3.776-10.326-4.611-21.55C1169.6,902.063,1176.247,884.823,1176.247,884.823Z" transform="translate(-993.5 -679.514)"/><rect class="k" width="20.468" height="2.166" transform="translate(223.409 205.857) rotate(180)"/><rect class="s" width="6.573" height="3.574" rx="1.787" transform="translate(216.585 206.725) rotate(180)"/><path class="t" d="M1180.107,891.54s-1.693-55.972.617-64.927c3-2.02,12.526-5.59,14.861-5.774-.424,4.6,3.751,30.487,8.037,43.774,2.694,8.391,2.3,18.684,1.281,26.684h0a109.224,109.224,0,0,1-2.734,13.978c-.247.074-6.6,3.484-17.637,3.484-.474-.025-4.609-.3-9.332-1.037A129.5,129.5,0,0,1,1180.107,891.54Z" transform="translate(-997.36 -686.232)"/><path class="t" d="M1348.1,899.628c-.242-.8,1.634-9.9,2.223-14.6h0c3.881-31.52.386-71.664.334-72.283h0c.225.224.9.983,1.8,2.058,2.739,3.491,7.989,10.571,8.517,14.176,0,.108.016.225.016.317v.119c0,.57.011,1.7.025,3.268,0,.3.016.622.036.952.13,13.292.622,52.127.622,52.127,2.552.941,5.554,7.037,8.483,15.316C1360.649,901.657,1348.769,901.83,1348.1,899.628Z" transform="translate(-1131.427 -679.95)"/><path class="u" d="M1147.29,899.052c-.018,7.9,21.256,8.461,31.369,3.922l-1.1-34.258-3.469-48.8s-12.782,2.537-17.132,5.5c0,0-1.412,50.733-2.649,61.048S1147.3,895.449,1147.29,899.052Z" transform="translate(-975.716 -685.518)"/><path class="v" d="M1370.995,815.515s4.993,40.407,4.993,50.921,1.993,28.684,1.993,28.684-10.775,4.126-18.281,2.27c0,0,7.136-40.523,7.136-43.17s-7.235-41.5-7.235-41.5S1366.472,813.088,1370.995,815.515Z" transform="translate(-1140.366 -679.934)"/><path class="u" d="M1438.179,1769.418l13.961.909.018-3.611-14.537-.795Z" transform="translate(-1200.872 -1419.159)"/><path class="u" d="M1249.9,1759.1l13.846.907.081-3.6-14.537-.795Z" transform="translate(-1054.819 -1411.17)"/><path class="c" d="M1442.371,1792.94c1.1,1.392,4.694,4.24,15.208,2.981,2.736,1.1,5.837,2.155,6.454,3.729,1,2.534-7.484,2.694-10.326,1.915s-10.259-1.387-12.122-1.488C1440.575,1800.02,1441.372,1796.336,1442.371,1792.94Z" transform="translate(-1203.584 -1440.113)"/><path class="c" d="M1262.022,1793.166c-.175,3.194-4.063,8.148-7.051,7.984s-5.462-2.157-4.735-6.045c.247-1.308.673-3.224,1.122-5.188.382,2.424,1.509,6.553,4.7,5.123,3.453-1.544,4.977-5.132,5.583-6.53A27.429,27.429,0,0,1,1262.022,1793.166Z" transform="translate(-1055.453 -1436.677)"/><path class="w" d="M1386.824,1099.88c-4.04-.2-9.174-.465-14.234-.714.3-1.75.61-3.553.918-5.356l12.935.687C1386.555,1096.286,1386.685,1098.118,1386.824,1099.88Z" transform="translate(-1150.44 -897.925)"/><path class="w" d="M1201.468,1095.868h-.07c-3.143,0-15.352,3.333-19.79,3.333a8.6,8.6,0,0,1-4.2-1.091.73.73,0,0,1,.022-.114q.132-.72.224-1.538c.031-.263.063-.555.094-.871.159-1.529.278-3.257.386-4.887h23.155Z" transform="translate(-999.074 -895.513)"/><path class="u" d="M1298.325,825.56s3.776.795,9.107,18.657,1.8,40.808-1.89,43.19-39.406,1.5-39.406,1.5l-.137-12.87s27.045-4.227,29.723-7.511c.658-.806-.471-4.265-.236-8.194C1296.2,848.262,1298.325,825.56,1298.325,825.56Z" transform="translate(-1067.777 -689.892)"/><path class="x" d="M1404.08,983.069a33.211,33.211,0,0,0,5.084-4.247c1.39-1.7,4.166-3.993,4.29-2.779s-1.15,2.963-1.15,2.963,5.051-3.527,5.72-2.981,1.333,4.326.866,8.5-12.308,7.215-12.308,7.215Z" transform="translate(-1174.861 -806.33)"/><path class="y" d="M1166.347,905.517c12.883,2.151,40.068-7.424,51.094-10.887l-4.133-14.3s-32.469,8.979-36.725,7.073c-2.1-.945-7.49-10.944-9.469-21.115a108.218,108.218,0,0,1-1.52-21.887s-9.327,12.2-6.7,38.034C1160.9,902.146,1160.679,904.572,1166.347,905.517Z" transform="translate(-984.355 -704.503)"/><path class="x" d="M1186.864,976.212s3.042,2.575,5.412,4.507,6.09,7.13,6.09,7.13-4.411,1.048-5.958,1.205-6.629-2.671-8.4-2.492-1.253-2.438.913-1.989,4.308.673,4.308.673-5.08-3.331-7.453-5.264-.449-3.4,1.489-1.814a19.133,19.133,0,0,0,4.041,2.469s-6.833-5.776-5.836-6.99S1186.864,976.212,1186.864,976.212Z" transform="translate(-1001.612 -804.551)"/><path class="x" d="M1287.478,734.026s.73,10.207,1.677,12.436a3.348,3.348,0,0,0,1.25,1.457c2.694,1.8-2.108,24.531-4.553,24.02-2.635-.541-9.152-14.636-11.253-19.209a2.707,2.707,0,0,1,1.293-3.592h.018c2.265-1.006.595-19.719.595-19.719Z" transform="translate(-1074.249 -615.334)"/><path class="z" d="M1288.971,726.1a1.123,1.123,0,0,0-.481,1.089,15.054,15.054,0,0,0,1.648,4.939c3.257,6.51,7.96,9.653,11.2,10.1a105.861,105.861,0,0,1-1.394-11.523Z" transform="translate(-1085.21 -612.759)"/><path class="aa" d="M1282.38,657.5s1.668-7.372,7.2-9.558,10.585-.543,12.5,6.672-.858,18.663-4.216,22.177S1282.8,674.421,1282.38,657.5Z" transform="translate(-1080.48 -551.45)"/><path class="ab" d="M1271.866,695.072s-2.77-4.294-4.472-1.812-.2,8.411,3.022,8.721S1271.866,695.072,1271.866,695.072Z" transform="translate(-1068.31 -586.692)"/><path class="r" d="M632.467,1700.819s-.031.323-.031.86a12.439,12.439,0,0,0,2.5,7.8c2.965,3.5,2.981,7.857-.15,8.595s-10.6-.238-10.6-.238-1.69-3.329-.536-12.221,1.823-18.646,1.823-18.646l8.512-1.506Z" transform="translate(-569.309 -1356.76)"/><path class="ac" d="M630.16,1769.037a56.346,56.346,0,0,1,3.895,6.889c.739,2.029.581,7.071,0,7.592-5.1,4.573-14.784.449-14.784.449a73.448,73.448,0,0,1-1-7.468c-.334-4.115-.146-7.949,1-7.949s1.347,2.157,3.969,1.549S627.471,1768.426,630.16,1769.037Z" transform="translate(-565.334 -1421.198)"/><path class="k" d="M619.67,1813.12a30.824,30.824,0,0,0,7.123,2.294c2.653.431,6.225-.9,8.919-2.245.139,2.155-.061,4.571-.449,4.923-5.1,4.573-14.784.449-14.784.449S620.018,1816.236,619.67,1813.12Z" transform="translate(-566.537 -1455.763)"/><path class="r" d="M729.028,1706.451a10.958,10.958,0,0,0,2.819,10.88,14.787,14.787,0,0,0,3.4,2.38c4.956,2.469,11.379,1.906,12.275,6.959s-31.441-1.419-31.441-1.419,2.245-12.283,2.389-14.342-.2-9.612-.2-9.612l12.488-1.017Z" transform="translate(-641.304 -1368.253)"/><path class="ac" d="M715.659,1764.168s-.4,1.951-1.3,5.257a16.191,16.191,0,0,0-.341,6.422s30.287,1.628,31.513.539.6-5.049.287-5.4-4.155-1.529-6.126-2.918-8.7-6.6-10.977-6.389-3.325,2.117-7.646,2.334S716.732,1763.216,715.659,1764.168Z" transform="translate(-639.57 -1415.864)"/><path class="k" d="M745.523,1808.561c-1.226,1.089-31.513-.539-31.513-.539a16.3,16.3,0,0,1-.029-4.58c15.81,3.322,31.829-.283,31.829-.283C746.12,1803.512,746.748,1807.472,745.523,1808.561Z" transform="translate(-639.562 -1448.038)"/><path class="ad" d="M714.49,1803.443a73.025,73.025,0,0,0,31.829-.283,97.825,97.825,0,0,1-28.86.743Z" transform="translate(-640.071 -1448.038)"/><path class="ac" d="M608.6,1189.77l2.844,124.392,13.615-1.953s4.312-99.82,6.838-102.779,3.536.186,3.536.186,10.856,41.529,8.838,49.812-11.036,52.664-11.036,52.664l13.054.591s14.9-34.023,14.9-57.692-9.2-63.016-9.2-63.016Z" transform="translate(-557.952 -972.343)"/><rect class="ae" width="15.72" height="3.661" transform="translate(90.48 340.265) rotate(180)"/><rect class="ae" width="15.871" height="4.624" transform="translate(68.16 341.818) rotate(180)"/><path class="ae" d="M623.636,1383.588a.385.385,0,0,0,.088-.011.475.475,0,0,0,.305-.563c-2.514-13.175-2.676-98.772-2.678-99.632a.449.449,0,0,0-.4-.471h0a.449.449,0,0,0-.4.474c0,3.527.164,86.56,2.694,99.834A.422.422,0,0,0,623.636,1383.588Z" transform="translate(-567.216 -1044.575)"/><path class="ae" d="M726.76,1378.3a.411.411,0,0,0,.38-.31c.61-1.953,14.957-47.9,14.142-54.239-.8-6.254-9.965-45.641-10.355-47.316a.4.4,0,0,0-.494-.33.485.485,0,0,0-.283.579c.094.409,9.543,41.008,10.326,47.206.784,6.108-13.956,53.3-14.1,53.775a.5.5,0,0,0,.24.606A.335.335,0,0,0,726.76,1378.3Z" transform="translate(-649.264 -1039.29)"/><path class="af" d="M779.4,801.73l19,25.068-22.39,8.167Z" transform="translate(-687.781 -671.412)"/><path class="ag" d="M566.993,742.249c2.887-2.889,9.608-5.008,13.99-6.146a20.064,20.064,0,0,1,7.711-.449L598.555,737s12.809,8.234,17.613,13.038,9.147,34.88,9.147,34.88l-2.175,11.448,2.494,50.455c-1.1,0-34.173,4.041-52.547-1.468,0,0,0-26.913-.507-43.255C570.432,789.689,563.17,746.07,566.993,742.249Z" transform="translate(-524.837 -620.026)"/><path class="af" d="M567.387,752.914a20.141,20.141,0,0,1,5.751-3.338h0s3.641-2,6.945,11.626-.9,30.2.572,31.652,33.636-.2,33.636-.2-18.8,10.809-27.975,18.693c-3.679,3.159-13.435,4.817-13.453,4.714q-.04-1.6-.088-3.107C571.74,806.965,562.958,757.042,567.387,752.914Z" transform="translate(-525.029 -630.886)"/><path class="ah" d="M797.679,882.061,781.517,912.59a2.061,2.061,0,0,1-1.939,1.1l-19.191-1.122a2.09,2.09,0,0,1-1.823-2.793l9.9-27.865a2.063,2.063,0,0,1,1.818-1.378l25.458-1.538a2.088,2.088,0,0,1,1.94,3.069Z" transform="translate(-674.156 -731.328)"/><path class="ai" d="M751.85,915.074l10.023-27.611a2.087,2.087,0,0,1,1.843-1.365l.992-.058a2.091,2.091,0,0,0-1.262,1.259l-10.023,27.87a2.092,2.092,0,0,0,1.491,2.743l-1.221-.072a2.07,2.07,0,0,1-1.843-2.766Z" transform="translate(-668.951 -736.795)"/><path class="aj" d="M540.409,899.313l1.524,5.484s32.478-8.38,36.29-10.212c3.084-1.482,15.343-4.759,19.909-4.44a.646.646,0,0,1,.115,1.273c-2.873.7-8.589,2.142-8.589,2.719,0,.763,5.754,1.886,5.338,2.822-.84,1.886-3.659,2.972-4.193,4.725s-6.373.382-8.371.382-39.06,22.491-50.257,17.155-4.422-29.01-4.422-29.01Z" transform="translate(-493.679 -739.962)"/><path class="aj" d="M856.029,951.213c.743-.743.7-2.572,1.571-3.432s1.8.878,2.02-1.066-1.143-4.957.191-4.8,3.165,5.644,3.165,5.644c.961,2.245-3.367,10.6-5.639,10.028s-3.167-3.282-3.167-4.539S855.285,951.956,856.029,951.213Z" transform="translate(-748.396 -780.12)"/><path class="k" d="M648.887,736.928h0l.049.031a.05.05,0,0,1,.02.014L649,737l.027.016.076.049.031.02.092.061h.016a.086.086,0,0,1,.025.016l.022.013.049.034.027.016.2.135.041.025c1.217.8,3.816,2.516,6.707,4.548h0s1.2,4.815.628,7.9-1.773,4.059-3.488,3.367-4.939-5.26-5.67-5-5.709,6.49-8.111,5.518c-1.614-.653-6.456-11.255-8.883-17.559l.516-.135a20.012,20.012,0,0,1,7.711-.449l9.861,1.347h0Z" transform="translate(-575.16 -619.961)"/><path class="aj" d="M673.689,684.121c-.77,4.041-1.122,8.414-.449,10.953,0,0-1.6,6.925-5.587,7.262s-11.543-11.925-11.543-11.925l8.306-13.051Z" transform="translate(-594.797 -574.96)"/><path class="ak" d="M694.62,690.484a13.133,13.133,0,0,1-10.51-9.938l2.02-3.176,9.273,6.759a45.374,45.374,0,0,0-.784,6.355Z" transform="translate(-616.511 -574.968)"/><path class="aj" d="M701.967,591.165s3.908,24.518-3.082,27.346-16.443-1.708-17.146-10.028S682.826,583.2,701.967,591.165Z" transform="translate(-614.578 -506.507)"/><path class="n" d="M667.985,569.9s13.323-3.94,14.111-.045-3.592,6.788-6.656,7.047-10.865-.144-13.244,2.667-6.622,15.806-6.622,15.806l-2.393,3.753s-.979-6.847-4.431-11.031-1.511-11.388,1.8-16.315S664.963,570.147,667.985,569.9Z" transform="translate(-587.676 -490.258)"/><path class="aj" d="M684.561,638.884s-1.268-3.435-3.143-2.947c-4.265,1.109-1.136,8.7.265,8.905C684.525,645.264,685.677,643.017,684.561,638.884Z" transform="translate(-612.749 -542.799)"/><path class="ag" d="M545.055,763.992c.141,8.133-4.265,32.132-4.265,32.132s-17.079-.343-18.45-1.715,3.03-37.587,10.573-42.663C541.921,745.685,544.92,756.144,545.055,763.992Z" transform="translate(-490.862 -631.245)"/><rect class="m" width="88.051" height="45.195" rx="22.597" transform="translate(414.587 45.195) rotate(180)"/><path class="m" d="M2033.995,355.867l1.661,32.02-22.6-32.768Z" transform="translate(-1647.136 -325.057)"/><path class="al" d="M879.258,330.078a4.219,4.219,0,1,1-4.209-3.928A4.075,4.075,0,0,1,879.258,330.078Z" transform="translate(-634.749 -285.603)"/><path class="al" d="M975.1,330.078a4.219,4.219,0,1,1-4.209-3.928A4.075,4.075,0,0,1,975.1,330.078Z" transform="translate(-712.079 -285.603)"/><path class="al" d="M1070.918,330.078a4.219,4.219,0,1,1-4.209-3.928A4.076,4.076,0,0,1,1070.918,330.078Z" transform="translate(-789.389 -285.603)"/><path class="am" d="M879.258,330.078a4.219,4.219,0,1,1-4.209-3.928A4.075,4.075,0,0,1,879.258,330.078Z" transform="translate(-522.999 -307.481)"/><path class="am" d="M975.1,330.078a4.219,4.219,0,1,1-4.209-3.928A4.075,4.075,0,0,1,975.1,330.078Z" transform="translate(-600.325 -307.481)"/><path class="am" d="M1070.918,330.078a4.219,4.219,0,1,1-4.209-3.928A4.076,4.076,0,0,1,1070.918,330.078Z" transform="translate(-677.635 -307.481)"/></g></g></g></svg>