<?xml version="1.0" encoding="utf-8"?>
<!-- Generator: Adobe Illustrator 23.0.3, SVG Export Plug-In . SVG Version: 6.00 Build 0)  -->
<svg version="1.1" id="Слой_1" xmlns="http://www.w3.org/2000/svg" xmlns:xlink="http://www.w3.org/1999/xlink" x="0px" y="0px"
	 viewBox="0 0 193 40" style="enable-background:new 0 0 193 40;" xml:space="preserve">
<style type="text/css">
	.st0{fill:#F84A36;}
	.st1{fill-rule:evenodd;clip-rule:evenodd;fill:#FFFFFF;}
	.st2{enable-background:new    ;}
	.st3{fill:#FFFFFF;}
</style>
<g transform="translate(-143 -6)">
	<g transform="translate(152 12)">
		<g transform="matrix(1, 0, 0, 1, -9, -6)">
			<path class="st0" d="M15.4,0.4C6.3,2.6-0.1,10.7,0,20c-0.1,10.9,8.7,19.9,19.6,20c3.4,0,6.8-0.8,9.8-2.5
				c10.6-5.8,13.6-19,6.7-29.2C32,2.4,22.3-1.3,15.4,0.4z M29,29.1c-1.3,1.5-1.5,1.4-5.3-2.4L19.8,23l-3.9,3.8c-3,3-4.1,3.7-4.9,2.8
				c-1.5-1.5-1.2-2.4,2.4-6.1l3.4-3.5l-3.8-3.9c-3.7-3.7-3.7-4-2.4-5.3c1.4-1.3,1.9-0.9,10.6,7.7C29.8,27.2,30.3,27.7,29,29.1z
				 M27.6,15.1c-2.8,2.8-3,2.8-4.3,1.5c-1.3-1.3-1.2-1.5,1.4-4.2s2.8-2.8,4.2-1.5C30.4,12.1,30.4,12.3,27.6,15.1z"/>
		</g>
		<g transform="matrix(1, 0, 0, 1, -9, -6)">
			<path class="st1" d="M29,29.1c-1.3,1.5-1.5,1.4-5.3-2.4L19.8,23l-3.9,3.8c-3,3-4.1,3.7-4.9,2.8c-1.5-1.5-1.2-2.4,2.4-6.1l3.4-3.5
				l-3.8-3.9c-3.7-3.7-3.7-4-2.4-5.3c1.4-1.3,1.9-0.9,10.6,7.7C29.8,27.2,30.3,27.8,29,29.1z"/>
		</g>
		<g transform="matrix(1, 0, 0, 1, -9, -6)">
			<path class="st1" d="M27.6,15.1c-2.8,2.8-3,2.8-4.3,1.5c-1.3-1.3-1.2-1.5,1.4-4.2c2.6-2.7,2.8-2.8,4.2-1.5
				C30.4,12.2,30.4,12.3,27.6,15.1z"/>
		</g>
	</g>
	<g class="st2">
		<path class="st3" d="M193,34l6.6-10.1l-6-9.2h4.6l3.9,6.2l3.8-6.2h4.5l-6,9.4L211,34h-4.7l-4.3-6.7l-4.3,6.7H193z"/>
		<path class="st3" d="M211.7,14.7h4.4l4.5,10l3.9-10h4.1l-6.5,14.7c-0.7,1.6-1.4,2.8-2.2,3.6c-0.7,0.8-1.7,1.2-2.9,1.2
			c-1.2,0-2.1-0.1-2.7-0.2v-2.9c0.6,0,1.1,0.1,1.5,0.1c0.9,0,1.6-0.2,1.9-0.5c0.4-0.3,0.8-1,1.1-2.1L211.7,14.7z"/>
		<path class="st3" d="M243.2,14.7v8.2c0.7-0.1,1.1-0.3,1.5-0.7s0.8-1.4,1.4-3c0.8-2,1.6-3.3,2.4-3.8c0.8-0.5,2.1-0.8,4-0.8
			c0.1,0,0.3,0,0.6,0v2.9l-0.6,0c-0.8,0-1.4,0.1-1.7,0.3c-0.4,0.2-0.7,0.5-0.9,0.9s-0.6,1.2-1,2.5c-0.2,0.7-0.5,1.2-0.8,1.7
			c-0.3,0.4-0.8,0.9-1.5,1.3c0.9,0.3,1.6,0.8,2.2,1.5c0.6,0.7,1.2,1.8,1.9,3.2l2.6,5.3h-4.6l-2.3-5c0-0.1-0.1-0.2-0.2-0.4
			c-0.1-0.1-0.2-0.4-0.5-0.9c-0.5-0.9-0.9-1.5-1.2-1.8s-0.7-0.4-1.2-0.4V34h-3.8v-8.5c-0.4,0-0.8,0.1-1.2,0.4s-0.7,0.8-1.2,1.8
			c-0.3,0.5-0.4,0.8-0.5,0.9c-0.1,0.1-0.2,0.3-0.2,0.4l-2.3,5h-4.6l2.6-5.3c0.7-1.3,1.3-2.3,1.8-3.1c0.6-0.8,1.3-1.3,2.2-1.5
			c-0.7-0.4-1.2-0.8-1.5-1.3c-0.3-0.4-0.5-1-0.8-1.7c-0.4-1.2-0.8-2.1-1-2.5c-0.2-0.4-0.5-0.7-0.9-0.9c-0.4-0.2-1-0.3-1.8-0.3
			c-0.1,0-0.3,0-0.5,0v-2.9c0.3,0,0.5,0,0.6,0c1.9,0,3.2,0.3,4,0.8c0.8,0.6,1.6,1.8,2.3,3.8c0.6,1.5,1.1,2.5,1.4,3
			c0.3,0.4,0.8,0.7,1.5,0.7v-8.2H243.2z"/>
		<path class="st3" d="M256.1,34V14.7h14.3v3.3H260v4.3h9.7v3.3H260v5.3h10.8V34H256.1z"/>
		<path class="st3" d="M274.7,34v-3.7h3.7V34H274.7z"/>
	</g>
	<g class="st2">
		<path class="st0" d="M282.9,34V14.7h3.9v7.6h7.6v-7.6h3.9V34h-3.9v-8.5h-7.6V34H282.9z"/>
		<path class="st0" d="M303.1,34V14.7h14.3v3.3H307v4.3h9.7v3.3H307v5.3h10.8V34H303.1z"/>
		<path class="st0" d="M326.1,34V17.9h-5.7v-3.3h15.4v3.3H330V34H326.1z"/>
	</g>
</g>
</svg>
