<svg xmlns="http://www.w3.org/2000/svg" xmlns:xlink="http://www.w3.org/1999/xlink" width="123.854" height="65.109" viewBox="0 0 123.854 65.109"><defs><style>.a{fill:#c41230;}.b{filter:url(#a);}</style><filter id="a" x="0" y="0" width="123.854" height="65.109" filterUnits="userSpaceOnUse"><feOffset dy="2" input="SourceAlpha"/><feGaussianBlur stdDeviation="1" result="b"/><feFlood flood-color="#404040" flood-opacity="0.161"/><feComposite operator="in" in2="b"/><feComposite in="SourceGraphic"/></filter></defs><g transform="translate(3 1)"><g class="b" transform="matrix(1, 0, 0, 1, -3, -1)"><path class="a" d="M145.688,542.349a116.782,116.782,0,0,1-12.033-.96c-16.243-2.185-29.853-7.755-37.431-15.317A20.291,20.291,0,0,1,90.289,515.8a16.021,16.021,0,0,1,0-5.925,18.17,18.17,0,0,1,3.105-6.953c3.577-5.031,9.854-9.51,18.09-12.908,13.727-5.664,31.7-7.908,49.2-6.142,20.546,2.073,37.448,9.571,44.155,19.587a15.958,15.958,0,0,1,2.177,14.414,21.646,21.646,0,0,1-5.379,8.2c-7.179,7.165-19.814,12.568-34.979,14.958A115.006,115.006,0,0,1,145.688,542.349Zm8.961-3.781a91.122,91.122,0,0,0,21.936-3.818A55.773,55.773,0,0,0,190.8,528.2a29.4,29.4,0,0,0,4.8-3.92,19.088,19.088,0,0,0,3.916-5.337,12.776,12.776,0,0,0,1.471-6.1,12.981,12.981,0,0,0-1.512-6.2,19.408,19.408,0,0,0-3.876-5.24,36.07,36.07,0,0,0-9.726-6.767c-7.606-3.808-17.123-6.3-27.725-7.257a106.929,106.929,0,0,0-18.435,0c-14.906,1.342-27.7,5.767-35.618,12.317a32.865,32.865,0,0,0-3.545,3.579c-2.683,3.363-3.949,6.992-3.661,10.489.314,3.81,2.03,7.169,5.372,10.519a35.663,35.663,0,0,0,9.456,6.626c8.914,4.507,19.866,7.09,32.748,7.723C145.923,538.7,153.231,538.656,154.649,538.568Zm-41.784-10.792a.9.9,0,0,1-.257-.2c-.128-.142-.129-.245-.145-13.9l-.016-13.752-.17-.177c-.161-.168-.205-.179-.819-.2l-.648-.018v-1.734l4.668-.017,4.668-.016.2.167.2.167v4.958c0,5.447-.015,5.244.377,5.244.243,0,.327-.1,1.681-2.023,3.587-5.092,5.56-7.861,5.738-8.053.439-.474.24-.455,4.78-.456h4.066l.155.155a.593.593,0,0,1,.176.637c-.055.118-1.814,2.73-7.957,11.815-.671.992-.858,1.315-.856,1.477s.438.823,2.3,3.452c8.231,11.616,8.257,11.654,8.283,11.889a.469.469,0,0,1-.136.418l-.161.187-4.246.017c-4.186.017-4.25.016-4.559-.117a1.672,1.672,0,0,1-.472-.307c-.088-.095-2.023-2.788-4.3-5.985s-4.188-5.851-4.244-5.9a.377.377,0,0,0-.542.117c-.063.125-.081,1.434-.082,5.986v5.826l-.155.18-.155.18-3.619.013c-1.99.007-3.677-.011-3.747-.041Zm32.244-.029a.614.614,0,0,1-.273-.258c-.061-.135-.079-3.191-.079-13.857V499.949l-.188-.188c-.181-.181-.209-.188-.8-.188h-.615v-1.8h9.5l.21.187.21.187v29.3l-.178.178-.178.178-3.708.014A27.489,27.489,0,0,1,145.109,527.747Zm13.812.011a.506.506,0,0,1-.287-.481c0-.113.911-2.931,2.026-6.263l3.943-11.774c1.053-3.144,2.164-6.451,2.468-7.349a18.712,18.712,0,0,0,.554-1.807.612.612,0,0,0-.123-.327c-.11-.136-.188-.155-.755-.184l-.632-.032-.018-.883-.018-.883h5.7c3.743,0,5.785.023,5.943.067a.571.571,0,0,1,.311.2c.08.15.72,2.041,3.734,11.039,4.9,14.638,6.025,18.017,6.025,18.155a.6.6,0,0,1-.3.53c-.109.05-1.249.071-3.734.071-3.28,0-3.6-.009-3.8-.112a1.13,1.13,0,0,1-.338-.274c-.065-.089-.563-1.548-1.107-3.244-5.185-16.16-5.042-15.719-5.158-15.849s-.227-.142-.36,0c-.106.117-.306.731-3.125,9.614-.818,2.579-1.7,5.354-1.961,6.166s-.593,1.86-.741,2.328c-.29.92-.418,1.14-.745,1.276-.282.118-7.3.128-7.507.011Z" transform="translate(-87.01 -482.28)"/></g></g></svg>