<svg xmlns="http://www.w3.org/2000/svg" xmlns:xlink="http://www.w3.org/1999/xlink" width="96.003" height="96.003" viewBox="0 0 96.003 96.003"><defs><style>.a{fill:url(#a);}.b{fill:url(#b);}.c{fill:url(#c);}.d{fill:#3566b8;}</style><radialGradient id="a" cx="0.179" cy="0.11" r="1.008" gradientUnits="objectBoundingBox"><stop offset="0" stop-color="#283c4f"/><stop offset="0.35" stop-color="#2c4053"/><stop offset="0.7" stop-color="#314559"/><stop offset="1" stop-color="#374b5f"/></radialGradient><radialGradient id="b" cx="0.5" cy="1.007" r="1.009" gradientTransform="translate(0.227) scale(0.546 1)" gradientUnits="objectBoundingBox"><stop offset="0"/><stop offset="1" stop-opacity="0"/></radialGradient><radialGradient id="c" cx="0.5" cy="0.5" r="0.5" gradientTransform="matrix(1, 0, 0, 1, 0, 0)" xlink:href="#b"/></defs><g transform="translate(-1380.997 -288.003)"><path class="a" d="M100,52A48,48,0,1,1,52,4,48,48,0,0,1,100,52Z" transform="translate(1376.997 284.003)"/><path class="b" d="M45.407,68c14.486,0,25.359-4.9,34.135-14.594C73.358,39.306,61.786,28,45.407,28S14.823,39.048,8.639,53.145C17.147,63.1,30.921,68,45.407,68Z" transform="translate(1384.907 314.989)"/><circle class="c" cx="20" cy="20" r="20" transform="translate(1408.997 308.003)"/><path class="d" d="M16,0A16,16,0,1,1,0,16,16,16,0,0,1,16,0Z" transform="translate(1412.999 312.005)"/><path class="d" d="M40.436,62C51.9,62,63.784,57.622,70.961,50.974A33.048,33.048,0,0,0,40.436,30,33.158,33.158,0,0,0,9.847,51,47.7,47.7,0,0,0,40.436,62Z" transform="translate(1388.596 322.007)"/></g></svg>