<svg xmlns="http://www.w3.org/2000/svg" width="66.09" height="80.004" viewBox="0 0 66.09 80.004"><defs><style>.a{fill:#3566b8;}.b{fill:#fff;}</style></defs><g transform="translate(-1096.955 -208)"><path class="a" d="M39.045,2A20.893,20.893,0,0,0,18.175,22.871v3.478h3.478V22.871a17.392,17.392,0,1,1,34.784,0v3.478h3.478V22.871A20.893,20.893,0,0,0,39.045,2ZM11.218,29.827A5.228,5.228,0,0,0,6,35.045V76.786A5.228,5.228,0,0,0,11.218,82H66.873a5.228,5.228,0,0,0,5.218-5.218V35.045a5.228,5.228,0,0,0-5.218-5.218Z" transform="translate(1090.955 206)"/><path class="b" d="M41.245,20.778a3.525,3.525,0,0,0-2.5,1.035l-1.051,1.051,5,5,1.051-1.051a3.536,3.536,0,0,0-2.5-6.036Zm-6.38,4.915L21.732,38.831l-.953,5.95,5.954-.949L39.866,30.693Z" transform="translate(1097.221 229.222)"/></g></svg>