<svg xmlns="http://www.w3.org/2000/svg" width="56.002" height="56.002" viewBox="0 0 56.002 56.002"><defs><style>.a{fill:#3566b8;}</style></defs><path class="a" d="M59,28.077c0,10.589-5.145,17.144-13.522,17.144-4.338,0-7.434-1.883-8.342-5.075H36.5c-1.379,3.4-4,5.11-7.871,5.11-7,0-11.637-5.647-11.637-14.185,0-8.169,4.473-13.681,11.133-13.681a8.14,8.14,0,0,1,7.838,4.774H36.6V18.2h7.735V35.274c0,2.387,1.076,3.8,2.893,3.8,2.959,0,4.844-3.932,4.844-10.185C52.071,16.718,44.1,8.92,31.689,8.92,18.738,8.92,9.927,18,9.927,31.206c0,13.377,8.879,21.75,23.141,21.75a31.373,31.373,0,0,0,8.039-.94V58a36.243,36.243,0,0,1-8.781,1C14.736,59,3,47.809,3,31.034,3,14.462,14.769,3,31.789,3,48,3,59,13.153,59,28.077ZM25.834,31.3c0,4.37,1.815,6.991,4.877,6.991,3.094,0,4.977-2.655,4.977-6.991s-1.918-6.991-4.977-6.991S25.834,26.934,25.834,31.3Z" transform="translate(-2.997 -3)"/></svg>