<svg xmlns="http://www.w3.org/2000/svg" width="56" height="59" viewBox="0 0 56 59"><defs><style>.a{opacity:0;}.b{fill:#283c4f;}.c{fill:#c2c8cd;font-size:2px;font-family:ProximaNova-Regular, Proxima Nova;letter-spacing:0.012em;}.d,.f{fill:none;}.d{stroke:#3566b8;}.e{stroke:none;}</style></defs><g class="a" transform="translate(-1153 -149)"><rect class="b" width="26" height="5" rx="2" transform="translate(1168 203)"/><text class="c" transform="translate(1181 206)"><tspan x="-11.321" y="0">Редактировать профиль</tspan></text></g><g class="d"><circle class="e" cx="28" cy="28" r="28"/><circle class="f" cx="28" cy="28" r="27.5"/></g><g transform="translate(-1186.616 -146.993)"><path class="d" d="M30.025,20.778a1.593,1.593,0,0,0-1.13.468l-.475.475L30.68,23.98l.475-.475a1.6,1.6,0,0,0-1.13-2.727ZM27.143,23l-5.934,5.936-.431,2.688,2.69-.429L29.4,25.258Z" transform="translate(1200.114 157.373)"/><path class="d" d="M23.315,21.93c-1.044-.43-2.336-.984-2.336-1.414V17.75a6.227,6.227,0,0,0,2.458-4.917V9.146a6.146,6.146,0,0,0-12.292,0v3.688A6.141,6.141,0,0,0,13.6,17.75v2.766c0,.37-1.292.922-2.336,1.414C8.75,22.974,5,24.573,5,28.813v.615H23.046c.433-1.371,1.169-1.329,4.507-5.116A14.006,14.006,0,0,0,23.315,21.93Z" transform="translate(1195.117 157.992)"/></g></svg>